<svg width="203" height="85" viewBox="0 0 203 85" fill="none" xmlns="http://www.w3.org/2000/svg">
<path d="M7.43164 9.11133V16.582L6.99219 16.002L7.00977 15.7676C7.00977 15.4004 6.92188 14.9414 6.74609 14.3906C6.66797 14.1367 6.57617 13.873 6.4707 13.5996C6.36523 13.3262 6.26172 13.0742 6.16016 12.8438C6.125 12.7812 6.08398 12.7168 6.03711 12.6504C5.99414 12.5801 5.94336 12.5117 5.88477 12.4453L5.45117 12.0234C5.27148 11.8867 5.0918 11.7754 4.91211 11.6895C4.73242 11.5996 4.56836 11.5488 4.41992 11.5371C4.41992 11.5449 4.41602 11.5527 4.4082 11.5605C4.66211 11.9043 4.78906 12.2012 4.78906 12.4512C4.78906 12.5254 4.78711 12.5859 4.7832 12.6328C4.7793 12.6758 4.77148 12.7129 4.75977 12.7441C4.75977 12.7754 4.75195 12.8125 4.73633 12.8555C4.7207 12.8984 4.69727 12.9512 4.66602 13.0137C4.49805 13.3457 4.19141 13.5117 3.74609 13.5117L3.37109 13.4648C3.24219 13.4453 3.12109 13.4141 3.00781 13.3711C2.89844 13.3242 2.79883 13.2676 2.70898 13.2012C2.56445 13.0449 2.44727 12.7871 2.35742 12.4277L2.32812 12.1113C2.32812 11.8652 2.375 11.6387 2.46875 11.4316C2.5625 11.2207 2.68945 11.041 2.84961 10.8926C3.01367 10.7402 3.20312 10.623 3.41797 10.541C3.63672 10.4551 3.86914 10.4121 4.11523 10.4121L4.40234 10.4238C4.48828 10.4238 4.61328 10.457 4.77734 10.5234C4.85547 10.5391 4.94531 10.5781 5.04688 10.6406C5.15234 10.6992 5.25391 10.7637 5.35156 10.834C5.48828 10.9355 5.62891 11.0645 5.77344 11.2207C5.91797 11.377 6.05273 11.5508 6.17773 11.7422C6.25977 11.8711 6.33398 11.9883 6.40039 12.0938C6.4668 12.1992 6.52148 12.293 6.56445 12.375V9.11133H1.84766L0.986328 8.23242H8.07031L8.97266 9.11133H7.43164ZM11.8262 9.11133H10.1445V16.5645L9.30664 15.6855V10.3945C9.30664 10.2695 9.29492 10.1719 9.27148 10.1016C9.24414 9.9375 9.19531 9.80469 9.125 9.70312C9.07031 9.62891 9.00781 9.55859 8.9375 9.49219C8.86719 9.42188 8.7832 9.35352 8.68555 9.28711C8.49414 9.16211 8.29883 9.09961 8.09961 9.09961L7.88867 9.11133L6.99219 8.23242H7.47852L7.75391 8.21484H7.9707C8.28711 8.23438 8.50977 8.27734 8.63867 8.34375C8.70898 8.37891 8.76953 8.41406 8.82031 8.44922C8.875 8.48047 8.92188 8.51562 8.96094 8.55469L8.94922 8.54883C9.10938 8.67383 9.26758 8.9043 9.42383 9.24023L9.46484 9.32812L9.35938 8.54883L9.30664 7.69922V7.38281C9.30664 7.33203 9.29883 7.25977 9.2832 7.16602C9.27148 7.07227 9.25391 6.9668 9.23047 6.84961L9.72266 7.24219L9.78711 7.63477L9.82812 7.83984L9.89258 7.98633L10.0449 8.17969L10.0977 8.23242H10.9531L11.8262 9.11133ZM18.4707 9.11133H16.8359V16.3828L16.3848 15.9316L16.1914 15.2695V15.2754C16.1562 15.1738 16.1113 15.0703 16.0566 14.9648C16.0059 14.8555 15.9512 14.752 15.8926 14.6543C15.8027 14.4316 15.709 14.2891 15.6113 14.2266C15.4473 14.0703 15.2949 13.9395 15.1543 13.834C15.0176 13.7285 14.8945 13.6445 14.7852 13.582L14.627 13.4941L14.5449 13.582L14.1934 13.875L13.7773 14.0859L13.3789 14.1387C13.1797 14.1387 12.9961 14.1094 12.8281 14.0508C12.6602 13.9883 12.5332 13.9062 12.4473 13.8047L12.248 13.5527L12.1484 13.2129L12.1016 12.9023C12.1016 12.7305 12.1562 12.5352 12.2656 12.3164L12.4941 11.9648C12.5527 11.9023 12.6172 11.8516 12.6875 11.8125C12.7578 11.7734 12.834 11.7422 12.916 11.7188L13.291 11.6133L13.6309 11.584C13.7207 11.584 13.8008 11.5879 13.8711 11.5957C13.9414 11.5996 14 11.6113 14.0469 11.6309C14.0391 11.5254 14.0234 11.4219 14 11.3203C13.9766 11.2188 13.9473 11.1289 13.9121 11.0508C13.8145 10.8359 13.6289 10.625 13.3555 10.418C13.207 10.3633 13.0586 10.3105 12.9102 10.2598C12.7656 10.2051 12.6191 10.1523 12.4707 10.1016H12.4766C12.2656 10.043 12.0957 9.99023 11.9668 9.94336C11.8418 9.89258 11.7578 9.8418 11.7148 9.79102L11.5684 9.67383L11.3047 9.38086L11.1816 9.07031L10.3613 8.23242H17.5859L18.4707 9.11133ZM15.9922 13.6523V9.11133H13.0566C13.1855 9.22461 13.3125 9.33594 13.4375 9.44531C13.5664 9.55469 13.6934 9.66406 13.8184 9.77344L14.1465 10.084C14.209 10.1387 14.2656 10.207 14.3164 10.2891C14.3711 10.3672 14.4316 10.4629 14.498 10.5762C14.5605 10.6855 14.6172 10.791 14.668 10.8926C14.7227 10.9941 14.7637 11.0977 14.791 11.2031L14.9082 11.7246L14.9023 11.7188C14.9375 11.8359 14.9629 11.9395 14.9785 12.0293C14.9941 12.1152 15.002 12.1875 15.002 12.2461L14.9727 12.4863L15.2246 12.7148C15.248 12.7852 15.3184 12.8652 15.4355 12.9551L15.875 13.4941L15.9922 13.6523ZM21.6934 11.4551C21.6113 11.5371 21.5352 11.6055 21.4648 11.6602C21.3945 11.7148 21.3242 11.7578 21.2539 11.7891L20.9609 11.8945L20.7031 11.9238C20.2734 11.9238 19.8906 11.7324 19.5547 11.3496C19.3906 11.1504 19.2656 10.9453 19.1797 10.7344C19.0938 10.5234 19.0508 10.2949 19.0508 10.0488C19.0508 9.97461 19.0508 9.91211 19.0508 9.86133C19.0508 9.80664 19.0547 9.75781 19.0625 9.71484C19.0742 9.66797 19.0898 9.62109 19.1094 9.57422C19.1289 9.52344 19.1562 9.46289 19.1914 9.39258C19.2266 9.31445 19.2812 9.23828 19.3555 9.16406C19.4297 9.08984 19.5156 9.00977 19.6133 8.92383C19.9375 8.68164 20.2695 8.56055 20.6094 8.56055C21.0234 8.56055 21.3945 8.72852 21.7227 9.06445V9.05859C22.043 9.38281 22.2031 9.76953 22.2031 10.2188C22.2031 10.6641 22.0332 11.0742 21.6934 11.4492V11.4551ZM21.6406 15.5449C21.5859 15.6113 21.5215 15.6699 21.4473 15.7207C21.373 15.7715 21.291 15.8242 21.2012 15.8789C21.123 15.9102 21.041 15.9355 20.9551 15.9551C20.873 15.9785 20.7852 15.998 20.6914 16.0137C20.4805 16.0137 20.2812 15.9648 20.0938 15.8672C19.9062 15.7734 19.7266 15.625 19.5547 15.4219C19.2383 15.0352 19.0801 14.6016 19.0801 14.1211C19.0801 13.8867 19.125 13.6699 19.2148 13.4707C19.3047 13.2715 19.4492 13.0918 19.6484 12.9316C19.7891 12.8262 19.9434 12.7422 20.1113 12.6797C20.2793 12.6133 20.4492 12.5801 20.6211 12.5801C21.0312 12.5801 21.3926 12.748 21.7051 13.084C21.8535 13.2559 21.9668 13.4395 22.0449 13.6348C22.123 13.8262 22.1621 14.0332 22.1621 14.2559C22.1621 14.3379 22.1602 14.4082 22.1562 14.4668C22.1562 14.5254 22.1523 14.5781 22.1445 14.625C22.1367 14.6719 22.125 14.7188 22.1094 14.7656C22.0938 14.8086 22.0723 14.8594 22.0449 14.918V14.9121C21.9629 15.1152 21.8262 15.3262 21.6348 15.5449H21.6406ZM20.8789 10.834C21.2383 10.5762 21.418 10.3457 21.418 10.1426C21.418 10.0723 21.3965 10.0098 21.3535 9.95508C21.3105 9.90039 21.252 9.85547 21.1777 9.82031C21.1074 9.78125 21.0254 9.75195 20.9316 9.73242C20.8418 9.70898 20.748 9.69727 20.6504 9.69727C20.4355 9.69727 20.2754 9.74414 20.1699 9.83789C19.9434 10.0137 19.8301 10.2891 19.8301 10.6641C19.8301 10.7969 19.8555 10.9023 19.9062 10.9805C19.957 11.0547 20.0488 11.1035 20.1816 11.127C20.3691 11.127 20.6016 11.0293 20.8789 10.834ZM20.9375 14.9414L20.9258 14.9531C21.0742 14.832 21.1855 14.709 21.2598 14.584C21.3379 14.459 21.3906 14.332 21.418 14.2031C21.4141 14.1211 21.3828 14.0469 21.3242 13.9805C21.2695 13.9102 21.1973 13.8516 21.1074 13.8047C21.0215 13.7539 20.9238 13.7168 20.8145 13.6934C20.709 13.666 20.6055 13.6523 20.5039 13.6523C20.4297 13.6523 20.3594 13.6602 20.293 13.6758C20.2266 13.6875 20.166 13.7148 20.1113 13.7578L20.123 13.752C20.0684 13.8145 19.998 13.9297 19.9121 14.0977V14.0859C19.8652 14.2461 19.8418 14.4141 19.8418 14.5898C19.8418 14.6797 19.8496 14.7656 19.8652 14.8477C19.8848 14.9258 19.9121 14.998 19.9473 15.0645C19.9824 15.127 20.0254 15.1777 20.0762 15.2168C20.1309 15.252 20.1934 15.2695 20.2637 15.2695C20.3691 15.2695 20.459 15.25 20.5332 15.2109L20.9375 14.9414ZM28.1973 14.2734V15.6562H26.8086V14.2734H28.1973ZM31.5371 14.2734V15.6562H30.1484V14.2734H31.5371ZM34.877 14.2734V15.6562H33.4883V14.2734H34.877ZM38.2168 14.2734V15.6562H36.8281V14.2734H38.2168ZM41.5566 14.2734V15.6562H40.168V14.2734H41.5566ZM44.8965 14.2734V15.6562H43.5078V14.2734H44.8965ZM48.2363 14.2734V15.6562H46.8477V14.2734H48.2363ZM51.5762 14.2734V15.6562H50.1875V14.2734H51.5762ZM54.916 14.2734V15.6562H53.5273V14.2734H54.916ZM58.2559 14.2734V15.6562H56.8672V14.2734H58.2559ZM61.5957 14.2734V15.6562H60.207V14.2734H61.5957ZM64.9355 14.2734V15.6562H63.5469V14.2734H64.9355ZM68.2754 14.2734V15.6562H66.8867V14.2734H68.2754ZM71.6152 14.2734V15.6562H70.2266V14.2734H71.6152ZM74.9551 14.2734V15.6562H73.5664V14.2734H74.9551ZM78.2949 14.2734V15.6562H76.9062V14.2734H78.2949ZM81.6348 14.2734V15.6562H80.2461V14.2734H81.6348ZM84.9746 14.2734V15.6562H83.5859V14.2734H84.9746ZM88.3145 14.2734V15.6562H86.9258V14.2734H88.3145ZM91.6543 14.2734V15.6562H90.2656V14.2734H91.6543ZM94.9941 14.2734V15.6562H93.6055V14.2734H94.9941ZM98.334 14.2734V15.6562H96.9453V14.2734H98.334ZM101.674 14.2734V15.6562H100.285V14.2734H101.674ZM105.014 14.2734V15.6562H103.625V14.2734H105.014ZM108.354 14.2734V15.6562H106.965V14.2734H108.354ZM111.693 14.2734V15.6562H110.305V14.2734H111.693ZM115.033 14.2734V15.6562H113.645V14.2734H115.033ZM118.373 14.2734V15.6562H116.984V14.2734H118.373ZM121.713 14.2734V15.6562H120.324V14.2734H121.713ZM125.053 14.2734V15.6562H123.664V14.2734H125.053ZM128.393 14.2734V15.6562H127.004V14.2734H128.393ZM131.732 14.2734V15.6562H130.344V14.2734H131.732ZM135.072 14.2734V15.6562H133.684V14.2734H135.072ZM138.412 14.2734V15.6562H137.023V14.2734H138.412ZM141.752 14.2734V15.6562H140.363V14.2734H141.752ZM145.092 14.2734V15.6562H143.703V14.2734H145.092ZM148.432 14.2734V15.6562H147.043V14.2734H148.432ZM151.771 14.2734V15.6562H150.383V14.2734H151.771ZM155.111 14.2734V15.6562H153.723V14.2734H155.111ZM158.451 14.2734V15.6562H157.062V14.2734H158.451ZM161.791 14.2734V15.6562H160.402V14.2734H161.791ZM165.131 14.2734V15.6562H163.742V14.2734H165.131ZM168.471 14.2734V15.6562H167.082V14.2734H168.471ZM171.811 14.2734V15.6562H170.422V14.2734H171.811ZM175.15 14.2734V15.6562H173.762V14.2734H175.15ZM178.49 14.2734V15.6562H177.102V14.2734H178.49ZM5.41016 30.4746H5.41602C5.11914 30.6035 4.87109 30.7305 4.67188 30.8555C4.47266 30.9766 4.30273 31.1055 4.16211 31.2422C4.02148 31.3789 3.90234 31.5273 3.80469 31.6875C3.71094 31.8477 3.61914 32.0273 3.5293 32.2266C3.48633 32.3203 3.44531 32.4199 3.40625 32.5254C3.36719 32.627 3.32812 32.7246 3.28906 32.8184C3.26562 32.9199 3.24219 33.0273 3.21875 33.1406C3.19922 33.25 3.17773 33.3555 3.1543 33.457C3.14648 33.5469 3.13867 33.6367 3.13086 33.7266C3.12305 33.8164 3.11523 33.9062 3.10742 33.9961V34.2129C3.11523 34.2598 3.125 34.3105 3.13672 34.3652C3.15234 34.416 3.16406 34.4629 3.17188 34.5059L3.16602 34.4941C3.24023 34.7441 3.30469 34.9512 3.35938 35.1152C3.41797 35.2793 3.47266 35.4043 3.52344 35.4902C3.59766 35.6348 3.67578 35.7578 3.75781 35.8594C3.83984 35.9609 3.92773 36.0488 4.02148 36.123L4.47852 36.252C4.41992 36.1855 4.36914 36.1133 4.32617 36.0352C4.2832 35.9531 4.25195 35.8633 4.23242 35.7656C4.23242 35.582 4.25586 35.4316 4.30273 35.3145C4.34961 35.1934 4.4375 35.082 4.56641 34.9805L4.81836 34.875L5.05859 34.8398H5.38086C5.44727 34.8398 5.50977 34.8594 5.56836 34.8984C5.62695 34.9375 5.71289 35.0156 5.82617 35.1328C6.01758 35.3594 6.11328 35.5801 6.11328 35.7949C6.11328 35.8926 6.09375 35.9941 6.05469 36.0996C6.01953 36.2051 5.9668 36.3086 5.89648 36.4102C5.82617 36.5117 5.73828 36.6074 5.63281 36.6973C5.52734 36.791 5.40625 36.873 5.26953 36.9434C5.09375 36.998 4.91211 37.0254 4.72461 37.0254C4.51758 37.0254 4.32227 36.9961 4.13867 36.9375C3.95508 36.8828 3.79102 36.793 3.64648 36.668V36.6738C3.1543 36.2637 2.78516 35.7148 2.53906 35.0273C2.46094 34.7656 2.40234 34.5059 2.36328 34.248C2.32812 33.9863 2.31055 33.7168 2.31055 33.4395L2.35156 32.6836C2.36328 32.5391 2.39844 32.373 2.45703 32.1855C2.51562 31.9941 2.5957 31.791 2.69727 31.5762C2.80273 31.3613 2.92969 31.1387 3.07812 30.9082C3.23047 30.6738 3.40625 30.4414 3.60547 30.2109L4.05078 29.8535L4.31445 29.7012C4.59961 29.541 4.85352 29.4219 5.07617 29.3438C5.29883 29.2617 5.49219 29.2246 5.65625 29.2324L6.4707 30.0527L5.41016 30.4746ZM11.9609 30.1113V37.418L11.1113 36.4512L11.1172 33.4043L11 33.0762C10.9492 33.0059 10.8984 32.9316 10.8477 32.8535C10.7969 32.7715 10.7461 32.6934 10.6953 32.6191V32.625C10.5938 32.5078 10.4746 32.4492 10.3379 32.4492C10.2715 32.4492 10.2109 32.457 10.1562 32.4727C10.1055 32.4844 10.0547 32.5078 10.0039 32.543C9.95312 32.5781 9.90039 32.625 9.8457 32.6836C9.79492 32.7422 9.73828 32.8164 9.67578 32.9062L8.69727 34.2773C8.49023 34.543 8.32422 34.6836 8.19922 34.6992L7.91797 34.7168H7.74805C7.70508 34.7168 7.66406 34.7129 7.625 34.7051C7.58984 34.6973 7.55469 34.6875 7.51953 34.6758L7.33203 34.5938C7.25781 34.582 7.18359 34.543 7.10938 34.4766C7.03906 34.4062 6.95312 34.3145 6.85156 34.2012L6.50586 33.668L6.35352 33.4043L6.20117 33.0879L6.85156 32.4609C6.85156 32.5742 6.86133 32.6777 6.88086 32.7715C6.9043 32.8652 6.94141 32.959 6.99219 33.0527L6.98633 33.0469L7.2207 33.3984C7.24414 33.418 7.27539 33.4395 7.31445 33.4629C7.35742 33.4863 7.40234 33.502 7.44922 33.5098C7.53516 33.502 7.63086 33.4492 7.73633 33.3516L7.73047 33.3633L8.03516 32.959L8.62109 32.168L8.56836 31.7871C8.56836 31.7441 8.56641 31.7031 8.5625 31.6641C8.55859 31.6211 8.54688 31.584 8.52734 31.5527C8.48438 31.4355 8.42773 31.3242 8.35742 31.2188C8.29102 31.1133 8.21289 31.0195 8.12305 30.9375C8.06836 30.9141 8.00977 30.8887 7.94727 30.8613C7.88867 30.834 7.83203 30.8105 7.77734 30.791H7.78906C7.67578 30.7598 7.58398 30.7422 7.51367 30.7383C7.44336 30.7305 7.38477 30.7266 7.33789 30.7266C7.15039 30.7266 7 30.7207 6.88672 30.709C6.77344 30.6973 6.67773 30.6797 6.59961 30.6562C6.52539 30.6289 6.46094 30.5977 6.40625 30.5625C6.35547 30.5234 6.29883 30.4805 6.23633 30.4336L6.01367 30.1113L5.82617 30.0059L5.04102 29.2324H12.8223L13.6953 30.1113H11.9609ZM11.1113 30.1113H8.4043C8.43555 30.1426 8.46875 30.1738 8.50391 30.2051C8.54297 30.2324 8.57812 30.2578 8.60938 30.2812C8.67578 30.3438 8.74219 30.4199 8.80859 30.5098C8.87891 30.5996 8.94336 30.7148 9.00195 30.8555C9.09961 31.1367 9.14844 31.3691 9.14844 31.5527V31.6348V31.6406H9.1543V31.6348L9.27148 31.5586L9.25977 31.5703C9.4707 31.3945 9.64062 31.2852 9.76953 31.2422L9.97461 31.2305C10.0527 31.2305 10.1191 31.2344 10.1738 31.2422C10.2324 31.25 10.2852 31.2656 10.332 31.2891C10.3789 31.3125 10.4258 31.3438 10.4727 31.3828C10.5234 31.4219 10.5801 31.4727 10.6426 31.5352L11.1172 32.0859L11.1113 30.1113ZM21.3066 30.1113H19.7246V37.3594L18.8105 36.5977L18.793 32.1152C18.793 31.9473 18.6484 31.6387 18.3594 31.1895C18.2266 30.9863 18.0898 30.8281 17.9492 30.7148C17.8086 30.6016 17.668 30.5449 17.5273 30.5449C17.3555 30.5449 17.2051 30.5938 17.0762 30.6914C16.9863 30.7656 16.9277 30.8516 16.9004 30.9492C16.9434 30.9688 16.9863 30.998 17.0293 31.0371C17.0762 31.0762 17.1309 31.127 17.1934 31.1895L17.1875 31.1777L17.3984 31.3594C17.5938 31.5312 17.7305 31.6895 17.8086 31.834V31.8281C17.8984 31.9727 17.9434 32.127 17.9434 32.291C17.9434 32.373 17.9414 32.4375 17.9375 32.4844C17.9336 32.5273 17.9258 32.5645 17.9141 32.5957L17.8262 32.8535V32.8477C17.8027 32.9258 17.7773 32.9883 17.75 33.0352C17.7227 33.082 17.6777 33.127 17.6152 33.1699C17.3613 33.291 17.1445 33.3516 16.9648 33.3516C16.6211 33.3516 16.2949 33.1758 15.9863 32.8242L15.9277 32.7422C15.9277 32.7461 15.9258 32.75 15.9219 32.7539C15.918 32.7578 15.916 32.7617 15.916 32.7656C15.7871 32.957 15.627 33.0879 15.4355 33.1582L15.043 33.3047L14.7793 33.3516L14.5625 33.3223L14.375 33.2285L14.1641 33.0527C14.1211 32.998 14.0781 32.9375 14.0352 32.8711C13.9961 32.8008 13.9531 32.7207 13.9062 32.6309L13.8535 32.2617C13.8535 32.082 13.8828 31.9414 13.9414 31.8398L14.1465 31.5527L14.457 31.2188L14.8262 30.9199C14.8926 30.8652 14.9512 30.8281 15.002 30.8086L14.6973 30.3398L14.4922 30.2285H14.498C14.3535 30.1504 14.2305 30.1113 14.1289 30.1113H13.2324L12.3945 29.2324H14.0117C14.3203 29.2441 14.625 29.3418 14.9258 29.5254L15.2305 29.8477L15.4883 30.2168L15.5996 30.4219C15.6738 30.2891 15.7539 30.166 15.8398 30.0527C15.9258 29.9395 16.0078 29.8477 16.0859 29.7773C16.1875 29.6875 16.3164 29.6016 16.4727 29.5195C16.6289 29.4336 16.8008 29.3574 16.9883 29.291L17.1348 29.25L17.2988 29.2207C17.3965 29.2207 17.5176 29.2754 17.6621 29.3848C17.8105 29.4902 17.9941 29.6855 18.2129 29.9707L18.7461 30.7734L18.998 31.1953C18.9668 30.9492 18.9316 30.7051 18.8926 30.4629C18.8574 30.2207 18.8242 29.9766 18.793 29.7305V27.8848L19.1621 28.207L19.3965 28.4941C19.4668 28.5879 19.502 28.6895 19.502 28.7988L19.5137 28.9922C19.5332 29.0156 19.5527 29.0391 19.5723 29.0625C19.5918 29.082 19.6113 29.1074 19.6309 29.1387L19.9238 29.2324H20.4277L21.3066 30.1113ZM26.1465 30.1113V37.582L25.707 37.002L25.7246 36.7676C25.7246 36.4004 25.6367 35.9414 25.4609 35.3906C25.3828 35.1367 25.291 34.873 25.1855 34.5996C25.0801 34.3262 24.9766 34.0742 24.875 33.8438C24.8398 33.7812 24.7988 33.7168 24.752 33.6504C24.709 33.5801 24.6582 33.5117 24.5996 33.4453L24.166 33.0234C23.9863 32.8867 23.8066 32.7754 23.627 32.6895C23.4473 32.5996 23.2832 32.5488 23.1348 32.5371C23.1348 32.5449 23.1309 32.5527 23.123 32.5605C23.377 32.9043 23.5039 33.2012 23.5039 33.4512C23.5039 33.5254 23.502 33.5859 23.498 33.6328C23.4941 33.6758 23.4863 33.7129 23.4746 33.7441C23.4746 33.7754 23.4668 33.8125 23.4512 33.8555C23.4355 33.8984 23.4121 33.9512 23.3809 34.0137C23.2129 34.3457 22.9062 34.5117 22.4609 34.5117L22.0859 34.4648C21.957 34.4453 21.8359 34.4141 21.7227 34.3711C21.6133 34.3242 21.5137 34.2676 21.4238 34.2012C21.2793 34.0449 21.1621 33.7871 21.0723 33.4277L21.043 33.1113C21.043 32.8652 21.0898 32.6387 21.1836 32.4316C21.2773 32.2207 21.4043 32.041 21.5645 31.8926C21.7285 31.7402 21.918 31.623 22.1328 31.541C22.3516 31.4551 22.584 31.4121 22.8301 31.4121L23.1172 31.4238C23.2031 31.4238 23.3281 31.457 23.4922 31.5234C23.5703 31.5391 23.6602 31.5781 23.7617 31.6406C23.8672 31.6992 23.9688 31.7637 24.0664 31.834C24.2031 31.9355 24.3438 32.0645 24.4883 32.2207C24.6328 32.377 24.7676 32.5508 24.8926 32.7422C24.9746 32.8711 25.0488 32.9883 25.1152 33.0938C25.1816 33.1992 25.2363 33.293 25.2793 33.375V30.1113H20.5625L19.7012 29.2324H26.7852L27.6875 30.1113H26.1465ZM30.6934 32.4551C30.6113 32.5371 30.5352 32.6055 30.4648 32.6602C30.3945 32.7148 30.3242 32.7578 30.2539 32.7891L29.9609 32.8945L29.7031 32.9238C29.2734 32.9238 28.8906 32.7324 28.5547 32.3496C28.3906 32.1504 28.2656 31.9453 28.1797 31.7344C28.0938 31.5234 28.0508 31.2949 28.0508 31.0488C28.0508 30.9746 28.0508 30.9121 28.0508 30.8613C28.0508 30.8066 28.0547 30.7578 28.0625 30.7148C28.0742 30.668 28.0898 30.6211 28.1094 30.5742C28.1289 30.5234 28.1562 30.4629 28.1914 30.3926C28.2266 30.3145 28.2812 30.2383 28.3555 30.1641C28.4297 30.0898 28.5156 30.0098 28.6133 29.9238C28.9375 29.6816 29.2695 29.5605 29.6094 29.5605C30.0234 29.5605 30.3945 29.7285 30.7227 30.0645V30.0586C31.043 30.3828 31.2031 30.7695 31.2031 31.2188C31.2031 31.6641 31.0332 32.0742 30.6934 32.4492V32.4551ZM30.6406 36.5449C30.5859 36.6113 30.5215 36.6699 30.4473 36.7207C30.373 36.7715 30.291 36.8242 30.2012 36.8789C30.123 36.9102 30.041 36.9355 29.9551 36.9551C29.873 36.9785 29.7852 36.998 29.6914 37.0137C29.4805 37.0137 29.2812 36.9648 29.0938 36.8672C28.9062 36.7734 28.7266 36.625 28.5547 36.4219C28.2383 36.0352 28.0801 35.6016 28.0801 35.1211C28.0801 34.8867 28.125 34.6699 28.2148 34.4707C28.3047 34.2715 28.4492 34.0918 28.6484 33.9316C28.7891 33.8262 28.9434 33.7422 29.1113 33.6797C29.2793 33.6133 29.4492 33.5801 29.6211 33.5801C30.0312 33.5801 30.3926 33.748 30.7051 34.084C30.8535 34.2559 30.9668 34.4395 31.0449 34.6348C31.123 34.8262 31.1621 35.0332 31.1621 35.2559C31.1621 35.3379 31.1602 35.4082 31.1562 35.4668C31.1562 35.5254 31.1523 35.5781 31.1445 35.625C31.1367 35.6719 31.125 35.7188 31.1094 35.7656C31.0938 35.8086 31.0723 35.8594 31.0449 35.918V35.9121C30.9629 36.1152 30.8262 36.3262 30.6348 36.5449H30.6406ZM29.8789 31.834C30.2383 31.5762 30.418 31.3457 30.418 31.1426C30.418 31.0723 30.3965 31.0098 30.3535 30.9551C30.3105 30.9004 30.252 30.8555 30.1777 30.8203C30.1074 30.7812 30.0254 30.752 29.9316 30.7324C29.8418 30.709 29.748 30.6973 29.6504 30.6973C29.4355 30.6973 29.2754 30.7441 29.1699 30.8379C28.9434 31.0137 28.8301 31.2891 28.8301 31.6641C28.8301 31.7969 28.8555 31.9023 28.9062 31.9805C28.957 32.0547 29.0488 32.1035 29.1816 32.127C29.3691 32.127 29.6016 32.0293 29.8789 31.834ZM29.9375 35.9414L29.9258 35.9531C30.0742 35.832 30.1855 35.709 30.2598 35.584C30.3379 35.459 30.3906 35.332 30.418 35.2031C30.4141 35.1211 30.3828 35.0469 30.3242 34.9805C30.2695 34.9102 30.1973 34.8516 30.1074 34.8047C30.0215 34.7539 29.9238 34.7168 29.8145 34.6934C29.709 34.666 29.6055 34.6523 29.5039 34.6523C29.4297 34.6523 29.3594 34.6602 29.293 34.6758C29.2266 34.6875 29.166 34.7148 29.1113 34.7578L29.123 34.752C29.0684 34.8145 28.998 34.9297 28.9121 35.0977V35.0859C28.8652 35.2461 28.8418 35.4141 28.8418 35.5898C28.8418 35.6797 28.8496 35.7656 28.8652 35.8477C28.8848 35.9258 28.9121 35.998 28.9473 36.0645C28.9824 36.127 29.0254 36.1777 29.0762 36.2168C29.1309 36.252 29.1934 36.2695 29.2637 36.2695C29.3691 36.2695 29.459 36.25 29.5332 36.2109L29.9375 35.9414ZM37.1973 35.2734V36.6562H35.8086V35.2734H37.1973ZM40.5371 35.2734V36.6562H39.1484V35.2734H40.5371ZM43.877 35.2734V36.6562H42.4883V35.2734H43.877ZM47.2168 35.2734V36.6562H45.8281V35.2734H47.2168ZM50.5566 35.2734V36.6562H49.168V35.2734H50.5566ZM53.8965 35.2734V36.6562H52.5078V35.2734H53.8965ZM57.2363 35.2734V36.6562H55.8477V35.2734H57.2363ZM60.5762 35.2734V36.6562H59.1875V35.2734H60.5762ZM63.916 35.2734V36.6562H62.5273V35.2734H63.916ZM67.2559 35.2734V36.6562H65.8672V35.2734H67.2559ZM70.5957 35.2734V36.6562H69.207V35.2734H70.5957ZM73.9355 35.2734V36.6562H72.5469V35.2734H73.9355ZM77.2754 35.2734V36.6562H75.8867V35.2734H77.2754ZM80.6152 35.2734V36.6562H79.2266V35.2734H80.6152ZM83.9551 35.2734V36.6562H82.5664V35.2734H83.9551ZM87.2949 35.2734V36.6562H85.9062V35.2734H87.2949ZM90.6348 35.2734V36.6562H89.2461V35.2734H90.6348ZM93.9746 35.2734V36.6562H92.5859V35.2734H93.9746ZM97.3145 35.2734V36.6562H95.9258V35.2734H97.3145ZM100.654 35.2734V36.6562H99.2656V35.2734H100.654ZM103.994 35.2734V36.6562H102.605V35.2734H103.994ZM107.334 35.2734V36.6562H105.945V35.2734H107.334ZM110.674 35.2734V36.6562H109.285V35.2734H110.674ZM114.014 35.2734V36.6562H112.625V35.2734H114.014ZM117.354 35.2734V36.6562H115.965V35.2734H117.354ZM120.693 35.2734V36.6562H119.305V35.2734H120.693ZM124.033 35.2734V36.6562H122.645V35.2734H124.033ZM127.373 35.2734V36.6562H125.984V35.2734H127.373ZM130.713 35.2734V36.6562H129.324V35.2734H130.713ZM134.053 35.2734V36.6562H132.664V35.2734H134.053ZM137.393 35.2734V36.6562H136.004V35.2734H137.393ZM140.732 35.2734V36.6562H139.344V35.2734H140.732ZM144.072 35.2734V36.6562H142.684V35.2734H144.072ZM147.412 35.2734V36.6562H146.023V35.2734H147.412ZM150.752 35.2734V36.6562H149.363V35.2734H150.752ZM154.092 35.2734V36.6562H152.703V35.2734H154.092ZM157.432 35.2734V36.6562H156.043V35.2734H157.432ZM160.771 35.2734V36.6562H159.383V35.2734H160.771ZM164.111 35.2734V36.6562H162.723V35.2734H164.111ZM167.451 35.2734V36.6562H166.062V35.2734H167.451ZM170.791 35.2734V36.6562H169.402V35.2734H170.791ZM174.131 35.2734V36.6562H172.742V35.2734H174.131ZM177.471 35.2734V36.6562H176.082V35.2734H177.471ZM5.41016 51.4746H5.41602C5.11914 51.6035 4.87109 51.7305 4.67188 51.8555C4.47266 51.9766 4.30273 52.1055 4.16211 52.2422C4.02148 52.3789 3.90234 52.5273 3.80469 52.6875C3.71094 52.8477 3.61914 53.0273 3.5293 53.2266C3.48633 53.3203 3.44531 53.4199 3.40625 53.5254C3.36719 53.627 3.32812 53.7246 3.28906 53.8184C3.26562 53.9199 3.24219 54.0273 3.21875 54.1406C3.19922 54.25 3.17773 54.3555 3.1543 54.457C3.14648 54.5469 3.13867 54.6367 3.13086 54.7266C3.12305 54.8164 3.11523 54.9062 3.10742 54.9961V55.2129C3.11523 55.2598 3.125 55.3105 3.13672 55.3652C3.15234 55.416 3.16406 55.4629 3.17188 55.5059L3.16602 55.4941C3.24023 55.7441 3.30469 55.9512 3.35938 56.1152C3.41797 56.2793 3.47266 56.4043 3.52344 56.4902C3.59766 56.6348 3.67578 56.7578 3.75781 56.8594C3.83984 56.9609 3.92773 57.0488 4.02148 57.123L4.47852 57.252C4.41992 57.1855 4.36914 57.1133 4.32617 57.0352C4.2832 56.9531 4.25195 56.8633 4.23242 56.7656C4.23242 56.582 4.25586 56.4316 4.30273 56.3145C4.34961 56.1934 4.4375 56.082 4.56641 55.9805L4.81836 55.875L5.05859 55.8398H5.38086C5.44727 55.8398 5.50977 55.8594 5.56836 55.8984C5.62695 55.9375 5.71289 56.0156 5.82617 56.1328C6.01758 56.3594 6.11328 56.5801 6.11328 56.7949C6.11328 56.8926 6.09375 56.9941 6.05469 57.0996C6.01953 57.2051 5.9668 57.3086 5.89648 57.4102C5.82617 57.5117 5.73828 57.6074 5.63281 57.6973C5.52734 57.791 5.40625 57.873 5.26953 57.9434C5.09375 57.998 4.91211 58.0254 4.72461 58.0254C4.51758 58.0254 4.32227 57.9961 4.13867 57.9375C3.95508 57.8828 3.79102 57.793 3.64648 57.668V57.6738C3.1543 57.2637 2.78516 56.7148 2.53906 56.0273C2.46094 55.7656 2.40234 55.5059 2.36328 55.248C2.32812 54.9863 2.31055 54.7168 2.31055 54.4395L2.35156 53.6836C2.36328 53.5391 2.39844 53.373 2.45703 53.1855C2.51562 52.9941 2.5957 52.791 2.69727 52.5762C2.80273 52.3613 2.92969 52.1387 3.07812 51.9082C3.23047 51.6738 3.40625 51.4414 3.60547 51.2109L4.05078 50.8535L4.31445 50.7012C4.59961 50.541 4.85352 50.4219 5.07617 50.3438C5.29883 50.2617 5.49219 50.2246 5.65625 50.2324L6.4707 51.0527L5.41016 51.4746ZM12.5879 51.1113V58.4004L11.7441 57.627V54.0234L11.6855 53.8066V53.8125L11.5215 53.4082L11.4453 53.209C11.4062 53.1504 11.3652 53.0879 11.3223 53.0215C11.2832 52.9551 11.248 52.8926 11.2168 52.834C11.1699 52.7324 11.1191 52.6641 11.0645 52.6289L10.9531 52.5469C10.5586 52.9414 10.1641 53.3379 9.76953 53.7363C9.375 54.1348 8.97852 54.5293 8.58008 54.9199L7.41406 54.4863L8.11719 53.7422C8.17188 53.6914 8.19922 53.584 8.19922 53.4199C8.19922 53.3496 8.19141 53.2773 8.17578 53.2031C8.16016 53.1289 8.13477 53.0625 8.09961 53.0039C8.06836 52.9453 8.0293 52.8965 7.98242 52.8574C7.93555 52.8184 7.88281 52.7988 7.82422 52.7988C7.75781 52.7988 7.70508 52.8145 7.66602 52.8457C7.62695 52.873 7.55078 52.9043 7.4375 52.9395C7.32422 52.9746 7.16992 53.0176 6.97461 53.0684C6.9082 53.0684 6.77148 53.0254 6.56445 52.9395C6.37305 52.8145 6.27734 52.6465 6.27734 52.4355C6.27734 52.3926 6.28711 52.3398 6.30664 52.2773C6.33008 52.2109 6.36328 52.1309 6.40625 52.0371C6.55469 51.7676 6.70898 51.5371 6.86914 51.3457C7.0293 51.1543 7.19531 50.9902 7.36719 50.8535C7.82031 50.5215 8.38477 50.3555 9.06055 50.3555C9.37695 50.3555 9.67969 50.4121 9.96875 50.5254C10.2578 50.6387 10.5293 50.8047 10.7832 51.0234C11.1621 51.3555 11.459 51.752 11.6738 52.2129L11.7734 52.5293V52.5234L11.8379 52.6992L11.7441 51.4688V49.2363L12.1426 49.4941L12.2129 49.6055C12.2129 49.8125 12.2578 49.9727 12.3477 50.0859L12.6465 50.2324H13.127L13.9297 51.1113H12.5879ZM8.69727 52.7109C8.72461 52.7578 8.74609 52.8145 8.76172 52.8809C8.78125 52.9473 8.79883 53.0234 8.81445 53.1094L10.2441 51.6855C10.2207 51.6582 10.1875 51.6289 10.1445 51.5977L10.1504 51.6035L9.91602 51.4453C9.7793 51.332 9.57812 51.2754 9.3125 51.2754C9.05859 51.2754 8.83594 51.3066 8.64453 51.3691C8.45312 51.4277 8.28125 51.5273 8.12891 51.668H8.13477C8.06055 51.7422 7.97461 51.8555 7.87695 52.0078C7.97852 52.0195 8.06445 52.043 8.13477 52.0781C8.21289 52.0938 8.2793 52.125 8.33398 52.1719C8.39258 52.2148 8.44336 52.2637 8.48633 52.3184C8.5293 52.3691 8.56641 52.4277 8.59766 52.4941C8.63281 52.5566 8.66797 52.6309 8.70312 52.7168L8.69727 52.7109ZM21.5645 51.1113H19.9824V58.3594L19.0684 57.5977L19.0508 53.1152C19.0508 52.9473 18.9062 52.6387 18.6172 52.1895C18.4844 51.9863 18.3477 51.8281 18.207 51.7148C18.0664 51.6016 17.9258 51.5449 17.7852 51.5449C17.6133 51.5449 17.4629 51.5938 17.334 51.6914C17.2441 51.7656 17.1855 51.8516 17.1582 51.9492C17.2012 51.9688 17.2441 51.998 17.2871 52.0371C17.334 52.0762 17.3887 52.127 17.4512 52.1895L17.4453 52.1777L17.6562 52.3594C17.8516 52.5312 17.9883 52.6895 18.0664 52.834V52.8281C18.1562 52.9727 18.2012 53.127 18.2012 53.291C18.2012 53.373 18.1992 53.4375 18.1953 53.4844C18.1914 53.5273 18.1836 53.5645 18.1719 53.5957L18.084 53.8535V53.8477C18.0605 53.9258 18.0352 53.9883 18.0078 54.0352C17.9805 54.082 17.9355 54.127 17.873 54.1699C17.6191 54.291 17.4023 54.3516 17.2227 54.3516C16.8789 54.3516 16.5527 54.1758 16.2441 53.8242L16.1855 53.7422C16.1855 53.7461 16.1836 53.75 16.1797 53.7539C16.1758 53.7578 16.1738 53.7617 16.1738 53.7656C16.0449 53.957 15.8848 54.0879 15.6934 54.1582L15.3008 54.3047L15.0371 54.3516L14.8203 54.3223L14.6328 54.2285L14.4219 54.0527C14.3789 53.998 14.3359 53.9375 14.293 53.8711C14.2539 53.8008 14.2109 53.7207 14.1641 53.6309L14.1113 53.2617C14.1113 53.082 14.1406 52.9414 14.1992 52.8398L14.4043 52.5527L14.7148 52.2188L15.084 51.9199C15.1504 51.8652 15.209 51.8281 15.2598 51.8086L14.9551 51.3398L14.75 51.2285H14.7559C14.6113 51.1504 14.4883 51.1113 14.3867 51.1113H13.4902L12.6523 50.2324H14.2695C14.5781 50.2441 14.8828 50.3418 15.1836 50.5254L15.4883 50.8477L15.7461 51.2168L15.8574 51.4219C15.9316 51.2891 16.0117 51.166 16.0977 51.0527C16.1836 50.9395 16.2656 50.8477 16.3438 50.7773C16.4453 50.6875 16.5742 50.6016 16.7305 50.5195C16.8867 50.4336 17.0586 50.3574 17.2461 50.291L17.3926 50.25L17.5566 50.2207C17.6543 50.2207 17.7754 50.2754 17.9199 50.3848C18.0684 50.4902 18.252 50.6855 18.4707 50.9707L19.0039 51.7734L19.2559 52.1953C19.2246 51.9492 19.1895 51.7051 19.1504 51.4629C19.1152 51.2207 19.082 50.9766 19.0508 50.7305V48.8848L19.4199 49.207L19.6543 49.4941C19.7246 49.5879 19.7598 49.6895 19.7598 49.7988L19.7715 49.9922C19.791 50.0156 19.8105 50.0391 19.8301 50.0625C19.8496 50.082 19.8691 50.1074 19.8887 50.1387L20.1816 50.2324H20.6855L21.5645 51.1113ZM24.5059 51.1113H22.8242V58.5645L21.9863 57.6855V52.3945C21.9863 52.2695 21.9746 52.1719 21.9512 52.1016C21.9238 51.9375 21.875 51.8047 21.8047 51.7031C21.75 51.6289 21.6875 51.5586 21.6172 51.4922C21.5469 51.4219 21.4629 51.3535 21.3652 51.2871C21.1738 51.1621 20.9785 51.0996 20.7793 51.0996L20.5684 51.1113L19.6719 50.2324H20.1582L20.4336 50.2148H20.6504C20.9668 50.2344 21.1895 50.2773 21.3184 50.3438C21.3887 50.3789 21.4492 50.4141 21.5 50.4492C21.5547 50.4805 21.6016 50.5156 21.6406 50.5547L21.6289 50.5488C21.7891 50.6738 21.9473 50.9043 22.1035 51.2402L22.1445 51.3281L22.0391 50.5488L21.9863 49.6992V49.3828C21.9863 49.332 21.9785 49.2598 21.9629 49.166C21.9512 49.0723 21.9336 48.9668 21.9102 48.8496L22.4023 49.2422L22.4668 49.6348L22.5078 49.8398L22.5723 49.9863L22.7246 50.1797L22.7773 50.2324H23.6328L24.5059 51.1113ZM27.5762 53.4551C27.4941 53.5371 27.418 53.6055 27.3477 53.6602C27.2773 53.7148 27.207 53.7578 27.1367 53.7891L26.8438 53.8945L26.5859 53.9238C26.1562 53.9238 25.7734 53.7324 25.4375 53.3496C25.2734 53.1504 25.1484 52.9453 25.0625 52.7344C24.9766 52.5234 24.9336 52.2949 24.9336 52.0488C24.9336 51.9746 24.9336 51.9121 24.9336 51.8613C24.9336 51.8066 24.9375 51.7578 24.9453 51.7148C24.957 51.668 24.9727 51.6211 24.9922 51.5742C25.0117 51.5234 25.0391 51.4629 25.0742 51.3926C25.1094 51.3145 25.1641 51.2383 25.2383 51.1641C25.3125 51.0898 25.3984 51.0098 25.4961 50.9238C25.8203 50.6816 26.1523 50.5605 26.4922 50.5605C26.9062 50.5605 27.2773 50.7285 27.6055 51.0645V51.0586C27.9258 51.3828 28.0859 51.7695 28.0859 52.2188C28.0859 52.6641 27.916 53.0742 27.5762 53.4492V53.4551ZM27.5234 57.5449C27.4688 57.6113 27.4043 57.6699 27.3301 57.7207C27.2559 57.7715 27.1738 57.8242 27.084 57.8789C27.0059 57.9102 26.9238 57.9355 26.8379 57.9551C26.7559 57.9785 26.668 57.998 26.5742 58.0137C26.3633 58.0137 26.1641 57.9648 25.9766 57.8672C25.7891 57.7734 25.6094 57.625 25.4375 57.4219C25.1211 57.0352 24.9629 56.6016 24.9629 56.1211C24.9629 55.8867 25.0078 55.6699 25.0977 55.4707C25.1875 55.2715 25.332 55.0918 25.5312 54.9316C25.6719 54.8262 25.8262 54.7422 25.9941 54.6797C26.1621 54.6133 26.332 54.5801 26.5039 54.5801C26.9141 54.5801 27.2754 54.748 27.5879 55.084C27.7363 55.2559 27.8496 55.4395 27.9277 55.6348C28.0059 55.8262 28.0449 56.0332 28.0449 56.2559C28.0449 56.3379 28.043 56.4082 28.0391 56.4668C28.0391 56.5254 28.0352 56.5781 28.0273 56.625C28.0195 56.6719 28.0078 56.7188 27.9922 56.7656C27.9766 56.8086 27.9551 56.8594 27.9277 56.918V56.9121C27.8457 57.1152 27.709 57.3262 27.5176 57.5449H27.5234ZM26.7617 52.834C27.1211 52.5762 27.3008 52.3457 27.3008 52.1426C27.3008 52.0723 27.2793 52.0098 27.2363 51.9551C27.1934 51.9004 27.1348 51.8555 27.0605 51.8203C26.9902 51.7812 26.9082 51.752 26.8145 51.7324C26.7246 51.709 26.6309 51.6973 26.5332 51.6973C26.3184 51.6973 26.1582 51.7441 26.0527 51.8379C25.8262 52.0137 25.7129 52.2891 25.7129 52.6641C25.7129 52.7969 25.7383 52.9023 25.7891 52.9805C25.8398 53.0547 25.9316 53.1035 26.0645 53.127C26.252 53.127 26.4844 53.0293 26.7617 52.834ZM26.8203 56.9414L26.8086 56.9531C26.957 56.832 27.0684 56.709 27.1426 56.584C27.2207 56.459 27.2734 56.332 27.3008 56.2031C27.2969 56.1211 27.2656 56.0469 27.207 55.9805C27.1523 55.9102 27.0801 55.8516 26.9902 55.8047C26.9043 55.7539 26.8066 55.7168 26.6973 55.6934C26.5918 55.666 26.4883 55.6523 26.3867 55.6523C26.3125 55.6523 26.2422 55.6602 26.1758 55.6758C26.1094 55.6875 26.0488 55.7148 25.9941 55.7578L26.0059 55.752C25.9512 55.8145 25.8809 55.9297 25.7949 56.0977V56.0859C25.748 56.2461 25.7246 56.4141 25.7246 56.5898C25.7246 56.6797 25.7324 56.7656 25.748 56.8477C25.7676 56.9258 25.7949 56.998 25.8301 57.0645C25.8652 57.127 25.9082 57.1777 25.959 57.2168C26.0137 57.252 26.0762 57.2695 26.1465 57.2695C26.252 57.2695 26.3418 57.25 26.416 57.2109L26.8203 56.9414ZM34.0801 56.2734V57.6562H32.6914V56.2734H34.0801ZM37.4199 56.2734V57.6562H36.0312V56.2734H37.4199ZM40.7598 56.2734V57.6562H39.3711V56.2734H40.7598ZM44.0996 56.2734V57.6562H42.7109V56.2734H44.0996ZM47.4395 56.2734V57.6562H46.0508V56.2734H47.4395ZM50.7793 56.2734V57.6562H49.3906V56.2734H50.7793ZM54.1191 56.2734V57.6562H52.7305V56.2734H54.1191ZM57.459 56.2734V57.6562H56.0703V56.2734H57.459ZM60.7988 56.2734V57.6562H59.4102V56.2734H60.7988ZM64.1387 56.2734V57.6562H62.75V56.2734H64.1387ZM67.4785 56.2734V57.6562H66.0898V56.2734H67.4785ZM70.8184 56.2734V57.6562H69.4297V56.2734H70.8184ZM74.1582 56.2734V57.6562H72.7695V56.2734H74.1582ZM77.498 56.2734V57.6562H76.1094V56.2734H77.498ZM80.8379 56.2734V57.6562H79.4492V56.2734H80.8379ZM84.1777 56.2734V57.6562H82.7891V56.2734H84.1777ZM87.5176 56.2734V57.6562H86.1289V56.2734H87.5176ZM90.8574 56.2734V57.6562H89.4688V56.2734H90.8574ZM94.1973 56.2734V57.6562H92.8086V56.2734H94.1973ZM97.5371 56.2734V57.6562H96.1484V56.2734H97.5371ZM100.877 56.2734V57.6562H99.4883V56.2734H100.877ZM104.217 56.2734V57.6562H102.828V56.2734H104.217ZM107.557 56.2734V57.6562H106.168V56.2734H107.557ZM110.896 56.2734V57.6562H109.508V56.2734H110.896ZM114.236 56.2734V57.6562H112.848V56.2734H114.236ZM117.576 56.2734V57.6562H116.188V56.2734H117.576ZM120.916 56.2734V57.6562H119.527V56.2734H120.916ZM124.256 56.2734V57.6562H122.867V56.2734H124.256ZM127.596 56.2734V57.6562H126.207V56.2734H127.596ZM130.936 56.2734V57.6562H129.547V56.2734H130.936ZM134.275 56.2734V57.6562H132.887V56.2734H134.275ZM137.615 56.2734V57.6562H136.227V56.2734H137.615ZM140.955 56.2734V57.6562H139.566V56.2734H140.955ZM144.295 56.2734V57.6562H142.906V56.2734H144.295ZM147.635 56.2734V57.6562H146.246V56.2734H147.635ZM150.975 56.2734V57.6562H149.586V56.2734H150.975ZM154.314 56.2734V57.6562H152.926V56.2734H154.314ZM157.654 56.2734V57.6562H156.266V56.2734H157.654ZM160.994 56.2734V57.6562H159.605V56.2734H160.994ZM164.334 56.2734V57.6562H162.945V56.2734H164.334ZM167.674 56.2734V57.6562H166.285V56.2734H167.674ZM171.014 56.2734V57.6562H169.625V56.2734H171.014ZM174.354 56.2734V57.6562H172.965V56.2734H174.354ZM177.693 56.2734V57.6562H176.305V56.2734H177.693ZM7.53125 72.1113V79.3418L7.11523 78.9375L6.4707 77.748C6.42383 77.6465 6.35352 77.5371 6.25977 77.4199C6.16602 77.3027 6.05664 77.1816 5.93164 77.0566C5.82227 76.9551 5.71094 76.8594 5.59766 76.7695C5.48438 76.6758 5.36719 76.5898 5.24609 76.5117H5.25195L4.60742 76.1777L4.61328 76.1836C4.43359 76.1055 4.24805 76.0449 4.05664 76.002C3.86914 75.959 3.66992 75.9375 3.45898 75.9375L2.46875 74.5781L3.36523 73.9746L3.81641 73.7051L4.26758 73.4648L5.46289 72.8848L6.66992 72.4277V72.1113H2.00586L1.14453 71.2324H8.0293L8.92578 72.1113H7.53125ZM5.42188 78.2285C5.26953 78.502 5.05859 78.6387 4.78906 78.6387C4.69141 78.6387 4.5918 78.6191 4.49023 78.5801C4.39258 78.5371 4.30273 78.4805 4.2207 78.4102C4.13867 78.3359 4.07227 78.248 4.02148 78.1465C3.9707 78.041 3.94531 77.9238 3.94531 77.7949C3.94531 77.7168 3.95508 77.6465 3.97461 77.584C3.99805 77.5176 4.03125 77.4512 4.07422 77.3848C4.22656 77.1465 4.4375 77.0273 4.70703 77.0273C4.80469 77.0273 4.90234 77.0488 5 77.0918C5.09766 77.1309 5.18555 77.1855 5.26367 77.2559C5.3457 77.3262 5.41016 77.4102 5.45703 77.5078C5.50781 77.6055 5.5332 77.709 5.5332 77.8184C5.5332 77.8809 5.5293 77.9277 5.52148 77.959C5.51758 77.9902 5.50977 78.0215 5.49805 78.0527L5.42188 78.2285ZM6.36523 76.6406C6.45508 76.75 6.52734 76.8457 6.58203 76.9277L6.66992 77.0859V73.6348C6.60352 73.6543 6.53711 73.6758 6.4707 73.6992C6.4082 73.7188 6.34375 73.7363 6.27734 73.752H6.2832L5.97266 73.8867C5.84766 73.9492 5.72266 74.0117 5.59766 74.0742C5.47266 74.1328 5.34961 74.1934 5.22852 74.2559H5.23438L4.61914 74.6309L4.625 74.625L4.20312 74.9355L4.44336 75.0352C4.50977 75.0664 4.56641 75.0938 4.61328 75.1172C4.66016 75.1367 4.70117 75.1562 4.73633 75.1758C4.77539 75.1953 4.81055 75.2188 4.8418 75.2461C4.87695 75.2695 4.91797 75.2988 4.96484 75.334L5.3457 75.6152L5.77344 75.9961L6.36523 76.6406ZM12.0078 72.4277C11.7891 72.5293 11.5977 72.623 11.4336 72.709C11.2734 72.791 11.1484 72.8633 11.0586 72.9258C10.8398 73.0977 10.6484 73.2969 10.4844 73.5234C10.3203 73.7461 10.1875 74.002 10.0859 74.291L10.0918 74.2793L9.9043 75.1113C9.88867 75.2246 9.87109 75.3359 9.85156 75.4453C9.83594 75.5508 9.82031 75.6602 9.80469 75.7734V75.7676L9.78711 76.2656L9.82227 76.793C9.83398 76.8711 9.85156 76.959 9.875 77.0566C9.90234 77.1504 9.93555 77.2461 9.97461 77.3438C10.0137 77.4414 10.0586 77.5352 10.1094 77.625C10.1641 77.7109 10.2227 77.7852 10.2852 77.8477H10.2793C10.3535 77.9102 10.4414 77.9805 10.543 78.0586C10.6445 78.1328 10.7578 78.2129 10.8828 78.2988L10.8711 78.2871C10.9414 78.3184 11.0234 78.334 11.1172 78.334H11.123L11.082 78.2988C10.9531 78.1582 10.8652 77.9824 10.8184 77.7715V77.5312C10.8379 77.3828 10.8906 77.2559 10.9766 77.1504C11.0625 77.041 11.1758 76.9492 11.3164 76.875L11.6738 76.7695C11.7285 76.7695 11.7812 76.7773 11.832 76.793C11.8828 76.8047 11.9277 76.8203 11.9668 76.8398C12.002 76.8555 12.0352 76.8691 12.0664 76.8809C12.1016 76.8887 12.1348 76.9004 12.166 76.916C12.2285 76.9434 12.2891 76.9863 12.3477 77.0449C12.4062 77.0996 12.459 77.166 12.5059 77.2441C12.5527 77.3184 12.5898 77.4004 12.6172 77.4902C12.6484 77.5801 12.6641 77.6719 12.6641 77.7656C12.6641 77.8672 12.6504 77.9707 12.623 78.0762C12.5996 78.1777 12.5566 78.2773 12.4941 78.375C12.4355 78.4727 12.3555 78.5664 12.2539 78.6562C12.1523 78.7422 12.0254 78.8223 11.873 78.8965C11.7676 78.9316 11.668 78.957 11.5742 78.9727C11.4844 78.9883 11.4023 78.9961 11.3281 78.9961C11.125 78.9961 10.9219 78.9688 10.7188 78.9141C10.5195 78.8594 10.3496 78.7695 10.209 78.6445V78.6504C9.9707 78.4512 9.76172 78.2168 9.58203 77.9473C9.40234 77.6777 9.25586 77.3711 9.14258 77.0273C9.05664 76.7617 8.99414 76.502 8.95508 76.248C8.91602 75.9941 8.89648 75.7344 8.89648 75.4688V75.0938L8.9375 74.5664V74.5723C8.9375 74.3809 9.05078 74.0332 9.27734 73.5293C9.49219 73.0723 9.80273 72.5996 10.209 72.1113H8.25781L7.37891 71.2324H12.1309L12.9336 72.0469L12.0078 72.4277ZM22.1562 75.1465C22.1562 75.2402 22.1523 75.3203 22.1445 75.3867C22.1367 75.4492 22.1211 75.5137 22.0977 75.5801C22.0742 75.6426 22.041 75.709 21.998 75.7793C21.9551 75.8496 21.8984 75.9375 21.8281 76.043C21.8086 76.0859 21.7832 76.127 21.752 76.166C21.7207 76.2051 21.6855 76.2363 21.6465 76.2598C21.6191 76.2832 21.5898 76.3086 21.5586 76.3359C21.5273 76.3594 21.5 76.3828 21.4766 76.4062L21.207 76.5703L20.9375 76.6699L20.7207 76.6992H20.457L20.2578 76.6641C20.2227 76.6562 20.1895 76.6445 20.1582 76.6289C20.1309 76.6094 20.0957 76.5859 20.0527 76.5586H20.0586L19.9355 76.4883L19.7246 76.2715H19.7305C19.6797 76.2285 19.6426 76.1738 19.6191 76.1074C19.5957 76.041 19.5762 75.9648 19.5605 75.8789C19.5605 75.793 19.5625 75.7188 19.5664 75.6562C19.5742 75.5898 19.5859 75.5312 19.6016 75.4805C19.6172 75.4258 19.6348 75.375 19.6543 75.3281C19.6777 75.2812 19.707 75.2344 19.7422 75.1875L19.9297 75.0117H19.9238C19.9473 74.9922 19.9902 74.9727 20.0527 74.9531C20.1191 74.9297 20.2051 74.9102 20.3105 74.8945C20.584 74.8945 20.7754 74.9492 20.8848 75.0586L21.0137 75.1992C21.0762 75.3008 21.1074 75.416 21.1074 75.5449C21.1074 75.5879 21.1035 75.6309 21.0957 75.6738C21.0918 75.7168 21.084 75.7559 21.0723 75.791L21.1074 75.7676L21.0957 75.7734L21.2773 75.5859C21.2891 75.5586 21.2988 75.5234 21.3066 75.4805C21.3145 75.4375 21.3223 75.3887 21.3301 75.334V75.1465L21.248 74.877L21.2539 74.9004L21.1953 74.8008L21.0664 74.6543L20.8848 74.543C20.8535 74.5312 20.8242 74.5176 20.7969 74.502C20.7695 74.4863 20.7402 74.4746 20.709 74.4668L20.498 74.4375C20.4551 74.4375 20.4141 74.4355 20.375 74.4316C20.3398 74.4277 20.3027 74.4258 20.2637 74.4258C20.2012 74.4258 20.1426 74.4297 20.0879 74.4375C20.0371 74.4414 19.9902 74.4551 19.9473 74.4785C19.9121 74.4863 19.8691 74.5 19.8184 74.5195C19.7715 74.5352 19.7188 74.5586 19.6602 74.5898L19.3027 74.8008L19.2969 74.8066L19.2676 74.8301L19.291 74.8184L19.2969 74.8125C19.2969 74.832 19.2891 74.8574 19.2734 74.8887C19.2305 75.0254 19.1836 75.1523 19.1328 75.2695C19.0859 75.3867 19.0293 75.4922 18.9629 75.5859C19.0332 75.6562 19.0977 75.7344 19.1562 75.8203C19.2188 75.9062 19.2773 75.9941 19.332 76.084L19.4375 76.4766L19.4844 76.9395C19.4844 77.2988 19.4336 77.6113 19.332 77.877C19.2305 78.1387 19.043 78.3477 18.7695 78.5039L17.9961 78.8379C17.8555 78.873 17.7246 78.9004 17.6035 78.9199C17.4824 78.9395 17.3691 78.9492 17.2637 78.9492C16.9395 78.9492 16.6035 78.877 16.2559 78.7324L16.1504 78.6621C16.0684 78.6152 15.9844 78.5684 15.8984 78.5215C15.8164 78.4746 15.7598 78.4355 15.7285 78.4043L14.9551 77.625L14.3926 76.8691L13.9121 75.9316L13.5957 75.1992L13.3379 74.4902L12.7988 72.7793L13.4844 73.1602L13.8359 74.127C13.8711 74.209 13.9102 74.3027 13.9531 74.4082C14 74.5098 14.0508 74.6172 14.1055 74.7305C14.1641 74.8398 14.2227 74.9512 14.2812 75.0645C14.3438 75.1738 14.4062 75.2793 14.4688 75.3809L14.791 75.9199C14.8574 76.0332 14.9316 76.1445 15.0137 76.2539C15.0996 76.3594 15.1934 76.4609 15.2949 76.5586L15.7578 77.0273C15.8828 77.1328 16.0234 77.2324 16.1797 77.3262C16.3398 77.4199 16.5137 77.5117 16.7012 77.6016C16.8848 77.6797 17.0918 77.7188 17.3223 77.7188C17.498 77.7188 17.6621 77.6992 17.8145 77.6602C17.9707 77.6172 18.1094 77.5566 18.2305 77.4785C18.3555 77.3965 18.4609 77.2969 18.5469 77.1797C18.6328 77.0586 18.6973 76.9199 18.7402 76.7637L18.7344 76.7812C18.7383 76.7383 18.7422 76.6973 18.7461 76.6582C18.7539 76.6152 18.7598 76.5723 18.7637 76.5293C18.7598 76.3652 18.6934 76.2227 18.5645 76.1016L18.5703 76.1074L18.4531 76.0195C18.4102 76.0508 18.3652 76.084 18.3184 76.1191C18.2715 76.1504 18.2266 76.1777 18.1836 76.2012L17.8438 76.2539C17.7344 76.2539 17.6387 76.2441 17.5566 76.2246C17.4746 76.2051 17.4004 76.1777 17.334 76.1426C17.2676 76.1035 17.207 76.0547 17.1523 75.9961C17.0977 75.9375 17.0449 75.8691 16.9941 75.791C16.9316 75.6777 16.9004 75.5293 16.9004 75.3457C16.9004 75.252 16.9062 75.168 16.918 75.0938C16.9336 75.0195 16.957 74.9512 16.9883 74.8887C17.0234 74.8262 17.0684 74.7656 17.123 74.707C17.1816 74.6484 17.2539 74.584 17.3398 74.5137C17.4023 74.4707 17.4668 74.4414 17.5332 74.4258C17.6035 74.4102 17.6797 74.3926 17.7617 74.373L18.1016 74.4141L18.3242 74.5195C18.3867 74.4922 18.4395 74.457 18.4824 74.4141C18.5254 74.3672 18.5664 74.3145 18.6055 74.2559C18.6367 74.1855 18.666 74.1133 18.6934 74.0391C18.7207 73.9609 18.7344 73.8828 18.7344 73.8047C18.7344 73.7188 18.7188 73.6348 18.6875 73.5527C18.6562 73.4668 18.6094 73.3906 18.5469 73.3242C18.4883 73.2578 18.4102 73.2051 18.3125 73.166C18.2188 73.123 18.1074 73.1016 17.9785 73.1016C17.7598 73.1016 17.5312 73.1426 17.293 73.2246L17.2344 73.248H17.2402C17.0371 73.3223 16.9277 73.3672 16.9121 73.3828L16.3555 73.7578H16.3613C16.3184 73.793 16.2773 73.8301 16.2383 73.8691C16.2031 73.9043 16.168 73.9473 16.1328 73.998C16.1992 74.0566 16.2578 74.1211 16.3086 74.1914C16.3594 74.2578 16.3965 74.3398 16.4199 74.4375H16.4141L16.4961 74.7246C16.5234 74.9902 16.4648 75.1953 16.3203 75.3398L16.0977 75.4629C16.0312 75.498 15.9082 75.5234 15.7285 75.5391C15.498 75.5391 15.2734 75.4648 15.0547 75.3164C14.8086 75.1289 14.6855 74.8301 14.6855 74.4199C14.6855 74.3105 14.6973 74.2051 14.7207 74.1035C14.748 73.998 14.7891 73.8965 14.8438 73.7988C15.1328 73.3184 15.5312 72.9355 16.0391 72.6504C16.168 72.5879 16.2949 72.5332 16.4199 72.4863C16.5449 72.4355 16.6758 72.3906 16.8125 72.3516C16.9492 72.3203 17.0801 72.2969 17.2051 72.2812C17.334 72.2617 17.4727 72.252 17.6211 72.252C18.4141 72.252 18.998 72.6758 19.373 73.5234C19.4043 73.6289 19.4219 73.75 19.4258 73.8867L19.4609 73.8633L19.6074 73.7812C19.7285 73.7383 19.8359 73.7012 19.9297 73.6699C20.0234 73.6387 20.1094 73.6172 20.1875 73.6055L20.5508 73.5586L20.8496 73.6055C21.002 73.6172 21.1465 73.6621 21.2832 73.7402L21.4766 73.8457L21.6875 74.0273C21.7188 74.0664 21.748 74.1035 21.7754 74.1387C21.8027 74.1699 21.8262 74.1992 21.8457 74.2266L21.8398 74.2207L21.9688 74.4082L22.127 74.8535L22.1562 75.1465ZM12.6406 72.1113L11.7793 71.2324H22.3906L23.1055 72.1113H12.6406ZM28.2148 72.1113V79.3418L27.7988 78.9375L27.1543 77.748C27.1074 77.6465 27.0371 77.5371 26.9434 77.4199C26.8496 77.3027 26.7402 77.1816 26.6152 77.0566C26.5059 76.9551 26.3945 76.8594 26.2812 76.7695C26.168 76.6758 26.0508 76.5898 25.9297 76.5117H25.9355L25.291 76.1777L25.2969 76.1836C25.1172 76.1055 24.9316 76.0449 24.7402 76.002C24.5527 75.959 24.3535 75.9375 24.1426 75.9375L23.1523 74.5781L24.0488 73.9746L24.5 73.7051L24.9512 73.4648L26.1465 72.8848L27.3535 72.4277V72.1113H22.6895L21.8281 71.2324H28.7129L29.6094 72.1113H28.2148ZM26.1055 78.2285C25.9531 78.502 25.7422 78.6387 25.4727 78.6387C25.375 78.6387 25.2754 78.6191 25.1738 78.5801C25.0762 78.5371 24.9863 78.4805 24.9043 78.4102C24.8223 78.3359 24.7559 78.248 24.7051 78.1465C24.6543 78.041 24.6289 77.9238 24.6289 77.7949C24.6289 77.7168 24.6387 77.6465 24.6582 77.584C24.6816 77.5176 24.7148 77.4512 24.7578 77.3848C24.9102 77.1465 25.1211 77.0273 25.3906 77.0273C25.4883 77.0273 25.5859 77.0488 25.6836 77.0918C25.7812 77.1309 25.8691 77.1855 25.9473 77.2559C26.0293 77.3262 26.0938 77.4102 26.1406 77.5078C26.1914 77.6055 26.2168 77.709 26.2168 77.8184C26.2168 77.8809 26.2129 77.9277 26.2051 77.959C26.2012 77.9902 26.1934 78.0215 26.1816 78.0527L26.1055 78.2285ZM27.0488 76.6406C27.1387 76.75 27.2109 76.8457 27.2656 76.9277L27.3535 77.0859V73.6348C27.2871 73.6543 27.2207 73.6758 27.1543 73.6992C27.0918 73.7188 27.0273 73.7363 26.9609 73.752H26.9668L26.6562 73.8867C26.5312 73.9492 26.4062 74.0117 26.2812 74.0742C26.1562 74.1328 26.0332 74.1934 25.9121 74.2559H25.918L25.3027 74.6309L25.3086 74.625L24.8867 74.9355L25.127 75.0352C25.1934 75.0664 25.25 75.0938 25.2969 75.1172C25.3438 75.1367 25.3848 75.1562 25.4199 75.1758C25.459 75.1953 25.4941 75.2188 25.5254 75.2461C25.5605 75.2695 25.6016 75.2988 25.6484 75.334L26.0293 75.6152L26.457 75.9961L27.0488 76.6406ZM38.8438 79.3477L38.75 79.2422C38.7188 79.2148 38.6836 79.1816 38.6445 79.1426C38.6055 79.1035 38.5645 79.0625 38.5215 79.0195C38.4824 78.9805 38.4434 78.9414 38.4043 78.9023C38.3652 78.8633 38.332 78.8301 38.3047 78.8027V78.4512C38.2969 78.4434 38.2871 78.4336 38.2754 78.4219C38.2676 78.4062 38.2617 78.3945 38.2578 78.3867L38.2637 78.3926L38.123 78.2227L37.9414 78.0762C37.9062 78.0371 37.873 78.0039 37.8418 77.9766C37.8145 77.9492 37.7871 77.9316 37.7598 77.9238C37.6934 77.9043 37.6328 77.8848 37.5781 77.8652C37.5273 77.8418 37.4688 77.8203 37.4023 77.8008L37.168 77.7715C37.0742 77.7715 36.9922 77.7812 36.9219 77.8008C36.8555 77.8008 36.7969 77.8027 36.7461 77.8066C36.6992 77.8105 36.6543 77.8223 36.6113 77.8418L36.1016 77.9883L35.7031 78.0527H35.3633L34.9648 78.0762C34.7188 78.0762 34.4902 78.0508 34.2793 78C34.0684 77.9492 33.8789 77.8789 33.7109 77.7891C33.5195 77.6875 33.3535 77.582 33.2129 77.4727C33.0723 77.3633 32.9668 77.252 32.8965 77.1387L32.7383 76.8691L32.627 76.6172L32.5684 76.2129L32.5977 75.7617L32.6562 74.9004L33.3184 75.4863L33.1953 75.6211L33.1777 75.709C33.1777 75.7676 33.1777 75.8242 33.1777 75.8789C33.1816 75.9297 33.1875 75.9648 33.1953 75.9844L33.3301 76.3477C33.3379 76.3594 33.3594 76.3809 33.3945 76.4121L33.541 76.5293L33.7168 76.6523L33.9453 76.7578H33.9336L34.1738 76.8281L34.168 76.8223L34.5547 76.8867H34.8008L35.3926 76.8516H35.3867C35.4766 76.8359 35.5645 76.8203 35.6504 76.8047C35.7363 76.7852 35.8242 76.7676 35.9141 76.752L36.6641 76.6816H36.8164L36.9746 76.7109L37.4551 76.793L37.7012 76.9102H37.6953C37.7852 76.9453 37.8574 76.9863 37.9121 77.0332L38.2051 77.2676L38.3047 77.3789V74.6074L38.1699 74.1504C38.1621 74.127 38.1543 74.0996 38.1465 74.0684C38.1387 74.0371 38.1289 74.0039 38.1172 73.9688L38.0117 73.7461C37.9844 73.668 37.9297 73.5781 37.8477 73.4766C37.7656 73.3711 37.6602 73.252 37.5312 73.1191H37.5371L36.9805 72.6504L36.7871 72.5508L36.4824 72.416H36.4883C36.2852 72.334 36.1074 72.3047 35.9551 72.3281C35.7988 72.3594 35.6504 72.3926 35.5098 72.4277C35.373 72.4629 35.2715 72.502 35.2051 72.5449C35.1035 72.5996 35.0098 72.6797 34.9238 72.7852C34.8379 72.8906 34.7559 73.0176 34.6777 73.166L34.8242 73.1309L35.2871 73.0781L35.6797 73.1133H35.6738C35.7715 73.1133 35.9062 73.1602 36.0781 73.2539C36.5195 73.5 36.7402 73.8281 36.7402 74.2383C36.7402 74.3398 36.7344 74.4316 36.7227 74.5137C36.7148 74.5957 36.6973 74.6738 36.6699 74.748C36.6543 74.8184 36.6133 74.9199 36.5469 75.0527C36.4805 75.1855 36.3848 75.3418 36.2598 75.5215L36.2656 75.5156C36.1953 75.625 36.123 75.7344 36.0488 75.8438C35.9785 75.9492 35.9102 76.0566 35.8438 76.166V76.1602L35.498 76.7578L34.4375 75.6738L34.8184 75.3457L34.8125 75.3574L35.2988 74.8184L35.7324 74.3613C35.8027 74.2793 35.8555 74.207 35.8906 74.1445C35.9297 74.082 35.9492 74.0234 35.9492 73.9688C35.9492 73.9375 35.9375 73.9121 35.9141 73.8926C35.8516 73.7949 35.7617 73.7461 35.6445 73.7461C35.5859 73.7461 35.5039 73.7715 35.3984 73.8223C35.293 73.8691 35.168 73.9375 35.0234 74.0273C34.8633 74.1289 34.7207 74.207 34.5957 74.2617C34.4746 74.3125 34.3711 74.3379 34.2852 74.3379C34.1875 74.3379 34.0879 74.3105 33.9863 74.2559C33.7793 74.1309 33.6289 73.9863 33.5352 73.8223C33.4453 73.6582 33.4004 73.4707 33.4004 73.2598C33.4004 72.9395 33.5254 72.5957 33.7754 72.2285C33.9512 71.9629 34.1543 71.7559 34.3848 71.6074C34.5566 71.5098 34.7383 71.4355 34.9297 71.3848C35.1211 71.3301 35.3281 71.3027 35.5508 71.3027C35.7227 71.3027 35.8965 71.3184 36.0723 71.3496C36.252 71.377 36.4219 71.418 36.582 71.4727C36.7461 71.5234 36.8965 71.584 37.0332 71.6543C37.1699 71.7246 37.2812 71.8027 37.3672 71.8887H37.3613L37.8301 72.3457C38.0527 72.5801 38.209 72.791 38.2988 72.9785L38.4219 73.2598C38.4062 73.1387 38.3906 73.0156 38.375 72.8906C38.3633 72.7656 38.3516 72.6445 38.3398 72.5273C38.332 72.4102 38.3242 72.3008 38.3164 72.1992C38.3086 72.0938 38.3047 72.0059 38.3047 71.9355L38.2871 69.8027L38.8906 70.3652L38.8555 70.5879C38.8555 70.666 38.8652 70.75 38.8848 70.8398C38.9082 70.9297 38.9375 71.0156 38.9727 71.0977C38.9883 71.1445 39.0293 71.1816 39.0957 71.209C39.1309 71.2129 39.1641 71.2168 39.1953 71.2207C39.2266 71.2246 39.2578 71.2285 39.2891 71.2324H42.3301L43.209 72.1113H39.1074V74.0566C39.1309 74.0879 39.1562 74.1172 39.1836 74.1445C39.2109 74.168 39.2344 74.1953 39.2539 74.2266C39.4531 74.4883 39.6738 74.6934 39.916 74.8418C40.0996 74.9707 40.3027 75.0566 40.5254 75.0996C40.6152 75.0996 40.6973 75.0918 40.7715 75.0762C40.8457 75.0566 40.9121 75.0254 40.9707 74.9824C41.0332 74.9395 41.0879 74.8809 41.1348 74.8066C41.1816 74.7285 41.2227 74.6328 41.2578 74.5195C41.2656 74.4766 41.2734 74.4375 41.2812 74.4023C41.2891 74.3633 41.2969 74.3223 41.3047 74.2793C41.3008 74.1738 41.2734 74.0684 41.2227 73.9629C41.1758 73.8574 41.1172 73.7695 41.0469 73.6992L41.0645 73.8574C41.0645 73.9355 41.0547 74.0078 41.0352 74.0742C41.0195 74.1406 40.9824 74.2031 40.9238 74.2617C40.8691 74.3203 40.7891 74.375 40.6836 74.4258C40.582 74.4766 40.4453 74.5254 40.2734 74.5723C40.1914 74.584 40.1074 74.5723 40.0215 74.5371C39.9355 74.502 39.8574 74.4492 39.7871 74.3789C39.7168 74.3086 39.6582 74.2227 39.6113 74.1211C39.5645 74.0156 39.541 73.9004 39.541 73.7754C39.541 73.7012 39.5508 73.627 39.5703 73.5527C39.5898 73.4785 39.623 73.4043 39.6699 73.3301C39.7207 73.2559 39.7871 73.1836 39.8691 73.1133C39.9512 73.043 40.0566 72.9746 40.1855 72.9082C40.2324 72.8926 40.2793 72.8809 40.3262 72.873C40.373 72.8613 40.4258 72.8496 40.4844 72.8379L40.6719 72.7969C40.8164 72.7969 40.9531 72.8203 41.082 72.8672C41.2109 72.9102 41.3262 72.9707 41.4277 73.0488L41.7383 73.2949C41.8906 73.4238 42.002 73.5898 42.0723 73.793C42.1152 73.9219 42.1445 74.0449 42.1602 74.1621C42.1797 74.2793 42.1895 74.3984 42.1895 74.5195C42.1895 74.7617 42.1504 74.9824 42.0723 75.1816C41.998 75.377 41.8516 75.5527 41.6328 75.709L41.2402 75.9199L40.8828 75.9785C40.793 75.9785 40.7031 75.9707 40.6133 75.9551C40.5234 75.9395 40.4336 75.916 40.3438 75.8848L39.8926 75.5918L39.5234 75.2988C39.457 75.2441 39.3965 75.1953 39.3418 75.1523C39.291 75.1055 39.2461 75.0605 39.207 75.0176L39.1074 74.9121L39.0898 79.5938L38.8438 79.3477ZM49.3262 72.1113V79.4004L48.4824 78.627V75.0234L48.4238 74.8066V74.8125L48.2598 74.4082L48.1836 74.209C48.1445 74.1504 48.1035 74.0879 48.0605 74.0215C48.0215 73.9551 47.9863 73.8926 47.9551 73.834C47.9082 73.7324 47.8574 73.6641 47.8027 73.6289L47.6914 73.5469C47.2969 73.9414 46.9023 74.3379 46.5078 74.7363C46.1133 75.1348 45.7168 75.5293 45.3184 75.9199L44.1523 75.4863L44.8555 74.7422C44.9102 74.6914 44.9375 74.584 44.9375 74.4199C44.9375 74.3496 44.9297 74.2773 44.9141 74.2031C44.8984 74.1289 44.873 74.0625 44.8379 74.0039C44.8066 73.9453 44.7676 73.8965 44.7207 73.8574C44.6738 73.8184 44.6211 73.7988 44.5625 73.7988C44.4961 73.7988 44.4434 73.8145 44.4043 73.8457C44.3652 73.873 44.2891 73.9043 44.1758 73.9395C44.0625 73.9746 43.9082 74.0176 43.7129 74.0684C43.6465 74.0684 43.5098 74.0254 43.3027 73.9395C43.1113 73.8145 43.0156 73.6465 43.0156 73.4355C43.0156 73.3926 43.0254 73.3398 43.0449 73.2773C43.0684 73.2109 43.1016 73.1309 43.1445 73.0371C43.293 72.7676 43.4473 72.5371 43.6074 72.3457C43.7676 72.1543 43.9336 71.9902 44.1055 71.8535C44.5586 71.5215 45.123 71.3555 45.7988 71.3555C46.1152 71.3555 46.418 71.4121 46.707 71.5254C46.9961 71.6387 47.2676 71.8047 47.5215 72.0234C47.9004 72.3555 48.1973 72.752 48.4121 73.2129L48.5117 73.5293V73.5234L48.5762 73.6992L48.4824 72.4688V70.2363L48.8809 70.4941L48.9512 70.6055C48.9512 70.8125 48.9961 70.9727 49.0859 71.0859L49.3848 71.2324H49.8652L50.668 72.1113H49.3262ZM45.4355 73.7109C45.4629 73.7578 45.4844 73.8145 45.5 73.8809C45.5195 73.9473 45.5371 74.0234 45.5527 74.1094L46.9824 72.6855C46.959 72.6582 46.9258 72.6289 46.8828 72.5977L46.8887 72.6035L46.6543 72.4453C46.5176 72.332 46.3164 72.2754 46.0508 72.2754C45.7969 72.2754 45.5742 72.3066 45.3828 72.3691C45.1914 72.4277 45.0195 72.5273 44.8672 72.668H44.873C44.7988 72.7422 44.7129 72.8555 44.6152 73.0078C44.7168 73.0195 44.8027 73.043 44.873 73.0781C44.9512 73.0938 45.0176 73.125 45.0723 73.1719C45.1309 73.2148 45.1816 73.2637 45.2246 73.3184C45.2676 73.3691 45.3047 73.4277 45.3359 73.4941C45.3711 73.5566 45.4062 73.6309 45.4414 73.7168L45.4355 73.7109ZM53.8965 74.4551C53.8145 74.5371 53.7383 74.6055 53.668 74.6602C53.5977 74.7148 53.5273 74.7578 53.457 74.7891L53.1641 74.8945L52.9062 74.9238C52.4766 74.9238 52.0938 74.7324 51.7578 74.3496C51.5938 74.1504 51.4688 73.9453 51.3828 73.7344C51.2969 73.5234 51.2539 73.2949 51.2539 73.0488C51.2539 72.9746 51.2539 72.9121 51.2539 72.8613C51.2539 72.8066 51.2578 72.7578 51.2656 72.7148C51.2773 72.668 51.293 72.6211 51.3125 72.5742C51.332 72.5234 51.3594 72.4629 51.3945 72.3926C51.4297 72.3145 51.4844 72.2383 51.5586 72.1641C51.6328 72.0898 51.7188 72.0098 51.8164 71.9238C52.1406 71.6816 52.4727 71.5605 52.8125 71.5605C53.2266 71.5605 53.5977 71.7285 53.9258 72.0645V72.0586C54.2461 72.3828 54.4062 72.7695 54.4062 73.2188C54.4062 73.6641 54.2363 74.0742 53.8965 74.4492V74.4551ZM53.8438 78.5449C53.7891 78.6113 53.7246 78.6699 53.6504 78.7207C53.5762 78.7715 53.4941 78.8242 53.4043 78.8789C53.3262 78.9102 53.2441 78.9355 53.1582 78.9551C53.0762 78.9785 52.9883 78.998 52.8945 79.0137C52.6836 79.0137 52.4844 78.9648 52.2969 78.8672C52.1094 78.7734 51.9297 78.625 51.7578 78.4219C51.4414 78.0352 51.2832 77.6016 51.2832 77.1211C51.2832 76.8867 51.3281 76.6699 51.418 76.4707C51.5078 76.2715 51.6523 76.0918 51.8516 75.9316C51.9922 75.8262 52.1465 75.7422 52.3145 75.6797C52.4824 75.6133 52.6523 75.5801 52.8242 75.5801C53.2344 75.5801 53.5957 75.748 53.9082 76.084C54.0566 76.2559 54.1699 76.4395 54.248 76.6348C54.3262 76.8262 54.3652 77.0332 54.3652 77.2559C54.3652 77.3379 54.3633 77.4082 54.3594 77.4668C54.3594 77.5254 54.3555 77.5781 54.3477 77.625C54.3398 77.6719 54.3281 77.7188 54.3125 77.7656C54.2969 77.8086 54.2754 77.8594 54.248 77.918V77.9121C54.166 78.1152 54.0293 78.3262 53.8379 78.5449H53.8438ZM53.082 73.834C53.4414 73.5762 53.6211 73.3457 53.6211 73.1426C53.6211 73.0723 53.5996 73.0098 53.5566 72.9551C53.5137 72.9004 53.4551 72.8555 53.3809 72.8203C53.3105 72.7812 53.2285 72.752 53.1348 72.7324C53.0449 72.709 52.9512 72.6973 52.8535 72.6973C52.6387 72.6973 52.4785 72.7441 52.373 72.8379C52.1465 73.0137 52.0332 73.2891 52.0332 73.6641C52.0332 73.7969 52.0586 73.9023 52.1094 73.9805C52.1602 74.0547 52.252 74.1035 52.3848 74.127C52.5723 74.127 52.8047 74.0293 53.082 73.834ZM53.1406 77.9414L53.1289 77.9531C53.2773 77.832 53.3887 77.709 53.4629 77.584C53.541 77.459 53.5938 77.332 53.6211 77.2031C53.6172 77.1211 53.5859 77.0469 53.5273 76.9805C53.4727 76.9102 53.4004 76.8516 53.3105 76.8047C53.2246 76.7539 53.127 76.7168 53.0176 76.6934C52.9121 76.666 52.8086 76.6523 52.707 76.6523C52.6328 76.6523 52.5625 76.6602 52.4961 76.6758C52.4297 76.6875 52.3691 76.7148 52.3145 76.7578L52.3262 76.752C52.2715 76.8145 52.2012 76.9297 52.1152 77.0977V77.0859C52.0684 77.2461 52.0449 77.4141 52.0449 77.5898C52.0449 77.6797 52.0527 77.7656 52.0684 77.8477C52.0879 77.9258 52.1152 77.998 52.1504 78.0645C52.1855 78.127 52.2285 78.1777 52.2793 78.2168C52.334 78.252 52.3965 78.2695 52.4668 78.2695C52.5723 78.2695 52.6621 78.25 52.7363 78.2109L53.1406 77.9414ZM60.4004 77.2734V78.6562H59.0117V77.2734H60.4004ZM63.7402 77.2734V78.6562H62.3516V77.2734H63.7402ZM67.0801 77.2734V78.6562H65.6914V77.2734H67.0801ZM70.4199 77.2734V78.6562H69.0312V77.2734H70.4199ZM73.7598 77.2734V78.6562H72.3711V77.2734H73.7598ZM77.0996 77.2734V78.6562H75.7109V77.2734H77.0996ZM80.4395 77.2734V78.6562H79.0508V77.2734H80.4395ZM83.7793 77.2734V78.6562H82.3906V77.2734H83.7793ZM87.1191 77.2734V78.6562H85.7305V77.2734H87.1191ZM90.459 77.2734V78.6562H89.0703V77.2734H90.459ZM93.7988 77.2734V78.6562H92.4102V77.2734H93.7988ZM97.1387 77.2734V78.6562H95.75V77.2734H97.1387ZM100.479 77.2734V78.6562H99.0898V77.2734H100.479ZM103.818 77.2734V78.6562H102.43V77.2734H103.818ZM107.158 77.2734V78.6562H105.77V77.2734H107.158ZM110.498 77.2734V78.6562H109.109V77.2734H110.498ZM113.838 77.2734V78.6562H112.449V77.2734H113.838ZM117.178 77.2734V78.6562H115.789V77.2734H117.178ZM120.518 77.2734V78.6562H119.129V77.2734H120.518ZM123.857 77.2734V78.6562H122.469V77.2734H123.857ZM127.197 77.2734V78.6562H125.809V77.2734H127.197ZM130.537 77.2734V78.6562H129.148V77.2734H130.537ZM133.877 77.2734V78.6562H132.488V77.2734H133.877ZM137.217 77.2734V78.6562H135.828V77.2734H137.217ZM140.557 77.2734V78.6562H139.168V77.2734H140.557ZM143.896 77.2734V78.6562H142.508V77.2734H143.896ZM147.236 77.2734V78.6562H145.848V77.2734H147.236ZM150.576 77.2734V78.6562H149.188V77.2734H150.576ZM153.916 77.2734V78.6562H152.527V77.2734H153.916ZM157.256 77.2734V78.6562H155.867V77.2734H157.256ZM160.596 77.2734V78.6562H159.207V77.2734H160.596ZM163.936 77.2734V78.6562H162.547V77.2734H163.936ZM167.275 77.2734V78.6562H165.887V77.2734H167.275ZM170.615 77.2734V78.6562H169.227V77.2734H170.615ZM173.955 77.2734V78.6562H172.566V77.2734H173.955ZM177.295 77.2734V78.6562H175.906V77.2734H177.295Z" fill="black"/>
</svg>
