<svg width="129" height="85" viewBox="0 0 129 85" fill="none" xmlns="http://www.w3.org/2000/svg">
<rect width="129" height="84" transform="translate(0 0.15625)" fill="white"/>
<path d="M22.0889 22.6572C22.18 22.6572 22.2734 22.6595 22.3691 22.6641C22.4694 22.6686 22.5674 22.6709 22.6631 22.6709H22.9297L23.2236 22.6914C23.2738 22.696 23.333 22.7074 23.4014 22.7256C23.4697 22.7393 23.5381 22.762 23.6064 22.7939L23.8525 22.8965L24.208 23.1836L24.3721 23.3545L24.4131 23.4092L24.3652 21.3379C24.2559 21.4473 24.151 21.5475 24.0508 21.6387C23.9551 21.7253 23.8594 21.805 23.7637 21.8779C23.668 21.9508 23.5723 22.0192 23.4766 22.083C23.3809 22.1468 23.2783 22.2083 23.1689 22.2676H23.1758C23.0618 22.3405 22.9434 22.402 22.8203 22.4521C22.6973 22.4977 22.5674 22.5319 22.4307 22.5547L22.0137 22.6094H21.8633C21.7904 22.6094 21.7061 22.5911 21.6104 22.5547C21.5146 22.5182 21.4167 22.4681 21.3164 22.4043C21.1979 22.3268 21.0544 22.1764 20.8857 21.9531C20.7809 21.8164 20.6875 21.6729 20.6055 21.5225C20.528 21.3721 20.4688 21.224 20.4277 21.0781L20.3594 20.5859V15.5205H18.4453L17.8301 14.4951H24.5566V14.2695C24.5566 14.151 24.5407 14.0531 24.5088 13.9756C24.4769 13.8936 24.4085 13.8138 24.3037 13.7363L24.3174 13.7432C24.1989 13.6794 24.0622 13.6315 23.9072 13.5996C23.7523 13.5632 23.5951 13.5426 23.4355 13.5381L22.7383 13.5586H22.2666L21.8633 13.6201C21.6901 13.6201 21.5739 13.6315 21.5146 13.6543H21.2754C21.0931 13.6543 20.9085 13.6429 20.7217 13.6201C20.5394 13.5928 20.3617 13.554 20.1885 13.5039C20.0153 13.4492 19.8512 13.3809 19.6963 13.2988C19.5413 13.2122 19.4023 13.1074 19.2793 12.9844C19.1973 12.916 19.1198 12.8317 19.0469 12.7314C18.974 12.6312 18.9102 12.5264 18.8555 12.417C18.8008 12.3076 18.7575 12.196 18.7256 12.082C18.6937 11.9681 18.6777 11.861 18.6777 11.7607C18.6777 11.5511 18.7096 11.387 18.7734 11.2686C18.8053 11.141 18.8646 11.0247 18.9512 10.9199C18.9876 10.8561 19.0651 10.8083 19.1836 10.7764L19.4775 10.667V10.9609L19.5254 11.1387C19.3841 11.2799 19.3135 11.4098 19.3135 11.5283C19.318 11.5648 19.3226 11.599 19.3271 11.6309C19.3363 11.6582 19.3431 11.6901 19.3477 11.7266L19.4092 11.8975C19.4593 11.9385 19.5117 11.9818 19.5664 12.0273C19.6257 12.0729 19.6803 12.1139 19.7305 12.1504L19.71 12.1367L20.0039 12.2666L20.3936 12.3418L20.8311 12.3145L21.3984 12.2803L22.2393 12.2529C22.376 12.2438 22.515 12.2347 22.6562 12.2256C22.7975 12.2165 22.9388 12.2074 23.0801 12.1982C23.668 12.1982 24.1283 12.3122 24.4609 12.54V12.5332C24.6432 12.6426 24.8187 12.7907 24.9873 12.9775C25.1605 13.1644 25.3018 13.3763 25.4111 13.6133C25.4613 13.7682 25.4954 13.9049 25.5137 14.0234C25.5319 14.1374 25.541 14.2354 25.541 14.3174V14.4951H26.3887L26.9834 15.5205H21.3438V20.8936C21.3438 21.0075 21.387 21.1328 21.4736 21.2695C21.5602 21.3424 21.6901 21.3789 21.8633 21.3789C22.0775 21.3789 22.3486 21.2673 22.6768 21.0439C23.0049 20.8206 23.3626 20.472 23.75 19.998C23.8411 19.8659 23.9209 19.7246 23.9893 19.5742C24.0622 19.4238 24.1169 19.2803 24.1533 19.1436C24.1305 19.1481 24.1077 19.1527 24.085 19.1572C24.0667 19.1572 24.0462 19.1572 24.0234 19.1572C23.7454 19.1572 23.472 19.0638 23.2031 18.877C22.9844 18.6947 22.875 18.4486 22.875 18.1387L22.9092 17.8721C23.0094 17.5303 23.1644 17.2887 23.374 17.1475C23.5882 17.0016 23.8252 16.9287 24.085 16.9287C24.1442 16.9287 24.1966 16.931 24.2422 16.9355C24.2923 16.9401 24.3356 16.9492 24.3721 16.9629C24.5407 17.0085 24.7093 17.0951 24.8779 17.2227C25.0465 17.3503 25.1947 17.5098 25.3223 17.7012L25.4932 18.1113L25.5547 18.6855C25.5547 19.0228 25.5296 19.3122 25.4795 19.5537C25.4567 19.6722 25.4339 19.7656 25.4111 19.834C25.3929 19.9023 25.3724 19.9548 25.3496 19.9912V25.3711L24.8438 24.9541L24.4678 24.3457C24.2035 24.0267 23.8617 23.8672 23.4424 23.8672C23.2373 23.8717 23.0299 23.8763 22.8203 23.8809C22.6107 23.89 22.4033 23.8968 22.1982 23.9014L21.3711 23.915C21.2845 23.9196 21.1934 23.9242 21.0977 23.9287C21.0065 23.9378 20.9199 23.9447 20.8379 23.9492C20.6556 23.9492 20.4688 23.9355 20.2773 23.9082C20.0905 23.8854 19.9082 23.849 19.7305 23.7988C19.5573 23.7487 19.3955 23.6872 19.2451 23.6143C19.0947 23.5459 18.9694 23.4639 18.8691 23.3682C18.7643 23.2725 18.6709 23.1631 18.5889 23.04C18.5068 22.917 18.4362 22.7757 18.377 22.6162L18.2471 22.1172L18.1992 21.6523C18.1992 21.543 18.2015 21.4541 18.2061 21.3857C18.2061 21.3174 18.2152 21.265 18.2334 21.2285C18.2334 21.1829 18.2357 21.1374 18.2402 21.0918C18.2448 21.0462 18.2471 21.0029 18.2471 20.9619C18.2471 20.8981 18.2607 20.8275 18.2881 20.75C18.3109 20.668 18.3405 20.5882 18.377 20.5107C18.3906 20.4834 18.4066 20.4515 18.4248 20.415C18.4385 20.3786 18.4544 20.3421 18.4727 20.3057C18.4863 20.2646 18.5 20.2282 18.5137 20.1963C18.5319 20.1598 18.5456 20.1302 18.5547 20.1074L19.0332 20.5859L18.9443 20.9072C18.9398 20.971 18.9329 21.0394 18.9238 21.1123C18.9193 21.1807 18.9147 21.2467 18.9102 21.3105C18.9102 21.4245 18.917 21.5225 18.9307 21.6045C18.9443 21.682 18.9626 21.7503 18.9854 21.8096C19.0947 22.1012 19.3294 22.3086 19.6895 22.4316L19.6758 22.4248L20.4482 22.6094L20.9336 22.6572L21.3643 22.6367L22.0889 22.6572ZM30.5791 15.5205H28.6172V24.2158L27.6396 23.1904V17.0176C27.6396 16.8717 27.626 16.7578 27.5986 16.6758C27.5667 16.4844 27.5098 16.3294 27.4277 16.2109C27.3639 16.1243 27.291 16.0423 27.209 15.9648C27.127 15.8828 27.029 15.8031 26.915 15.7256C26.6917 15.5798 26.4639 15.5068 26.2314 15.5068L25.9854 15.5205L24.9395 14.4951H25.5068L25.8281 14.4746H26.0811C26.4502 14.4974 26.71 14.5475 26.8604 14.625C26.9424 14.666 27.013 14.707 27.0723 14.748C27.1361 14.7845 27.1908 14.8255 27.2363 14.8711L27.2227 14.8643C27.4095 15.0101 27.5941 15.279 27.7764 15.6709L27.8242 15.7734L27.7012 14.8643L27.6396 13.873V13.5039C27.6396 13.4447 27.6305 13.3604 27.6123 13.251C27.5986 13.1416 27.5781 13.0186 27.5508 12.8818L28.125 13.3398L28.2002 13.7979L28.248 14.0371L28.3232 14.208L28.501 14.4336L28.5625 14.4951H29.5605L30.5791 15.5205ZM39.0898 19.8135C38.9167 19.932 38.7572 20.055 38.6113 20.1826C38.4655 20.3102 38.3379 20.4447 38.2285 20.5859L37.9414 20.9688L37.7227 21.3994C37.6725 21.5452 37.6338 21.6979 37.6064 21.8574C37.5791 22.0124 37.5654 22.1628 37.5654 22.3086C37.5654 22.6686 37.5928 22.9443 37.6475 23.1357C37.6566 23.1768 37.6999 23.2656 37.7773 23.4023C37.8548 23.5436 37.9619 23.7236 38.0986 23.9424L37.5176 24.4824L36.9707 23.5391C36.8796 23.3796 36.8089 23.2292 36.7588 23.0879C36.7132 22.9421 36.679 22.8099 36.6562 22.6914L36.6084 22.2061V21.9805L36.6221 21.5088L36.7861 20.6406V20.6543C36.7861 20.6452 36.7884 20.6383 36.793 20.6338C36.7975 20.6292 36.7998 20.6224 36.7998 20.6133C36.8271 20.5176 36.8636 20.4036 36.9092 20.2715C36.9548 20.1348 37.0277 19.9707 37.1279 19.7793L37.1143 19.7998L37.1826 19.54C36.9958 19.5264 36.8066 19.4922 36.6152 19.4375C36.4238 19.3828 36.2484 19.3099 36.0889 19.2188L35.2822 18.6035L34.749 18.0635C34.6032 17.863 34.487 17.6829 34.4004 17.5234L33.9082 18.2002L33.915 18.1865C33.7464 18.5146 33.6211 18.779 33.5391 18.9795C33.4616 19.1755 33.4229 19.3213 33.4229 19.417C33.4229 19.5081 33.4958 19.5537 33.6416 19.5537C33.7282 19.5537 33.8216 19.5378 33.9219 19.5059C34.0221 19.4694 34.1156 19.4193 34.2021 19.3555C34.2887 19.2917 34.3639 19.2188 34.4277 19.1367C34.4961 19.0501 34.5417 18.9544 34.5645 18.8496C34.7012 18.9043 34.8242 18.9567 34.9336 19.0068C35.0475 19.057 35.1478 19.1117 35.2344 19.1709C35.3255 19.2301 35.4076 19.2962 35.4805 19.3691C35.5534 19.4421 35.6217 19.5286 35.6855 19.6289L35.6787 19.6221C35.8245 19.7998 35.9362 20.0345 36.0137 20.3262C36.0957 20.6133 36.1367 20.9482 36.1367 21.3311C36.1367 21.5908 36.1117 21.7936 36.0615 21.9395C36.0479 22.0215 36.0137 22.1104 35.959 22.2061C35.9043 22.2972 35.8382 22.3975 35.7607 22.5068C35.6559 22.6572 35.5374 22.7917 35.4053 22.9102C35.2777 23.0286 35.1318 23.1335 34.9678 23.2246C34.8083 23.2975 34.6374 23.3499 34.4551 23.3818C34.2773 23.4183 34.0951 23.4365 33.9082 23.4365C33.7396 23.4365 33.571 23.4206 33.4023 23.3887C33.2383 23.3613 33.0811 23.3226 32.9307 23.2725H32.9375C32.7051 23.1995 32.4749 23.0674 32.2471 22.876C32.0192 22.6846 31.7936 22.4248 31.5703 22.0967C31.4154 21.8369 31.2718 21.5658 31.1396 21.2832C31.012 21.0007 30.9027 20.6885 30.8115 20.3467L30.5107 18.9863L30.333 17.8105L31.0645 18.3984L31.4336 19.8545L31.4268 19.8408L31.6934 20.4219C31.7799 20.6315 31.8551 20.8001 31.9189 20.9277C31.9873 21.0553 32.0443 21.1442 32.0898 21.1943C32.1673 21.3037 32.2721 21.4131 32.4043 21.5225C32.5365 21.6318 32.7051 21.7458 32.9102 21.8643H32.9033C33.2406 22.0465 33.4912 22.124 33.6553 22.0967C33.833 22.0785 34.0085 22.0374 34.1816 21.9736C34.3548 21.9098 34.5166 21.8187 34.667 21.7002C34.8083 21.5908 34.9176 21.4701 34.9951 21.3379C35.0771 21.2012 35.1227 21.0667 35.1318 20.9346L35.0908 20.709C35.0908 20.6634 35.0498 20.5951 34.9678 20.5039V20.5107C34.9495 20.4925 34.9154 20.4743 34.8652 20.4561C34.8197 20.4333 34.765 20.415 34.7012 20.4014L34.5781 20.4219L34.2021 20.5586L33.9424 20.6406L33.6416 20.6953L33.2793 20.6406C33.2064 20.6178 33.1312 20.5928 33.0537 20.5654C32.9762 20.5335 32.9102 20.4971 32.8555 20.4561C32.8145 20.4333 32.762 20.3809 32.6982 20.2988C32.6344 20.2168 32.5729 20.1165 32.5137 19.998C32.4544 19.8796 32.402 19.7497 32.3564 19.6084C32.3154 19.4626 32.2949 19.3167 32.2949 19.1709C32.2949 18.8245 32.3861 18.4782 32.5684 18.1318L33.0811 17.2773L33.5527 16.5732C33.5983 16.5049 33.6348 16.3796 33.6621 16.1973C33.6667 16.1562 33.6712 16.1152 33.6758 16.0742C33.6849 16.0332 33.6917 15.9899 33.6963 15.9443C33.6963 15.7848 33.6849 15.6846 33.6621 15.6436C33.653 15.6253 33.6439 15.6117 33.6348 15.6025C33.6257 15.5889 33.6074 15.5752 33.5801 15.5615C33.3613 15.5615 33.2155 15.5798 33.1426 15.6162C33.0241 15.6481 32.8372 15.778 32.582 16.0059L32.6299 16.0537C32.7575 16.236 32.8213 16.4798 32.8213 16.7852C32.8213 17.0449 32.7347 17.2523 32.5615 17.4072C32.3929 17.5576 32.1514 17.6693 31.8369 17.7422C31.5635 17.7741 31.3083 17.7194 31.0713 17.5781C30.7842 17.3958 30.6406 17.111 30.6406 16.7236C30.6406 16.2132 30.8981 15.7005 31.4131 15.1855V15.1924C31.9235 14.641 32.484 14.3652 33.0947 14.3652C33.3682 14.3652 33.5938 14.4062 33.7715 14.4883H33.7578C33.8763 14.5247 33.9902 14.5817 34.0996 14.6592C34.209 14.7321 34.3092 14.821 34.4004 14.9258V14.9189C34.4688 14.9873 34.5713 15.1514 34.708 15.4111C34.7354 15.4704 34.7695 15.4886 34.8105 15.4658C34.888 15.4111 34.9701 15.3564 35.0566 15.3018C35.1478 15.2425 35.2344 15.1855 35.3164 15.1309C35.4805 15.0169 35.6217 14.9235 35.7402 14.8506C35.8587 14.7731 35.9613 14.7184 36.0479 14.6865L36.335 14.5977L36.7793 14.5156L37.2646 14.4951L37.5586 14.5498C37.6497 14.5589 37.7318 14.5794 37.8047 14.6113C37.8822 14.6387 37.9551 14.6706 38.0234 14.707L38.3926 14.9805C38.5977 15.1582 38.7503 15.443 38.8506 15.835V16.1152L38.8027 16.3682C38.7891 16.4548 38.7412 16.5436 38.6592 16.6348H38.666L38.3789 16.9697V16.9561L38.3311 17.0244C38.3812 17.0837 38.429 17.1406 38.4746 17.1953C38.5247 17.25 38.5703 17.307 38.6113 17.3662L38.748 17.5986C38.7799 17.708 38.8096 17.8288 38.8369 17.9609C38.8369 18.0931 38.8301 18.2139 38.8164 18.3232C38.8073 18.4326 38.7845 18.5329 38.748 18.624C38.7161 18.7152 38.6706 18.8018 38.6113 18.8838C38.5521 18.9658 38.4746 19.0479 38.3789 19.1299L39.0898 19.8135ZM37.7363 17.7559C37.6908 17.6875 37.6589 17.651 37.6406 17.6465H37.6064L37.4971 17.7285L37.1826 17.8857L37.0391 17.8994H36.9365L36.6973 17.8516L36.3213 17.667C36.1436 17.5257 36.0547 17.3047 36.0547 17.0039C36.0592 16.89 36.0911 16.776 36.1504 16.6621C36.2142 16.5482 36.2917 16.4479 36.3828 16.3613C36.4785 16.2702 36.5811 16.1995 36.6904 16.1494C36.8044 16.0993 36.9137 16.0811 37.0186 16.0947C37.0915 16.0947 37.1576 16.1061 37.2168 16.1289C37.2806 16.1471 37.3376 16.1699 37.3877 16.1973C37.4378 16.2201 37.4834 16.2406 37.5244 16.2588C37.57 16.277 37.6178 16.2975 37.668 16.3203C37.7819 16.2702 37.8389 16.1471 37.8389 15.9512C37.8389 15.8509 37.8229 15.7643 37.791 15.6914C37.7637 15.6185 37.7113 15.5479 37.6338 15.4795L37.3398 15.418C37.1803 15.4225 37.0094 15.4521 36.8271 15.5068C36.6449 15.5615 36.4671 15.6413 36.2939 15.7461L35.8018 16.0605V16.0537C35.7288 16.1038 35.6605 16.154 35.5967 16.2041C35.5374 16.2497 35.4759 16.2975 35.4121 16.3477C35.1341 16.5618 35.0225 16.7327 35.0771 16.8604V16.8535C35.1136 16.9492 35.1592 17.0518 35.2139 17.1611C35.2731 17.266 35.3369 17.3776 35.4053 17.4961L35.8633 18.084L35.8564 18.0703C35.9066 18.1204 35.959 18.1706 36.0137 18.2207C36.0684 18.2708 36.1253 18.3141 36.1846 18.3506L36.7383 18.5557L37.0732 18.6035C37.2191 18.5944 37.3786 18.5352 37.5518 18.4258C37.6429 18.3893 37.7158 18.3278 37.7705 18.2412C37.8252 18.1501 37.8525 18.0635 37.8525 17.9814C37.8525 17.9359 37.848 17.9085 37.8389 17.8994L37.7363 17.7559ZM43.5811 15.5205H41.6191V24.2158L40.6416 23.1904V17.0176C40.6416 16.8717 40.6279 16.7578 40.6006 16.6758C40.5687 16.4844 40.5117 16.3294 40.4297 16.2109C40.3659 16.1243 40.293 16.0423 40.2109 15.9648C40.1289 15.8828 40.0309 15.8031 39.917 15.7256C39.6937 15.5798 39.4658 15.5068 39.2334 15.5068L38.9873 15.5205L37.9414 14.4951H38.5088L38.8301 14.4746H39.083C39.4521 14.4974 39.7119 14.5475 39.8623 14.625C39.9443 14.666 40.015 14.707 40.0742 14.748C40.138 14.7845 40.1927 14.8255 40.2383 14.8711L40.2246 14.8643C40.4115 15.0101 40.596 15.279 40.7783 15.6709L40.8262 15.7734L40.7031 14.8643L40.6416 13.873V13.5039C40.6416 13.4447 40.6325 13.3604 40.6143 13.251C40.6006 13.1416 40.5801 13.0186 40.5527 12.8818L41.127 13.3398L41.2021 13.7979L41.25 14.0371L41.3252 14.208L41.5029 14.4336L41.5645 14.4951H42.5625L43.5811 15.5205ZM48.7148 15.5205V15.917C48.724 15.917 48.7308 15.917 48.7354 15.917C48.7445 15.9124 48.7536 15.9102 48.7627 15.9102C49.0361 15.9102 49.3278 15.9854 49.6377 16.1357C49.9521 16.2816 50.2598 16.4821 50.5605 16.7373C50.9479 17.0791 51.2464 17.471 51.4561 17.9131C51.6657 18.3551 51.7705 18.8382 51.7705 19.3623C51.7705 19.5947 51.7318 19.8089 51.6543 20.0049C51.5768 20.2008 51.472 20.3695 51.3398 20.5107C51.2122 20.652 51.0618 20.7637 50.8887 20.8457C50.7201 20.9232 50.54 20.9619 50.3486 20.9619C49.9977 20.9619 49.681 20.8001 49.3984 20.4766L49.2139 20.1621L49.1729 19.8613L49.2139 19.5811C49.2367 19.499 49.264 19.4284 49.2959 19.3691C49.3324 19.3053 49.3734 19.2461 49.4189 19.1914L49.6992 18.9316L50.2119 18.8496C50.4854 18.8496 50.7269 18.943 50.9365 19.1299L50.957 19.1572C50.9479 19.0752 50.9342 18.9909 50.916 18.9043C50.9023 18.8132 50.8841 18.7311 50.8613 18.6582C50.7611 18.3574 50.5947 18.109 50.3623 17.9131C50.2712 17.8219 50.1755 17.7399 50.0752 17.667C49.9749 17.5941 49.8678 17.5257 49.7539 17.4619C49.6081 17.389 49.4554 17.3343 49.2959 17.2979C49.1364 17.2568 48.9723 17.2363 48.8037 17.2363L48.6943 17.2432V23.9287L48.2158 23.4297L47.9629 22.6914C47.9264 22.5638 47.849 22.4134 47.7305 22.2402C47.612 22.0671 47.4593 21.8688 47.2725 21.6455C46.917 21.167 46.5798 20.848 46.2607 20.6885L45.8369 20.4424L45.8438 20.4492C45.7526 20.4128 45.6615 20.374 45.5703 20.333C45.4837 20.292 45.3949 20.2533 45.3037 20.2168C45.1169 20.1257 44.7796 20.0505 44.292 19.9912L43.0752 18.4873C43.3076 18.3141 43.5583 18.1341 43.8271 17.9473C44.096 17.7559 44.3877 17.5622 44.7021 17.3662C44.9847 17.193 45.2467 17.0404 45.4883 16.9082C45.7344 16.7715 45.9622 16.6576 46.1719 16.5664C46.3633 16.4798 46.5866 16.3887 46.8418 16.293C47.1016 16.1927 47.3955 16.0879 47.7236 15.9785V15.5205H42.8086L41.7627 14.4951H51.9688L52.9668 15.5205H48.7148ZM47.6963 17.3047C47.5277 17.3548 47.3727 17.4095 47.2314 17.4688C47.0947 17.528 46.9648 17.5918 46.8418 17.6602L45.9805 18.1455C45.8893 18.2093 45.7959 18.2731 45.7002 18.3369C45.609 18.3962 45.5202 18.4577 45.4336 18.5215C45.3926 18.5488 45.3584 18.5739 45.3311 18.5967C45.3037 18.6149 45.2786 18.6331 45.2559 18.6514C45.2331 18.6696 45.208 18.6901 45.1807 18.7129C45.1533 18.7311 45.1191 18.7562 45.0781 18.7881C45.2148 18.8473 45.3424 18.9043 45.4609 18.959C45.5794 19.0137 45.6797 19.0706 45.7617 19.1299H45.7549L45.8848 19.2119L46.0146 19.3008L46.1924 19.4238L46.4043 19.5879C46.5228 19.6836 46.6504 19.7952 46.7871 19.9229C46.9238 20.0459 47.0514 20.1872 47.1699 20.3467C47.2474 20.4515 47.3317 20.5677 47.4229 20.6953C47.514 20.8184 47.6051 20.946 47.6963 21.0781V17.3047ZM61.9014 15.5205H60.0557V23.9766L58.9893 23.0879L58.9688 17.8584C58.9688 17.6624 58.8001 17.3024 58.4629 16.7783C58.3079 16.5413 58.1484 16.3568 57.9844 16.2246C57.8203 16.0924 57.6562 16.0264 57.4922 16.0264C57.2917 16.0264 57.1162 16.0833 56.9658 16.1973C56.861 16.2839 56.7926 16.3841 56.7607 16.498C56.8109 16.5208 56.861 16.555 56.9111 16.6006C56.9658 16.6462 57.0296 16.7054 57.1025 16.7783L57.0957 16.7646L57.3418 16.9766C57.5697 17.1771 57.7292 17.3617 57.8203 17.5303V17.5234C57.9251 17.6921 57.9775 17.8721 57.9775 18.0635C57.9775 18.1592 57.9753 18.2344 57.9707 18.2891C57.9661 18.3392 57.957 18.3825 57.9434 18.4189L57.8408 18.7197V18.7129C57.8135 18.804 57.7839 18.877 57.752 18.9316C57.7201 18.9863 57.6676 19.0387 57.5947 19.0889C57.2985 19.2301 57.0456 19.3008 56.8359 19.3008C56.4349 19.3008 56.0544 19.0957 55.6943 18.6855L55.626 18.5898C55.626 18.5944 55.6237 18.599 55.6191 18.6035C55.6146 18.6081 55.6123 18.6126 55.6123 18.6172C55.4619 18.8405 55.2751 18.9932 55.0518 19.0752L54.5938 19.2461L54.2861 19.3008L54.0332 19.2666L53.8145 19.1572L53.5684 18.9521C53.5182 18.8883 53.4681 18.8177 53.418 18.7402C53.3724 18.6582 53.3223 18.5648 53.2676 18.46L53.2061 18.0293C53.2061 17.8197 53.2402 17.6556 53.3086 17.5371L53.5479 17.2021L53.9102 16.8125L54.3408 16.4639C54.4183 16.4001 54.4867 16.3568 54.5459 16.334L54.1904 15.7871L53.9512 15.6572H53.958C53.7894 15.5661 53.6458 15.5205 53.5273 15.5205H52.4814L51.5039 14.4951H53.3906C53.7507 14.5088 54.1061 14.6227 54.457 14.8369L54.8125 15.2129L55.1133 15.6436L55.2432 15.8828C55.3298 15.7279 55.4232 15.5843 55.5234 15.4521C55.6237 15.32 55.7194 15.2129 55.8105 15.1309C55.929 15.026 56.0794 14.9258 56.2617 14.8301C56.444 14.7298 56.6445 14.641 56.8633 14.5635L57.0342 14.5156L57.2256 14.4814C57.3395 14.4814 57.4808 14.5452 57.6494 14.6729C57.8226 14.7959 58.0368 15.0238 58.292 15.3564L58.9141 16.293L59.208 16.7852C59.1715 16.498 59.1305 16.2132 59.085 15.9307C59.0439 15.6481 59.0052 15.3633 58.9688 15.0762V12.9229L59.3994 13.2988L59.6729 13.6338C59.7549 13.7432 59.7959 13.8617 59.7959 13.9893L59.8096 14.2148C59.8324 14.2422 59.8551 14.2695 59.8779 14.2969C59.9007 14.3197 59.9235 14.3493 59.9463 14.3857L60.2881 14.4951H60.876L61.9014 15.5205ZM67.5479 15.5205V24.2363L67.0352 23.5596L67.0557 23.2861C67.0557 22.8577 66.9531 22.3223 66.748 21.6797C66.6569 21.3835 66.5498 21.0758 66.4268 20.7568C66.3037 20.4378 66.1829 20.1439 66.0645 19.875C66.0234 19.8021 65.9756 19.7269 65.9209 19.6494C65.8708 19.5674 65.8115 19.4876 65.7432 19.4102L65.2373 18.918C65.0277 18.7585 64.818 18.6286 64.6084 18.5283C64.3988 18.4235 64.2074 18.3643 64.0342 18.3506C64.0342 18.3597 64.0296 18.3688 64.0205 18.3779C64.3167 18.779 64.4648 19.1253 64.4648 19.417C64.4648 19.5036 64.4626 19.5742 64.458 19.6289C64.4535 19.679 64.4443 19.7223 64.4307 19.7588C64.4307 19.7952 64.4215 19.8385 64.4033 19.8887C64.3851 19.9388 64.3577 20.0003 64.3213 20.0732C64.1253 20.4606 63.7676 20.6543 63.248 20.6543L62.8105 20.5996C62.6602 20.5768 62.5189 20.5404 62.3867 20.4902C62.2591 20.4355 62.1429 20.3695 62.0381 20.292C61.8695 20.1097 61.7327 19.8089 61.6279 19.3896L61.5938 19.0205C61.5938 18.7334 61.6484 18.4691 61.7578 18.2275C61.8672 17.9814 62.0153 17.7718 62.2021 17.5986C62.3936 17.4209 62.6146 17.2842 62.8652 17.1885C63.1204 17.0882 63.3916 17.0381 63.6787 17.0381L64.0137 17.0518C64.1139 17.0518 64.2598 17.0905 64.4512 17.168C64.5423 17.1862 64.6471 17.2318 64.7656 17.3047C64.8887 17.373 65.0072 17.4482 65.1211 17.5303C65.2806 17.6488 65.4447 17.7992 65.6133 17.9814C65.7819 18.1637 65.9391 18.3665 66.085 18.5898C66.1807 18.7402 66.2673 18.877 66.3447 19C66.4222 19.123 66.486 19.2324 66.5361 19.3281V15.5205H61.0332L60.0283 14.4951H68.293L69.3457 15.5205H67.5479ZM72.4355 15.5205L71.4307 14.4951H81.2197L82.2998 15.5205H72.4355ZM81.0625 19.5605C81.0625 19.8385 81.0283 20.1051 80.96 20.3604C80.8962 20.6156 80.805 20.8571 80.6865 21.085C80.5817 21.2809 80.4495 21.4678 80.29 21.6455C80.1305 21.8232 79.9414 21.9919 79.7227 22.1514L79.0596 22.4932L78.6494 22.6504C78.5264 22.6823 78.2461 22.6982 77.8086 22.6982C77.4076 22.6982 76.9974 22.6071 76.5781 22.4248C76.4141 22.3428 76.2682 22.2653 76.1406 22.1924C76.013 22.1195 75.8968 22.0397 75.792 21.9531L75.4912 21.6455L74.9443 20.9756L74.3223 19.9707L74.0967 19.5537L73.96 19.2393L73.167 17.2705C73.0485 16.9788 72.9141 16.4639 72.7637 15.7256L73.4609 16.0127L73.8438 16.9424L74.5273 18.3643L75.1221 19.3691L75.1152 19.3623L75.5801 19.998C75.7715 20.2669 75.9538 20.4629 76.127 20.5859L76.6191 20.9619L77.1387 21.1396L77.624 21.2012L78.1367 21.1533L78.5605 21.0439H78.5537C78.6904 20.9938 78.8363 20.9186 78.9912 20.8184C79.1507 20.7135 79.3216 20.5768 79.5039 20.4082C79.5495 20.3717 79.5928 20.3216 79.6338 20.2578C79.6794 20.1895 79.7272 20.112 79.7773 20.0254V20.0322L79.9893 19.6357C80.0394 19.54 80.0736 19.4398 80.0918 19.335C80.1146 19.2301 80.126 19.1276 80.126 19.0273V18.8564C80.126 18.7744 80.1169 18.7061 80.0986 18.6514C80.0986 18.5602 80.0553 18.4212 79.9688 18.2344C79.9323 18.1523 79.8822 18.068 79.8184 17.9814C79.7546 17.8903 79.6862 17.806 79.6133 17.7285L79.4082 17.5781L79.1416 17.3936C79.1051 17.3844 79.0596 17.3753 79.0049 17.3662C78.9548 17.3525 78.8978 17.3411 78.834 17.332C78.6927 17.332 78.5674 17.3457 78.458 17.373C78.6266 17.6419 78.7109 17.9336 78.7109 18.248C78.7109 18.5352 78.6335 18.7881 78.4785 19.0068C78.3281 19.221 78.0957 19.3714 77.7812 19.458L77.5078 19.5059L77.2207 19.5195C77.0156 19.5195 76.8311 19.4762 76.667 19.3896C76.5029 19.3031 76.348 19.1732 76.2021 19C76.0654 18.8177 75.9561 18.5374 75.874 18.1592L75.8398 17.8311C75.8398 17.4984 75.9333 17.1976 76.1201 16.9287L76.4072 16.6074C76.5895 16.4251 76.8083 16.2861 77.0635 16.1904C77.3187 16.0902 77.583 16.04 77.8564 16.04L78.2461 16.0742L78.6289 16.1357C79.3125 16.2998 79.8799 16.6917 80.3311 17.3115L80.707 17.9883L80.9053 18.5146C81.0101 18.8929 81.0625 19.2415 81.0625 19.5605ZM85.8408 15.5205H83.8789V24.2158L82.9014 23.1904V17.0176C82.9014 16.8717 82.8877 16.7578 82.8604 16.6758C82.8285 16.4844 82.7715 16.3294 82.6895 16.2109C82.6257 16.1243 82.5527 16.0423 82.4707 15.9648C82.3887 15.8828 82.2907 15.8031 82.1768 15.7256C81.9535 15.5798 81.7256 15.5068 81.4932 15.5068L81.2471 15.5205L80.2012 14.4951H80.7686L81.0898 14.4746H81.3428C81.7119 14.4974 81.9717 14.5475 82.1221 14.625C82.2041 14.666 82.2747 14.707 82.334 14.748C82.3978 14.7845 82.4525 14.8255 82.498 14.8711L82.4844 14.8643C82.6712 15.0101 82.8558 15.279 83.0381 15.6709L83.0859 15.7734L82.9629 14.8643L82.9014 13.873V13.5039C82.9014 13.4447 82.8923 13.3604 82.874 13.251C82.8604 13.1416 82.8398 13.0186 82.8125 12.8818L83.3867 13.3398L83.4619 13.7979L83.5098 14.0371L83.585 14.208L83.7627 14.4336L83.8242 14.4951H84.8223L85.8408 15.5205ZM92.2188 12.7588C92.0866 12.6403 91.9316 12.5332 91.7539 12.4375C91.5762 12.3372 91.3711 12.2507 91.1387 12.1777C90.6784 12.0182 90.332 11.9225 90.0996 11.8906H90.1064L89.4502 11.8428C89.1995 11.8428 88.9284 11.8747 88.6367 11.9385C88.5091 11.9567 88.3861 11.9886 88.2676 12.0342C88.1491 12.0798 88.0306 12.1436 87.9121 12.2256C87.6842 12.3669 87.5635 12.4512 87.5498 12.4785L87.1738 12.9297L87.1807 12.9229L86.8047 13.4971V13.4902C86.7591 13.5677 86.7227 13.6429 86.6953 13.7158C86.6725 13.7842 86.6543 13.8434 86.6406 13.8936C86.6862 14.0029 86.7318 14.1032 86.7773 14.1943C86.8229 14.2809 86.8708 14.3812 86.9209 14.4951H88.3701L89.2178 15.5205H87.2217V24.0586L86.1895 23.1631L86.2031 15.5205H85.0615L84.043 14.4951H86.1621L85.5879 13.9004V13.9072C85.4967 13.8161 85.4512 13.668 85.4512 13.4629C85.4512 13.2806 85.474 13.1348 85.5195 13.0254V13.0322L85.6357 12.7246L86.0801 12.0342C86.2168 11.8337 86.3057 11.7129 86.3467 11.6719C86.611 11.4486 87.0166 11.207 87.5635 10.9473C87.8643 10.8105 88.238 10.7422 88.6846 10.7422C88.999 10.7422 89.3158 10.7741 89.6348 10.8379C89.9583 10.9017 90.3161 11.0133 90.708 11.1729L91.4258 11.4873C91.5488 11.5374 91.665 11.5921 91.7744 11.6514C91.8838 11.7106 91.9909 11.779 92.0957 11.8564L92.082 11.8496C92.3874 12.0365 92.7839 12.3577 93.2715 12.8135L93.5723 13.1416L93.873 13.9893L92.2188 12.7588ZM94.7754 15.5205V23.9561L94.29 23.4844L93.5381 22.0967C93.4834 21.9782 93.4014 21.8506 93.292 21.7139C93.1826 21.5771 93.055 21.4359 92.9092 21.29C92.7816 21.1715 92.6517 21.0599 92.5195 20.9551C92.3874 20.8457 92.2507 20.7454 92.1094 20.6543H92.1162L91.3643 20.2646L91.3711 20.2715C91.1615 20.1803 90.945 20.1097 90.7217 20.0596C90.5029 20.0094 90.2705 19.9844 90.0244 19.9844L88.8691 18.3984L89.915 17.6943L90.4414 17.3799L90.9678 17.0996L92.3623 16.4229L93.7705 15.8896V15.5205H88.3291L87.3242 14.4951H95.3564L96.4023 15.5205H94.7754ZM92.3145 22.6572C92.1367 22.9762 91.8906 23.1357 91.5762 23.1357C91.4622 23.1357 91.346 23.113 91.2275 23.0674C91.1136 23.0173 91.0088 22.9512 90.9131 22.8691C90.8174 22.7826 90.7399 22.68 90.6807 22.5615C90.6214 22.4385 90.5918 22.3018 90.5918 22.1514C90.5918 22.0602 90.6032 21.9782 90.626 21.9053C90.6533 21.8278 90.6921 21.7503 90.7422 21.6729C90.9199 21.3949 91.166 21.2559 91.4805 21.2559C91.5944 21.2559 91.7083 21.2809 91.8223 21.3311C91.9362 21.3766 92.0387 21.4404 92.1299 21.5225C92.2256 21.6045 92.3008 21.7025 92.3555 21.8164C92.4147 21.9303 92.4443 22.0511 92.4443 22.1787C92.4443 22.2516 92.4398 22.3063 92.4307 22.3428C92.4261 22.3792 92.417 22.4157 92.4033 22.4521L92.3145 22.6572ZM93.415 20.8047C93.5199 20.9323 93.6042 21.0439 93.668 21.1396L93.7705 21.3242V17.2979C93.693 17.3206 93.6156 17.3457 93.5381 17.373C93.4652 17.3958 93.39 17.4163 93.3125 17.4346H93.3193L92.957 17.5918C92.8112 17.6647 92.6654 17.7376 92.5195 17.8105C92.3737 17.8789 92.2301 17.9495 92.0889 18.0225H92.0957L91.3779 18.46L91.3848 18.4531L90.8926 18.8154L91.1729 18.9316C91.2503 18.9681 91.3164 19 91.3711 19.0273C91.4258 19.0501 91.4736 19.0729 91.5146 19.0957C91.5602 19.1185 91.6012 19.1458 91.6377 19.1777C91.6787 19.2051 91.7266 19.2393 91.7812 19.2803L92.2256 19.6084L92.7246 20.0527L93.415 20.8047ZM102.842 15.5205V23.9219L102.452 23.5186L102.295 23.2246L102.151 22.9443L102.035 22.6436L101.796 22.165V22.1719L101.604 21.8574L101.611 21.8643L101.283 21.4404L101.29 21.4473C101.208 21.3561 101.103 21.2581 100.976 21.1533C100.853 21.0439 100.732 20.946 100.613 20.8594C100.244 20.6406 99.8454 20.4561 99.417 20.3057C98.9886 20.1507 98.5648 20.0413 98.1455 19.9775L96.6143 18.084L97.5371 18.1592L98.1182 18.1182C98.2184 18.0954 98.321 18.0726 98.4258 18.0498C98.5352 18.027 98.6377 18.0042 98.7334 17.9814L98.7266 17.9883C98.9772 17.9154 99.2096 17.8197 99.4238 17.7012C99.638 17.5827 99.8271 17.4505 99.9912 17.3047C100.087 17.2044 100.164 17.1019 100.224 16.9971C100.283 16.8877 100.312 16.7897 100.312 16.7031C100.312 16.5573 100.287 16.432 100.237 16.3271C100.192 16.2223 100.117 16.1243 100.012 16.0332L99.3691 16.6484L98.8633 16.9219L98.1865 17.1611C97.8584 17.2568 97.5986 17.3047 97.4072 17.3047C97.234 17.3047 97.07 17.2796 96.915 17.2295C96.7646 17.1748 96.6302 17.1019 96.5117 17.0107C96.3978 16.915 96.3066 16.8011 96.2383 16.6689C96.1699 16.5368 96.1357 16.391 96.1357 16.2314L96.1494 15.8008C96.1585 15.7552 96.179 15.7051 96.2109 15.6504C96.2428 15.5957 96.2839 15.5365 96.334 15.4727C96.5208 15.2311 96.7646 15.1104 97.0654 15.1104C97.3799 15.1104 97.626 15.2083 97.8037 15.4043C97.8402 15.459 97.8721 15.5205 97.8994 15.5889C97.9268 15.6572 97.945 15.7347 97.9541 15.8213C98.0179 15.8076 98.0771 15.7939 98.1318 15.7803C98.1865 15.7666 98.2321 15.7507 98.2686 15.7324L98.9932 15.1035L99.6016 14.5293L100.176 15.0215L100.661 15.4453C100.725 15.5228 100.802 15.6299 100.894 15.7666C100.989 15.8988 101.094 16.0605 101.208 16.252C101.258 16.3659 101.297 16.4775 101.324 16.5869C101.356 16.6963 101.372 16.8125 101.372 16.9355C101.372 17.25 101.29 17.5622 101.126 17.8721C100.966 18.182 100.695 18.4736 100.312 18.7471L99.8887 19.0068L99.7041 19.0752L100.053 19.2598L100.552 19.6152C100.698 19.7337 100.846 19.8636 100.996 20.0049C101.151 20.1462 101.306 20.3011 101.461 20.4697C101.538 20.5609 101.607 20.6475 101.666 20.7295C101.73 20.8115 101.789 20.8913 101.844 20.9688V12.9297L102.507 13.3535L102.541 13.9072L102.644 14.4062C102.657 14.4154 102.678 14.429 102.705 14.4473C102.732 14.4609 102.767 14.4769 102.808 14.4951H103.792L104.694 15.5205H102.842ZM108.194 18.2549C108.099 18.3506 108.01 18.4303 107.928 18.4941C107.846 18.5579 107.764 18.6081 107.682 18.6445L107.34 18.7676L107.039 18.8018C106.538 18.8018 106.091 18.5785 105.699 18.1318C105.508 17.8994 105.362 17.6602 105.262 17.4141C105.161 17.168 105.111 16.9014 105.111 16.6143C105.111 16.5277 105.111 16.4548 105.111 16.3955C105.111 16.3317 105.116 16.2747 105.125 16.2246C105.139 16.1699 105.157 16.1152 105.18 16.0605C105.202 16.0013 105.234 15.9307 105.275 15.8486C105.316 15.7575 105.38 15.6686 105.467 15.582C105.553 15.4954 105.654 15.402 105.768 15.3018C106.146 15.0192 106.533 14.8779 106.93 14.8779C107.413 14.8779 107.846 15.0739 108.229 15.4658V15.459C108.602 15.8372 108.789 16.2884 108.789 16.8125C108.789 17.332 108.591 17.8105 108.194 18.248V18.2549ZM108.133 23.0264C108.069 23.1038 107.994 23.1722 107.907 23.2314C107.821 23.2907 107.725 23.3522 107.62 23.416C107.529 23.4525 107.433 23.4821 107.333 23.5049C107.237 23.5322 107.135 23.555 107.025 23.5732C106.779 23.5732 106.547 23.5163 106.328 23.4023C106.109 23.293 105.9 23.1198 105.699 22.8828C105.33 22.4316 105.146 21.9258 105.146 21.3652C105.146 21.0918 105.198 20.8389 105.303 20.6064C105.408 20.374 105.576 20.1644 105.809 19.9775C105.973 19.8545 106.153 19.7565 106.349 19.6836C106.545 19.6061 106.743 19.5674 106.943 19.5674C107.422 19.5674 107.843 19.7633 108.208 20.1553C108.381 20.3558 108.513 20.57 108.604 20.7979C108.696 21.0212 108.741 21.2627 108.741 21.5225C108.741 21.6182 108.739 21.7002 108.734 21.7686C108.734 21.8369 108.73 21.8984 108.721 21.9531C108.712 22.0078 108.698 22.0625 108.68 22.1172C108.661 22.1673 108.636 22.2266 108.604 22.2949V22.2881C108.509 22.5251 108.349 22.7712 108.126 23.0264H108.133ZM107.244 17.5303C107.663 17.2295 107.873 16.9606 107.873 16.7236C107.873 16.6416 107.848 16.5687 107.798 16.5049C107.748 16.4411 107.679 16.3887 107.593 16.3477C107.511 16.3021 107.415 16.2679 107.306 16.2451C107.201 16.2178 107.091 16.2041 106.978 16.2041C106.727 16.2041 106.54 16.2588 106.417 16.3682C106.153 16.5732 106.021 16.8945 106.021 17.332C106.021 17.487 106.05 17.61 106.109 17.7012C106.169 17.7878 106.276 17.8447 106.431 17.8721C106.649 17.8721 106.921 17.7581 107.244 17.5303ZM107.312 22.3223L107.299 22.3359C107.472 22.1947 107.602 22.0511 107.688 21.9053C107.78 21.7594 107.841 21.6113 107.873 21.4609C107.868 21.3652 107.832 21.2786 107.764 21.2012C107.7 21.1191 107.616 21.0508 107.511 20.9961C107.41 20.9368 107.297 20.8936 107.169 20.8662C107.046 20.8343 106.925 20.8184 106.807 20.8184C106.72 20.8184 106.638 20.8275 106.561 20.8457C106.483 20.8594 106.412 20.8913 106.349 20.9414L106.362 20.9346C106.299 21.0075 106.216 21.1419 106.116 21.3379V21.3242C106.062 21.5111 106.034 21.707 106.034 21.9121C106.034 22.0169 106.043 22.1172 106.062 22.2129C106.084 22.304 106.116 22.3883 106.157 22.4658C106.198 22.5387 106.248 22.598 106.308 22.6436C106.371 22.6846 106.444 22.7051 106.526 22.7051C106.649 22.7051 106.754 22.6823 106.841 22.6367L107.312 22.3223Z" fill="#263A9B"/>
<path d="M23.7783 33.8369C23.71 34.3805 23.4268 34.8753 22.9287 35.3213C22.4176 35.764 21.8691 35.9854 21.2832 35.9854C20.554 35.9854 19.973 35.6745 19.54 35.0527C19.1982 34.5124 19.0273 33.9134 19.0273 33.2559L19.0615 32.8359C19.1071 32.5625 19.1966 32.3102 19.3301 32.0791C19.4668 31.848 19.6523 31.6348 19.8867 31.4395C20.3587 31.0456 20.8763 30.8486 21.4395 30.8486C21.5599 30.8486 21.6885 30.8617 21.8252 30.8877C21.9619 30.9105 22.1035 30.9495 22.25 31.0049C22.5039 31.0993 22.7301 31.2311 22.9287 31.4004C23.1305 31.5697 23.2998 31.7812 23.4365 32.0352C23.5537 32.2565 23.6432 32.4876 23.7051 32.7285C23.7702 32.9694 23.8027 33.2135 23.8027 33.4609V33.6514L23.7783 33.8369ZM22.9482 32.8799C22.9482 32.6911 22.9255 32.5267 22.8799 32.3867C22.8343 32.2467 22.7627 32.1247 22.665 32.0205C22.5316 31.8675 22.3314 31.7601 22.0645 31.6982C22.0254 31.695 21.988 31.6917 21.9521 31.6885C21.9163 31.682 21.8805 31.6771 21.8447 31.6738C21.6917 31.6738 21.5387 31.6999 21.3857 31.752C21.236 31.804 21.083 31.8822 20.9268 31.9863C20.5882 32.1979 20.3473 32.4453 20.2041 32.7285L20.209 32.7236L19.9355 33.3193V33.3096C19.8932 33.4528 19.8639 33.5781 19.8477 33.6855C19.8346 33.793 19.8281 33.8841 19.8281 33.959C19.8281 34.0534 19.8346 34.1429 19.8477 34.2275C19.8607 34.3089 19.8851 34.3903 19.9209 34.4717C19.96 34.5531 20.012 34.6328 20.0771 34.7109C20.1423 34.7891 20.2269 34.8704 20.3311 34.9551L20.3262 34.9502C20.4173 35.0055 20.5101 35.0479 20.6045 35.0771C20.6989 35.1064 20.7982 35.1211 20.9023 35.1211C21.3223 35.1211 21.7438 34.9372 22.167 34.5693C22.6032 34.182 22.8555 33.7409 22.9238 33.2461L22.9482 32.8799ZM30.4385 32.4844C30.3929 32.6243 30.3099 32.7464 30.1895 32.8506C30.0723 32.9548 29.916 33.0394 29.7207 33.1045L29.0908 33.1436C28.8337 33.1436 28.6921 33.1712 28.666 33.2266L28.7002 33.3291L28.6904 33.3145C28.8141 33.5781 28.876 33.8239 28.876 34.0518C28.876 34.2894 28.8223 34.5254 28.7148 34.7598C28.6074 34.9909 28.4544 35.209 28.2559 35.4141C28.0573 35.6257 27.8197 35.8112 27.543 35.9707C27.2695 36.1302 26.9603 36.2588 26.6152 36.3564C26.4622 36.3792 26.2474 36.2669 25.9707 36.0195C25.707 35.7689 25.5199 35.4938 25.4092 35.1943V31.3955C25.3343 31.389 25.2578 31.376 25.1797 31.3564C25.1016 31.3337 25.0332 31.3011 24.9746 31.2588C24.8216 31.1351 24.7451 30.9609 24.7451 30.7363C24.7451 30.5312 24.7972 30.3669 24.9014 30.2432C25.0055 30.1195 25.1488 30.0576 25.3311 30.0576C25.4222 30.0576 25.5117 30.0739 25.5996 30.1064C25.6875 30.139 25.7689 30.1846 25.8438 30.2432C25.9186 30.3018 25.9821 30.3717 26.0342 30.4531C26.0895 30.5345 26.127 30.624 26.1465 30.7217L26.21 31.3516V32.5625C26.2783 32.4941 26.3613 32.4274 26.459 32.3623H26.4541C26.555 32.2874 26.6494 32.2288 26.7373 32.1865C26.8252 32.1442 26.9066 32.1117 26.9814 32.0889L27.2744 32.0645C27.4535 32.0645 27.6195 32.1149 27.7725 32.2158H27.7676C27.849 32.2549 27.932 32.3184 28.0166 32.4062C28.1045 32.4941 28.2054 32.613 28.3193 32.7627C28.3356 32.7725 28.3405 32.7757 28.334 32.7725C28.3275 32.766 28.3324 32.7692 28.3486 32.7822L28.3682 32.7236C28.3877 32.6553 28.4349 32.582 28.5098 32.5039C28.5911 32.377 28.7051 32.2793 28.8516 32.2109C29.0013 32.1426 29.1836 32.1084 29.3984 32.1084C29.6979 32.1084 29.9046 32.0758 30.0186 32.0107C30.0544 31.9521 30.0902 31.8887 30.126 31.8203C30.165 31.7487 30.2025 31.6852 30.2383 31.6299L30.4336 31.6982L30.4678 31.8887L30.4775 32.123L30.4678 32.2695L30.4385 32.4844ZM27.8506 33.4951C27.8473 33.3714 27.7546 33.2461 27.5723 33.1191H27.5771C27.5088 33.0833 27.4355 33.0573 27.3574 33.041C27.2826 33.0215 27.2077 33.0117 27.1328 33.0117C26.9798 33.0117 26.887 33.0199 26.8545 33.0361C26.7926 33.0361 26.7113 33.0589 26.6104 33.1045C26.5452 33.124 26.4801 33.1517 26.415 33.1875C26.3499 33.2201 26.2783 33.2624 26.2002 33.3145C26.2002 33.6465 26.2018 33.9704 26.2051 34.2861C26.2083 34.6019 26.21 34.9242 26.21 35.2529L26.2734 35.4531L26.3125 35.5215C26.6608 35.502 27.071 35.1715 27.543 34.5303L27.5381 34.5352C27.5804 34.4701 27.6195 34.4001 27.6553 34.3252C27.6911 34.2503 27.7236 34.1706 27.7529 34.0859C27.779 34.0013 27.7985 33.9199 27.8115 33.8418C27.8245 33.7637 27.8311 33.6969 27.8311 33.6416L27.8506 33.4951ZM36.0293 28.9199H36.7178L34.3643 36.3516H33.6855L36.0293 28.9199ZM39.7598 36.4736L39.4619 36.6055C39.2894 36.6445 39.1217 36.6641 38.959 36.6641C38.8027 36.6641 38.6562 36.6396 38.5195 36.5908L38.3242 36.4785V36.4834C38.2493 36.4476 38.181 36.4036 38.1191 36.3516C38.0573 36.3027 37.9954 36.2425 37.9336 36.1709C37.8978 36.1058 37.8701 36.0374 37.8506 35.9658C37.8311 35.8942 37.8164 35.8226 37.8066 35.751C37.8066 35.6468 37.8278 35.541 37.8701 35.4336C37.9157 35.3229 37.9775 35.2188 38.0557 35.1211C38.137 35.0202 38.2347 34.9258 38.3486 34.8379C38.4658 34.75 38.596 34.6768 38.7393 34.6182L38.9492 34.584L39.125 34.5742C39.2227 34.5742 39.3268 34.5824 39.4375 34.5986C39.5514 34.6149 39.6621 34.641 39.7695 34.6768C39.877 34.7093 39.9779 34.75 40.0723 34.7988C40.1667 34.8477 40.2464 34.903 40.3115 34.9648L40.502 34.7598C40.5475 34.6784 40.5703 34.5824 40.5703 34.4717C40.5703 34.3252 40.5589 34.1934 40.5361 34.0762C40.5166 33.9557 40.4889 33.8564 40.4531 33.7783L40.2334 33.5049L40.2383 33.5098L39.877 33.0996L39.2715 32.4648L38.4316 31.6787L38.1289 31.3516C37.9727 31.1823 37.8848 31.0374 37.8652 30.917L37.8311 30.6582L37.8457 30.4531L37.9238 30.2432C37.9857 30.126 38.1012 30.0202 38.2705 29.9258H38.2656C38.3372 29.8835 38.4544 29.8493 38.6172 29.8232C38.7572 29.8232 38.8841 29.8704 38.998 29.9648C39.112 30.0592 39.208 30.209 39.2861 30.4141L39.3008 30.5459C39.3008 30.6208 39.2992 30.6842 39.2959 30.7363C39.2926 30.7852 39.2861 30.8226 39.2764 30.8486L39.2617 30.9756C39.3105 31.0212 39.3561 31.0684 39.3984 31.1172C39.444 31.166 39.4928 31.2132 39.5449 31.2588L39.96 31.7031L40.6973 32.5771C40.834 32.7562 40.9495 32.9401 41.0439 33.1289C41.1416 33.3177 41.2214 33.5114 41.2832 33.71L41.3516 33.998L41.3662 34.3545C41.3662 34.7907 41.2425 35.1829 40.9951 35.5312C40.7803 35.8145 40.4629 36.0814 40.043 36.332L39.7598 36.4736ZM44.7305 36.4736L44.4326 36.6055C44.2601 36.6445 44.0924 36.6641 43.9297 36.6641C43.7734 36.6641 43.627 36.6396 43.4902 36.5908L43.2949 36.4785V36.4834C43.2201 36.4476 43.1517 36.4036 43.0898 36.3516C43.028 36.3027 42.9661 36.2425 42.9043 36.1709C42.8685 36.1058 42.8408 36.0374 42.8213 35.9658C42.8018 35.8942 42.7871 35.8226 42.7773 35.751C42.7773 35.6468 42.7985 35.541 42.8408 35.4336C42.8864 35.3229 42.9482 35.2188 43.0264 35.1211C43.1077 35.0202 43.2054 34.9258 43.3193 34.8379C43.4365 34.75 43.5667 34.6768 43.71 34.6182L43.9199 34.584L44.0957 34.5742C44.1934 34.5742 44.2975 34.5824 44.4082 34.5986C44.5221 34.6149 44.6328 34.641 44.7402 34.6768C44.8477 34.7093 44.9486 34.75 45.043 34.7988C45.1374 34.8477 45.2171 34.903 45.2822 34.9648L45.4727 34.7598C45.5182 34.6784 45.541 34.5824 45.541 34.4717C45.541 34.3252 45.5296 34.1934 45.5068 34.0762C45.4873 33.9557 45.4596 33.8564 45.4238 33.7783L45.2041 33.5049L45.209 33.5098L44.8477 33.0996L44.2422 32.4648L43.4023 31.6787L43.0996 31.3516C42.9434 31.1823 42.8555 31.0374 42.8359 30.917L42.8018 30.6582L42.8164 30.4531L42.8945 30.2432C42.9564 30.126 43.0719 30.0202 43.2412 29.9258H43.2363C43.3079 29.8835 43.4251 29.8493 43.5879 29.8232C43.7279 29.8232 43.8548 29.8704 43.9688 29.9648C44.0827 30.0592 44.1787 30.209 44.2568 30.4141L44.2715 30.5459C44.2715 30.6208 44.2699 30.6842 44.2666 30.7363C44.2633 30.7852 44.2568 30.8226 44.2471 30.8486L44.2324 30.9756C44.2812 31.0212 44.3268 31.0684 44.3691 31.1172C44.4147 31.166 44.4635 31.2132 44.5156 31.2588L44.9307 31.7031L45.668 32.5771C45.8047 32.7562 45.9202 32.9401 46.0146 33.1289C46.1123 33.3177 46.1921 33.5114 46.2539 33.71L46.3223 33.998L46.3369 34.3545C46.3369 34.7907 46.2132 35.1829 45.9658 35.5312C45.751 35.8145 45.4336 36.0814 45.0137 36.332L44.7305 36.4736ZM49.4375 28.9199H50.126L47.7725 36.3516H47.0938L49.4375 28.9199ZM55.5312 37.1035L55.3262 36.9033L55.3408 36.9082C55.3245 36.8984 55.3083 36.887 55.292 36.874C55.279 36.8643 55.266 36.8529 55.2529 36.8398L55.2627 36.8447L55.1113 36.7324C54.9876 36.6413 54.8395 36.5355 54.667 36.415C54.4945 36.2979 54.3057 36.1774 54.1006 36.0537C53.9769 35.9756 53.8581 35.9023 53.7441 35.834C53.6302 35.7624 53.5179 35.6973 53.4072 35.6387C53.2965 35.5768 53.1859 35.5182 53.0752 35.4629C52.9678 35.4076 52.8571 35.3522 52.7432 35.2969C52.5576 35.2122 52.3477 35.1341 52.1133 35.0625C51.8789 34.9876 51.6217 34.9193 51.3418 34.8574L50.7607 32.8359L50.8975 32.8164C50.8975 32.8457 50.9186 32.8815 50.9609 32.9238H50.9561L51.1416 33.0996L51.1367 33.0947C51.2539 33.1859 51.3988 33.2754 51.5713 33.3633C51.7438 33.4512 51.9505 33.5374 52.1914 33.6221L52.7627 33.8076L52.7529 33.8027C52.7887 33.8092 52.8197 33.8141 52.8457 33.8174C52.875 33.8206 52.8978 33.8255 52.9141 33.832H52.9092C52.9515 33.8418 52.9873 33.8499 53.0166 33.8564C53.0459 33.8597 53.0882 33.8613 53.1436 33.8613C53.2217 33.8613 53.2949 33.8597 53.3633 33.8564C53.4349 33.8499 53.4984 33.8402 53.5537 33.8271L53.915 33.6904H53.9102C54.2259 33.5439 54.3838 33.3633 54.3838 33.1484C54.3838 33.1224 54.3773 33.0947 54.3643 33.0654C54.3545 33.0329 54.3415 32.9971 54.3252 32.958C54.2438 32.766 54.1217 32.5885 53.959 32.4258C53.7962 32.263 53.5928 32.1165 53.3486 31.9863L53.3535 31.9912L52.2402 31.5029C51.8561 31.2946 51.6641 31.0195 51.6641 30.6777C51.6641 30.6159 51.6689 30.5459 51.6787 30.4678C51.6917 30.3896 51.7113 30.3018 51.7373 30.2041L51.9229 30.0625C51.9945 30.0169 52.0628 29.986 52.1279 29.9697C52.1963 29.9502 52.2598 29.9404 52.3184 29.9404C52.3477 29.9404 52.3737 29.9421 52.3965 29.9453C52.4225 29.9486 52.4453 29.9535 52.4648 29.96C52.4941 29.9632 52.5251 29.9681 52.5576 29.9746C52.5902 29.9779 52.6195 29.9811 52.6455 29.9844C52.7497 30.0202 52.8311 30.0853 52.8896 30.1797C52.9515 30.2708 52.9922 30.4027 53.0117 30.5752L53.0752 30.5947L53.2168 30.6484C53.3307 30.694 53.4495 30.7542 53.5732 30.8291C53.6969 30.9007 53.8385 31.0033 53.998 31.1367H53.9932L54.3691 31.4395C54.8249 31.8366 55.0527 32.3281 55.0527 32.9141L55.0283 33.1729C55.0023 33.3714 54.9697 33.5326 54.9307 33.6562C54.8916 33.7767 54.8314 33.889 54.75 33.9932C54.6979 34.0485 54.623 34.1217 54.5254 34.2129C54.431 34.3008 54.3008 34.4066 54.1348 34.5303L53.8369 34.6816L53.5439 34.7793C53.6579 34.8444 53.7783 34.9242 53.9053 35.0186C54.0355 35.1097 54.1706 35.2122 54.3105 35.3262L54.8574 35.7412L55.1943 36L55.3994 36.1953L55.9561 36.7178L56.1514 37.7188L55.5312 37.1035ZM61.415 33.8369C61.3467 34.3805 61.0635 34.8753 60.5654 35.3213C60.0544 35.764 59.5059 35.9854 58.9199 35.9854C58.1908 35.9854 57.6097 35.6745 57.1768 35.0527C56.835 34.5124 56.6641 33.9134 56.6641 33.2559L56.6982 32.8359C56.7438 32.5625 56.8333 32.3102 56.9668 32.0791C57.1035 31.848 57.2891 31.6348 57.5234 31.4395C57.9954 31.0456 58.513 30.8486 59.0762 30.8486C59.1966 30.8486 59.3252 30.8617 59.4619 30.8877C59.5986 30.9105 59.7402 30.9495 59.8867 31.0049C60.1406 31.0993 60.3669 31.2311 60.5654 31.4004C60.7673 31.5697 60.9365 31.7812 61.0732 32.0352C61.1904 32.2565 61.2799 32.4876 61.3418 32.7285C61.4069 32.9694 61.4395 33.2135 61.4395 33.4609V33.6514L61.415 33.8369ZM60.585 32.8799C60.585 32.6911 60.5622 32.5267 60.5166 32.3867C60.471 32.2467 60.3994 32.1247 60.3018 32.0205C60.1683 31.8675 59.9681 31.7601 59.7012 31.6982C59.6621 31.695 59.6247 31.6917 59.5889 31.6885C59.5531 31.682 59.5173 31.6771 59.4814 31.6738C59.3285 31.6738 59.1755 31.6999 59.0225 31.752C58.8727 31.804 58.7197 31.8822 58.5635 31.9863C58.2249 32.1979 57.984 32.4453 57.8408 32.7285L57.8457 32.7236L57.5723 33.3193V33.3096C57.5299 33.4528 57.5007 33.5781 57.4844 33.6855C57.4714 33.793 57.4648 33.8841 57.4648 33.959C57.4648 34.0534 57.4714 34.1429 57.4844 34.2275C57.4974 34.3089 57.5218 34.3903 57.5576 34.4717C57.5967 34.5531 57.6488 34.6328 57.7139 34.7109C57.779 34.7891 57.8636 34.8704 57.9678 34.9551L57.9629 34.9502C58.054 35.0055 58.1468 35.0479 58.2412 35.0771C58.3356 35.1064 58.4349 35.1211 58.5391 35.1211C58.959 35.1211 59.3805 34.9372 59.8037 34.5693C60.2399 34.182 60.4922 33.7409 60.5605 33.2461L60.585 32.8799ZM67.2988 37.1035L67.0938 36.9033L67.1084 36.9082C67.0921 36.8984 67.0758 36.887 67.0596 36.874C67.0465 36.8643 67.0335 36.8529 67.0205 36.8398L67.0303 36.8447L66.8789 36.7324C66.7552 36.6413 66.6071 36.5355 66.4346 36.415C66.262 36.2979 66.0732 36.1774 65.8682 36.0537C65.7445 35.9756 65.6257 35.9023 65.5117 35.834C65.3978 35.7624 65.2855 35.6973 65.1748 35.6387C65.0641 35.5768 64.9535 35.5182 64.8428 35.4629C64.7354 35.4076 64.6247 35.3522 64.5107 35.2969C64.3252 35.2122 64.1152 35.1341 63.8809 35.0625C63.6465 34.9876 63.3893 34.9193 63.1094 34.8574L62.5283 32.8359L62.665 32.8164C62.665 32.8457 62.6862 32.8815 62.7285 32.9238H62.7236L62.9092 33.0996L62.9043 33.0947C63.0215 33.1859 63.1663 33.2754 63.3389 33.3633C63.5114 33.4512 63.7181 33.5374 63.959 33.6221L64.5303 33.8076L64.5205 33.8027C64.5563 33.8092 64.5872 33.8141 64.6133 33.8174C64.6426 33.8206 64.6654 33.8255 64.6816 33.832H64.6768C64.7191 33.8418 64.7549 33.8499 64.7842 33.8564C64.8135 33.8597 64.8558 33.8613 64.9111 33.8613C64.9893 33.8613 65.0625 33.8597 65.1309 33.8564C65.2025 33.8499 65.266 33.8402 65.3213 33.8271L65.6826 33.6904H65.6777C65.9935 33.5439 66.1514 33.3633 66.1514 33.1484C66.1514 33.1224 66.1449 33.0947 66.1318 33.0654C66.1221 33.0329 66.109 32.9971 66.0928 32.958C66.0114 32.766 65.8893 32.5885 65.7266 32.4258C65.5638 32.263 65.3604 32.1165 65.1162 31.9863L65.1211 31.9912L64.0078 31.5029C63.6237 31.2946 63.4316 31.0195 63.4316 30.6777C63.4316 30.6159 63.4365 30.5459 63.4463 30.4678C63.4593 30.3896 63.4788 30.3018 63.5049 30.2041L63.6904 30.0625C63.762 30.0169 63.8304 29.986 63.8955 29.9697C63.9639 29.9502 64.0273 29.9404 64.0859 29.9404C64.1152 29.9404 64.1413 29.9421 64.1641 29.9453C64.1901 29.9486 64.2129 29.9535 64.2324 29.96C64.2617 29.9632 64.2926 29.9681 64.3252 29.9746C64.3577 29.9779 64.387 29.9811 64.4131 29.9844C64.5173 30.0202 64.5986 30.0853 64.6572 30.1797C64.7191 30.2708 64.7598 30.4027 64.7793 30.5752L64.8428 30.5947L64.9844 30.6484C65.0983 30.694 65.2171 30.7542 65.3408 30.8291C65.4645 30.9007 65.6061 31.0033 65.7656 31.1367H65.7607L66.1367 31.4395C66.5924 31.8366 66.8203 32.3281 66.8203 32.9141L66.7959 33.1729C66.7699 33.3714 66.7373 33.5326 66.6982 33.6562C66.6592 33.7767 66.599 33.889 66.5176 33.9932C66.4655 34.0485 66.3906 34.1217 66.293 34.2129C66.1986 34.3008 66.0684 34.4066 65.9023 34.5303L65.6045 34.6816L65.3115 34.7793C65.4255 34.8444 65.5459 34.9242 65.6729 35.0186C65.8031 35.1097 65.9382 35.2122 66.0781 35.3262L66.625 35.7412L66.9619 36L67.167 36.1953L67.7236 36.7178L67.9189 37.7188L67.2988 37.1035ZM72.7383 34.6035C72.7383 35.1178 72.5039 35.5459 72.0352 35.8877C71.8366 36.0244 71.6152 36.1351 71.3711 36.2197C71.1302 36.3044 70.8568 36.3662 70.5508 36.4053L70.3262 36.415C69.763 36.415 69.2715 36.2214 68.8516 35.834C68.4935 35.4857 68.3145 35.1097 68.3145 34.7061C68.3145 34.6475 68.3177 34.5921 68.3242 34.54C68.3307 34.488 68.3454 34.4424 68.3682 34.4033C68.5212 33.9671 68.7979 33.6367 69.1982 33.4121C69.2406 33.3926 69.2878 33.3714 69.3398 33.3486C69.3919 33.3258 69.4456 33.3063 69.501 33.29C69.4554 33.2738 69.4131 33.2559 69.374 33.2363C69.335 33.2135 69.2975 33.1908 69.2617 33.168C69.0273 33.0215 68.8418 32.8376 68.7051 32.6162C68.5684 32.3949 68.5 32.1458 68.5 31.8691C68.5 31.3841 68.7018 30.943 69.1055 30.5459C69.4961 30.152 70.0072 29.9551 70.6387 29.9551L70.7705 29.9453C71.2751 29.9453 71.6982 30.1113 72.04 30.4434C72.359 30.7526 72.5186 31.1058 72.5186 31.5029L72.5039 31.6934C72.4616 31.9635 72.3281 32.2305 72.1035 32.4941C71.9408 32.6764 71.778 32.8132 71.6152 32.9043C71.752 32.9564 71.8757 33.0231 71.9863 33.1045C72.1003 33.1826 72.2044 33.2738 72.2988 33.3779C72.5918 33.6969 72.7383 34.1055 72.7383 34.6035ZM69.6279 30.9902C69.5173 31.0977 69.4619 31.2311 69.4619 31.3906C69.4619 31.6413 69.5791 31.8805 69.8135 32.1084H69.8086C69.9225 32.2093 70.0511 32.2988 70.1943 32.377C70.3408 32.4518 70.502 32.5104 70.6777 32.5527C70.7428 32.5169 70.8063 32.4811 70.8682 32.4453C70.93 32.4095 70.9951 32.3753 71.0635 32.3428L71.0586 32.3477L71.2734 32.2012H71.2686C71.5485 31.9896 71.6885 31.7666 71.6885 31.5322C71.6885 31.402 71.6576 31.2799 71.5957 31.166C71.5339 31.0488 71.4492 30.9479 71.3418 30.8633C71.2376 30.7786 71.1156 30.7119 70.9756 30.6631C70.8356 30.6143 70.6891 30.5898 70.5361 30.5898C70.4385 30.5898 70.3669 30.5931 70.3213 30.5996C70.2757 30.6029 70.2236 30.6159 70.165 30.6387L69.9941 30.6973C69.9355 30.7233 69.8737 30.7591 69.8086 30.8047C69.7467 30.8503 69.6865 30.9105 69.6279 30.9854V30.9902ZM71.7666 34.8135C71.7666 34.5173 71.5534 34.2194 71.127 33.9199L71.1318 33.9248C70.7965 33.7002 70.5605 33.5879 70.4238 33.5879C70.3945 33.5879 70.3831 33.5846 70.3896 33.5781C69.9665 33.8646 69.6784 34.1136 69.5254 34.3252L69.5303 34.3203C69.4456 34.4635 69.4033 34.623 69.4033 34.7988C69.4033 34.9323 69.4408 35.0592 69.5156 35.1797C69.5938 35.3001 69.7256 35.4173 69.9111 35.5312C70.0023 35.5671 70.0999 35.5964 70.2041 35.6191C70.3083 35.6419 70.4157 35.6533 70.5264 35.6533C70.8128 35.6533 71.083 35.585 71.3369 35.4482C71.4508 35.3831 71.5599 35.2578 71.6641 35.0723L71.6592 35.0771L71.7666 34.8135Z" fill="black"/>
<path d="M22.0889 57.6572C22.18 57.6572 22.2734 57.6595 22.3691 57.6641C22.4694 57.6686 22.5674 57.6709 22.6631 57.6709H22.9297L23.2236 57.6914C23.2738 57.696 23.333 57.7074 23.4014 57.7256C23.4697 57.7393 23.5381 57.762 23.6064 57.7939L23.8525 57.8965L24.208 58.1836L24.3721 58.3545L24.4131 58.4092L24.3652 56.3379C24.2559 56.4473 24.151 56.5475 24.0508 56.6387C23.9551 56.7253 23.8594 56.805 23.7637 56.8779C23.668 56.9508 23.5723 57.0192 23.4766 57.083C23.3809 57.1468 23.2783 57.2083 23.1689 57.2676H23.1758C23.0618 57.3405 22.9434 57.402 22.8203 57.4521C22.6973 57.4977 22.5674 57.5319 22.4307 57.5547L22.0137 57.6094H21.8633C21.7904 57.6094 21.7061 57.5911 21.6104 57.5547C21.5146 57.5182 21.4167 57.4681 21.3164 57.4043C21.1979 57.3268 21.0544 57.1764 20.8857 56.9531C20.7809 56.8164 20.6875 56.6729 20.6055 56.5225C20.528 56.3721 20.4688 56.224 20.4277 56.0781L20.3594 55.5859V50.5205H18.4453L17.8301 49.4951H24.5566V49.2695C24.5566 49.151 24.5407 49.0531 24.5088 48.9756C24.4769 48.8936 24.4085 48.8138 24.3037 48.7363L24.3174 48.7432C24.1989 48.6794 24.0622 48.6315 23.9072 48.5996C23.7523 48.5632 23.5951 48.5426 23.4355 48.5381L22.7383 48.5586H22.2666L21.8633 48.6201C21.6901 48.6201 21.5739 48.6315 21.5146 48.6543H21.2754C21.0931 48.6543 20.9085 48.6429 20.7217 48.6201C20.5394 48.5928 20.3617 48.554 20.1885 48.5039C20.0153 48.4492 19.8512 48.3809 19.6963 48.2988C19.5413 48.2122 19.4023 48.1074 19.2793 47.9844C19.1973 47.916 19.1198 47.8317 19.0469 47.7314C18.974 47.6312 18.9102 47.5264 18.8555 47.417C18.8008 47.3076 18.7575 47.196 18.7256 47.082C18.6937 46.9681 18.6777 46.861 18.6777 46.7607C18.6777 46.5511 18.7096 46.387 18.7734 46.2686C18.8053 46.141 18.8646 46.0247 18.9512 45.9199C18.9876 45.8561 19.0651 45.8083 19.1836 45.7764L19.4775 45.667V45.9609L19.5254 46.1387C19.3841 46.2799 19.3135 46.4098 19.3135 46.5283C19.318 46.5648 19.3226 46.599 19.3271 46.6309C19.3363 46.6582 19.3431 46.6901 19.3477 46.7266L19.4092 46.8975C19.4593 46.9385 19.5117 46.9818 19.5664 47.0273C19.6257 47.0729 19.6803 47.1139 19.7305 47.1504L19.71 47.1367L20.0039 47.2666L20.3936 47.3418L20.8311 47.3145L21.3984 47.2803L22.2393 47.2529C22.376 47.2438 22.515 47.2347 22.6562 47.2256C22.7975 47.2165 22.9388 47.2074 23.0801 47.1982C23.668 47.1982 24.1283 47.3122 24.4609 47.54V47.5332C24.6432 47.6426 24.8187 47.7907 24.9873 47.9775C25.1605 48.1644 25.3018 48.3763 25.4111 48.6133C25.4613 48.7682 25.4954 48.9049 25.5137 49.0234C25.5319 49.1374 25.541 49.2354 25.541 49.3174V49.4951H26.3887L26.9834 50.5205H21.3438V55.8936C21.3438 56.0075 21.387 56.1328 21.4736 56.2695C21.5602 56.3424 21.6901 56.3789 21.8633 56.3789C22.0775 56.3789 22.3486 56.2673 22.6768 56.0439C23.0049 55.8206 23.3626 55.472 23.75 54.998C23.8411 54.8659 23.9209 54.7246 23.9893 54.5742C24.0622 54.4238 24.1169 54.2803 24.1533 54.1436C24.1305 54.1481 24.1077 54.1527 24.085 54.1572C24.0667 54.1572 24.0462 54.1572 24.0234 54.1572C23.7454 54.1572 23.472 54.0638 23.2031 53.877C22.9844 53.6947 22.875 53.4486 22.875 53.1387L22.9092 52.8721C23.0094 52.5303 23.1644 52.2887 23.374 52.1475C23.5882 52.0016 23.8252 51.9287 24.085 51.9287C24.1442 51.9287 24.1966 51.931 24.2422 51.9355C24.2923 51.9401 24.3356 51.9492 24.3721 51.9629C24.5407 52.0085 24.7093 52.0951 24.8779 52.2227C25.0465 52.3503 25.1947 52.5098 25.3223 52.7012L25.4932 53.1113L25.5547 53.6855C25.5547 54.0228 25.5296 54.3122 25.4795 54.5537C25.4567 54.6722 25.4339 54.7656 25.4111 54.834C25.3929 54.9023 25.3724 54.9548 25.3496 54.9912V60.3711L24.8438 59.9541L24.4678 59.3457C24.2035 59.0267 23.8617 58.8672 23.4424 58.8672C23.2373 58.8717 23.0299 58.8763 22.8203 58.8809C22.6107 58.89 22.4033 58.8968 22.1982 58.9014L21.3711 58.915C21.2845 58.9196 21.1934 58.9242 21.0977 58.9287C21.0065 58.9378 20.9199 58.9447 20.8379 58.9492C20.6556 58.9492 20.4688 58.9355 20.2773 58.9082C20.0905 58.8854 19.9082 58.849 19.7305 58.7988C19.5573 58.7487 19.3955 58.6872 19.2451 58.6143C19.0947 58.5459 18.9694 58.4639 18.8691 58.3682C18.7643 58.2725 18.6709 58.1631 18.5889 58.04C18.5068 57.917 18.4362 57.7757 18.377 57.6162L18.2471 57.1172L18.1992 56.6523C18.1992 56.543 18.2015 56.4541 18.2061 56.3857C18.2061 56.3174 18.2152 56.265 18.2334 56.2285C18.2334 56.1829 18.2357 56.1374 18.2402 56.0918C18.2448 56.0462 18.2471 56.0029 18.2471 55.9619C18.2471 55.8981 18.2607 55.8275 18.2881 55.75C18.3109 55.668 18.3405 55.5882 18.377 55.5107C18.3906 55.4834 18.4066 55.4515 18.4248 55.415C18.4385 55.3786 18.4544 55.3421 18.4727 55.3057C18.4863 55.2646 18.5 55.2282 18.5137 55.1963C18.5319 55.1598 18.5456 55.1302 18.5547 55.1074L19.0332 55.5859L18.9443 55.9072C18.9398 55.971 18.9329 56.0394 18.9238 56.1123C18.9193 56.1807 18.9147 56.2467 18.9102 56.3105C18.9102 56.4245 18.917 56.5225 18.9307 56.6045C18.9443 56.682 18.9626 56.7503 18.9854 56.8096C19.0947 57.1012 19.3294 57.3086 19.6895 57.4316L19.6758 57.4248L20.4482 57.6094L20.9336 57.6572L21.3643 57.6367L22.0889 57.6572ZM30.5791 50.5205H28.6172V59.2158L27.6396 58.1904V52.0176C27.6396 51.8717 27.626 51.7578 27.5986 51.6758C27.5667 51.4844 27.5098 51.3294 27.4277 51.2109C27.3639 51.1243 27.291 51.0423 27.209 50.9648C27.127 50.8828 27.029 50.8031 26.915 50.7256C26.6917 50.5798 26.4639 50.5068 26.2314 50.5068L25.9854 50.5205L24.9395 49.4951H25.5068L25.8281 49.4746H26.0811C26.4502 49.4974 26.71 49.5475 26.8604 49.625C26.9424 49.666 27.013 49.707 27.0723 49.748C27.1361 49.7845 27.1908 49.8255 27.2363 49.8711L27.2227 49.8643C27.4095 50.0101 27.5941 50.279 27.7764 50.6709L27.8242 50.7734L27.7012 49.8643L27.6396 48.873V48.5039C27.6396 48.4447 27.6305 48.3604 27.6123 48.251C27.5986 48.1416 27.5781 48.0186 27.5508 47.8818L28.125 48.3398L28.2002 48.7979L28.248 49.0371L28.3232 49.208L28.501 49.4336L28.5625 49.4951H29.5605L30.5791 50.5205ZM39.0898 54.8135C38.9167 54.932 38.7572 55.055 38.6113 55.1826C38.4655 55.3102 38.3379 55.4447 38.2285 55.5859L37.9414 55.9688L37.7227 56.3994C37.6725 56.5452 37.6338 56.6979 37.6064 56.8574C37.5791 57.0124 37.5654 57.1628 37.5654 57.3086C37.5654 57.6686 37.5928 57.9443 37.6475 58.1357C37.6566 58.1768 37.6999 58.2656 37.7773 58.4023C37.8548 58.5436 37.9619 58.7236 38.0986 58.9424L37.5176 59.4824L36.9707 58.5391C36.8796 58.3796 36.8089 58.2292 36.7588 58.0879C36.7132 57.9421 36.679 57.8099 36.6562 57.6914L36.6084 57.2061V56.9805L36.6221 56.5088L36.7861 55.6406V55.6543C36.7861 55.6452 36.7884 55.6383 36.793 55.6338C36.7975 55.6292 36.7998 55.6224 36.7998 55.6133C36.8271 55.5176 36.8636 55.4036 36.9092 55.2715C36.9548 55.1348 37.0277 54.9707 37.1279 54.7793L37.1143 54.7998L37.1826 54.54C36.9958 54.5264 36.8066 54.4922 36.6152 54.4375C36.4238 54.3828 36.2484 54.3099 36.0889 54.2188L35.2822 53.6035L34.749 53.0635C34.6032 52.863 34.487 52.6829 34.4004 52.5234L33.9082 53.2002L33.915 53.1865C33.7464 53.5146 33.6211 53.779 33.5391 53.9795C33.4616 54.1755 33.4229 54.3213 33.4229 54.417C33.4229 54.5081 33.4958 54.5537 33.6416 54.5537C33.7282 54.5537 33.8216 54.5378 33.9219 54.5059C34.0221 54.4694 34.1156 54.4193 34.2021 54.3555C34.2887 54.2917 34.3639 54.2188 34.4277 54.1367C34.4961 54.0501 34.5417 53.9544 34.5645 53.8496C34.7012 53.9043 34.8242 53.9567 34.9336 54.0068C35.0475 54.057 35.1478 54.1117 35.2344 54.1709C35.3255 54.2301 35.4076 54.2962 35.4805 54.3691C35.5534 54.4421 35.6217 54.5286 35.6855 54.6289L35.6787 54.6221C35.8245 54.7998 35.9362 55.0345 36.0137 55.3262C36.0957 55.6133 36.1367 55.9482 36.1367 56.3311C36.1367 56.5908 36.1117 56.7936 36.0615 56.9395C36.0479 57.0215 36.0137 57.1104 35.959 57.2061C35.9043 57.2972 35.8382 57.3975 35.7607 57.5068C35.6559 57.6572 35.5374 57.7917 35.4053 57.9102C35.2777 58.0286 35.1318 58.1335 34.9678 58.2246C34.8083 58.2975 34.6374 58.3499 34.4551 58.3818C34.2773 58.4183 34.0951 58.4365 33.9082 58.4365C33.7396 58.4365 33.571 58.4206 33.4023 58.3887C33.2383 58.3613 33.0811 58.3226 32.9307 58.2725H32.9375C32.7051 58.1995 32.4749 58.0674 32.2471 57.876C32.0192 57.6846 31.7936 57.4248 31.5703 57.0967C31.4154 56.8369 31.2718 56.5658 31.1396 56.2832C31.012 56.0007 30.9027 55.6885 30.8115 55.3467L30.5107 53.9863L30.333 52.8105L31.0645 53.3984L31.4336 54.8545L31.4268 54.8408L31.6934 55.4219C31.7799 55.6315 31.8551 55.8001 31.9189 55.9277C31.9873 56.0553 32.0443 56.1442 32.0898 56.1943C32.1673 56.3037 32.2721 56.4131 32.4043 56.5225C32.5365 56.6318 32.7051 56.7458 32.9102 56.8643H32.9033C33.2406 57.0465 33.4912 57.124 33.6553 57.0967C33.833 57.0785 34.0085 57.0374 34.1816 56.9736C34.3548 56.9098 34.5166 56.8187 34.667 56.7002C34.8083 56.5908 34.9176 56.4701 34.9951 56.3379C35.0771 56.2012 35.1227 56.0667 35.1318 55.9346L35.0908 55.709C35.0908 55.6634 35.0498 55.5951 34.9678 55.5039V55.5107C34.9495 55.4925 34.9154 55.4743 34.8652 55.4561C34.8197 55.4333 34.765 55.415 34.7012 55.4014L34.5781 55.4219L34.2021 55.5586L33.9424 55.6406L33.6416 55.6953L33.2793 55.6406C33.2064 55.6178 33.1312 55.5928 33.0537 55.5654C32.9762 55.5335 32.9102 55.4971 32.8555 55.4561C32.8145 55.4333 32.762 55.3809 32.6982 55.2988C32.6344 55.2168 32.5729 55.1165 32.5137 54.998C32.4544 54.8796 32.402 54.7497 32.3564 54.6084C32.3154 54.4626 32.2949 54.3167 32.2949 54.1709C32.2949 53.8245 32.3861 53.4782 32.5684 53.1318L33.0811 52.2773L33.5527 51.5732C33.5983 51.5049 33.6348 51.3796 33.6621 51.1973C33.6667 51.1562 33.6712 51.1152 33.6758 51.0742C33.6849 51.0332 33.6917 50.9899 33.6963 50.9443C33.6963 50.7848 33.6849 50.6846 33.6621 50.6436C33.653 50.6253 33.6439 50.6117 33.6348 50.6025C33.6257 50.5889 33.6074 50.5752 33.5801 50.5615C33.3613 50.5615 33.2155 50.5798 33.1426 50.6162C33.0241 50.6481 32.8372 50.778 32.582 51.0059L32.6299 51.0537C32.7575 51.236 32.8213 51.4798 32.8213 51.7852C32.8213 52.0449 32.7347 52.2523 32.5615 52.4072C32.3929 52.5576 32.1514 52.6693 31.8369 52.7422C31.5635 52.7741 31.3083 52.7194 31.0713 52.5781C30.7842 52.3958 30.6406 52.111 30.6406 51.7236C30.6406 51.2132 30.8981 50.7005 31.4131 50.1855V50.1924C31.9235 49.641 32.484 49.3652 33.0947 49.3652C33.3682 49.3652 33.5938 49.4062 33.7715 49.4883H33.7578C33.8763 49.5247 33.9902 49.5817 34.0996 49.6592C34.209 49.7321 34.3092 49.821 34.4004 49.9258V49.9189C34.4688 49.9873 34.5713 50.1514 34.708 50.4111C34.7354 50.4704 34.7695 50.4886 34.8105 50.4658C34.888 50.4111 34.9701 50.3564 35.0566 50.3018C35.1478 50.2425 35.2344 50.1855 35.3164 50.1309C35.4805 50.0169 35.6217 49.9235 35.7402 49.8506C35.8587 49.7731 35.9613 49.7184 36.0479 49.6865L36.335 49.5977L36.7793 49.5156L37.2646 49.4951L37.5586 49.5498C37.6497 49.5589 37.7318 49.5794 37.8047 49.6113C37.8822 49.6387 37.9551 49.6706 38.0234 49.707L38.3926 49.9805C38.5977 50.1582 38.7503 50.443 38.8506 50.835V51.1152L38.8027 51.3682C38.7891 51.4548 38.7412 51.5436 38.6592 51.6348H38.666L38.3789 51.9697V51.9561L38.3311 52.0244C38.3812 52.0837 38.429 52.1406 38.4746 52.1953C38.5247 52.25 38.5703 52.307 38.6113 52.3662L38.748 52.5986C38.7799 52.708 38.8096 52.8288 38.8369 52.9609C38.8369 53.0931 38.8301 53.2139 38.8164 53.3232C38.8073 53.4326 38.7845 53.5329 38.748 53.624C38.7161 53.7152 38.6706 53.8018 38.6113 53.8838C38.5521 53.9658 38.4746 54.0479 38.3789 54.1299L39.0898 54.8135ZM37.7363 52.7559C37.6908 52.6875 37.6589 52.651 37.6406 52.6465H37.6064L37.4971 52.7285L37.1826 52.8857L37.0391 52.8994H36.9365L36.6973 52.8516L36.3213 52.667C36.1436 52.5257 36.0547 52.3047 36.0547 52.0039C36.0592 51.89 36.0911 51.776 36.1504 51.6621C36.2142 51.5482 36.2917 51.4479 36.3828 51.3613C36.4785 51.2702 36.5811 51.1995 36.6904 51.1494C36.8044 51.0993 36.9137 51.0811 37.0186 51.0947C37.0915 51.0947 37.1576 51.1061 37.2168 51.1289C37.2806 51.1471 37.3376 51.1699 37.3877 51.1973C37.4378 51.2201 37.4834 51.2406 37.5244 51.2588C37.57 51.277 37.6178 51.2975 37.668 51.3203C37.7819 51.2702 37.8389 51.1471 37.8389 50.9512C37.8389 50.8509 37.8229 50.7643 37.791 50.6914C37.7637 50.6185 37.7113 50.5479 37.6338 50.4795L37.3398 50.418C37.1803 50.4225 37.0094 50.4521 36.8271 50.5068C36.6449 50.5615 36.4671 50.6413 36.2939 50.7461L35.8018 51.0605V51.0537C35.7288 51.1038 35.6605 51.154 35.5967 51.2041C35.5374 51.2497 35.4759 51.2975 35.4121 51.3477C35.1341 51.5618 35.0225 51.7327 35.0771 51.8604V51.8535C35.1136 51.9492 35.1592 52.0518 35.2139 52.1611C35.2731 52.266 35.3369 52.3776 35.4053 52.4961L35.8633 53.084L35.8564 53.0703C35.9066 53.1204 35.959 53.1706 36.0137 53.2207C36.0684 53.2708 36.1253 53.3141 36.1846 53.3506L36.7383 53.5557L37.0732 53.6035C37.2191 53.5944 37.3786 53.5352 37.5518 53.4258C37.6429 53.3893 37.7158 53.3278 37.7705 53.2412C37.8252 53.1501 37.8525 53.0635 37.8525 52.9814C37.8525 52.9359 37.848 52.9085 37.8389 52.8994L37.7363 52.7559ZM43.5811 50.5205H41.6191V59.2158L40.6416 58.1904V52.0176C40.6416 51.8717 40.6279 51.7578 40.6006 51.6758C40.5687 51.4844 40.5117 51.3294 40.4297 51.2109C40.3659 51.1243 40.293 51.0423 40.2109 50.9648C40.1289 50.8828 40.0309 50.8031 39.917 50.7256C39.6937 50.5798 39.4658 50.5068 39.2334 50.5068L38.9873 50.5205L37.9414 49.4951H38.5088L38.8301 49.4746H39.083C39.4521 49.4974 39.7119 49.5475 39.8623 49.625C39.9443 49.666 40.015 49.707 40.0742 49.748C40.138 49.7845 40.1927 49.8255 40.2383 49.8711L40.2246 49.8643C40.4115 50.0101 40.596 50.279 40.7783 50.6709L40.8262 50.7734L40.7031 49.8643L40.6416 48.873V48.5039C40.6416 48.4447 40.6325 48.3604 40.6143 48.251C40.6006 48.1416 40.5801 48.0186 40.5527 47.8818L41.127 48.3398L41.2021 48.7979L41.25 49.0371L41.3252 49.208L41.5029 49.4336L41.5645 49.4951H42.5625L43.5811 50.5205ZM48.7148 50.5205V50.917C48.724 50.917 48.7308 50.917 48.7354 50.917C48.7445 50.9124 48.7536 50.9102 48.7627 50.9102C49.0361 50.9102 49.3278 50.9854 49.6377 51.1357C49.9521 51.2816 50.2598 51.4821 50.5605 51.7373C50.9479 52.0791 51.2464 52.471 51.4561 52.9131C51.6657 53.3551 51.7705 53.8382 51.7705 54.3623C51.7705 54.5947 51.7318 54.8089 51.6543 55.0049C51.5768 55.2008 51.472 55.3695 51.3398 55.5107C51.2122 55.652 51.0618 55.7637 50.8887 55.8457C50.7201 55.9232 50.54 55.9619 50.3486 55.9619C49.9977 55.9619 49.681 55.8001 49.3984 55.4766L49.2139 55.1621L49.1729 54.8613L49.2139 54.5811C49.2367 54.499 49.264 54.4284 49.2959 54.3691C49.3324 54.3053 49.3734 54.2461 49.4189 54.1914L49.6992 53.9316L50.2119 53.8496C50.4854 53.8496 50.7269 53.943 50.9365 54.1299L50.957 54.1572C50.9479 54.0752 50.9342 53.9909 50.916 53.9043C50.9023 53.8132 50.8841 53.7311 50.8613 53.6582C50.7611 53.3574 50.5947 53.109 50.3623 52.9131C50.2712 52.8219 50.1755 52.7399 50.0752 52.667C49.9749 52.5941 49.8678 52.5257 49.7539 52.4619C49.6081 52.389 49.4554 52.3343 49.2959 52.2979C49.1364 52.2568 48.9723 52.2363 48.8037 52.2363L48.6943 52.2432V58.9287L48.2158 58.4297L47.9629 57.6914C47.9264 57.5638 47.849 57.4134 47.7305 57.2402C47.612 57.0671 47.4593 56.8688 47.2725 56.6455C46.917 56.167 46.5798 55.848 46.2607 55.6885L45.8369 55.4424L45.8438 55.4492C45.7526 55.4128 45.6615 55.374 45.5703 55.333C45.4837 55.292 45.3949 55.2533 45.3037 55.2168C45.1169 55.1257 44.7796 55.0505 44.292 54.9912L43.0752 53.4873C43.3076 53.3141 43.5583 53.1341 43.8271 52.9473C44.096 52.7559 44.3877 52.5622 44.7021 52.3662C44.9847 52.193 45.2467 52.0404 45.4883 51.9082C45.7344 51.7715 45.9622 51.6576 46.1719 51.5664C46.3633 51.4798 46.5866 51.3887 46.8418 51.293C47.1016 51.1927 47.3955 51.0879 47.7236 50.9785V50.5205H42.8086L41.7627 49.4951H51.9688L52.9668 50.5205H48.7148ZM47.6963 52.3047C47.5277 52.3548 47.3727 52.4095 47.2314 52.4688C47.0947 52.528 46.9648 52.5918 46.8418 52.6602L45.9805 53.1455C45.8893 53.2093 45.7959 53.2731 45.7002 53.3369C45.609 53.3962 45.5202 53.4577 45.4336 53.5215C45.3926 53.5488 45.3584 53.5739 45.3311 53.5967C45.3037 53.6149 45.2786 53.6331 45.2559 53.6514C45.2331 53.6696 45.208 53.6901 45.1807 53.7129C45.1533 53.7311 45.1191 53.7562 45.0781 53.7881C45.2148 53.8473 45.3424 53.9043 45.4609 53.959C45.5794 54.0137 45.6797 54.0706 45.7617 54.1299H45.7549L45.8848 54.2119L46.0146 54.3008L46.1924 54.4238L46.4043 54.5879C46.5228 54.6836 46.6504 54.7952 46.7871 54.9229C46.9238 55.0459 47.0514 55.1872 47.1699 55.3467C47.2474 55.4515 47.3317 55.5677 47.4229 55.6953C47.514 55.8184 47.6051 55.946 47.6963 56.0781V52.3047ZM61.9014 50.5205H60.0557V58.9766L58.9893 58.0879L58.9688 52.8584C58.9688 52.6624 58.8001 52.3024 58.4629 51.7783C58.3079 51.5413 58.1484 51.3568 57.9844 51.2246C57.8203 51.0924 57.6562 51.0264 57.4922 51.0264C57.2917 51.0264 57.1162 51.0833 56.9658 51.1973C56.861 51.2839 56.7926 51.3841 56.7607 51.498C56.8109 51.5208 56.861 51.555 56.9111 51.6006C56.9658 51.6462 57.0296 51.7054 57.1025 51.7783L57.0957 51.7646L57.3418 51.9766C57.5697 52.1771 57.7292 52.3617 57.8203 52.5303V52.5234C57.9251 52.6921 57.9775 52.8721 57.9775 53.0635C57.9775 53.1592 57.9753 53.2344 57.9707 53.2891C57.9661 53.3392 57.957 53.3825 57.9434 53.4189L57.8408 53.7197V53.7129C57.8135 53.804 57.7839 53.877 57.752 53.9316C57.7201 53.9863 57.6676 54.0387 57.5947 54.0889C57.2985 54.2301 57.0456 54.3008 56.8359 54.3008C56.4349 54.3008 56.0544 54.0957 55.6943 53.6855L55.626 53.5898C55.626 53.5944 55.6237 53.599 55.6191 53.6035C55.6146 53.6081 55.6123 53.6126 55.6123 53.6172C55.4619 53.8405 55.2751 53.9932 55.0518 54.0752L54.5938 54.2461L54.2861 54.3008L54.0332 54.2666L53.8145 54.1572L53.5684 53.9521C53.5182 53.8883 53.4681 53.8177 53.418 53.7402C53.3724 53.6582 53.3223 53.5648 53.2676 53.46L53.2061 53.0293C53.2061 52.8197 53.2402 52.6556 53.3086 52.5371L53.5479 52.2021L53.9102 51.8125L54.3408 51.4639C54.4183 51.4001 54.4867 51.3568 54.5459 51.334L54.1904 50.7871L53.9512 50.6572H53.958C53.7894 50.5661 53.6458 50.5205 53.5273 50.5205H52.4814L51.5039 49.4951H53.3906C53.7507 49.5088 54.1061 49.6227 54.457 49.8369L54.8125 50.2129L55.1133 50.6436L55.2432 50.8828C55.3298 50.7279 55.4232 50.5843 55.5234 50.4521C55.6237 50.32 55.7194 50.2129 55.8105 50.1309C55.929 50.026 56.0794 49.9258 56.2617 49.8301C56.444 49.7298 56.6445 49.641 56.8633 49.5635L57.0342 49.5156L57.2256 49.4814C57.3395 49.4814 57.4808 49.5452 57.6494 49.6729C57.8226 49.7959 58.0368 50.0238 58.292 50.3564L58.9141 51.293L59.208 51.7852C59.1715 51.498 59.1305 51.2132 59.085 50.9307C59.0439 50.6481 59.0052 50.3633 58.9688 50.0762V47.9229L59.3994 48.2988L59.6729 48.6338C59.7549 48.7432 59.7959 48.8617 59.7959 48.9893L59.8096 49.2148C59.8324 49.2422 59.8551 49.2695 59.8779 49.2969C59.9007 49.3197 59.9235 49.3493 59.9463 49.3857L60.2881 49.4951H60.876L61.9014 50.5205ZM67.5479 50.5205V59.2363L67.0352 58.5596L67.0557 58.2861C67.0557 57.8577 66.9531 57.3223 66.748 56.6797C66.6569 56.3835 66.5498 56.0758 66.4268 55.7568C66.3037 55.4378 66.1829 55.1439 66.0645 54.875C66.0234 54.8021 65.9756 54.7269 65.9209 54.6494C65.8708 54.5674 65.8115 54.4876 65.7432 54.4102L65.2373 53.918C65.0277 53.7585 64.818 53.6286 64.6084 53.5283C64.3988 53.4235 64.2074 53.3643 64.0342 53.3506C64.0342 53.3597 64.0296 53.3688 64.0205 53.3779C64.3167 53.779 64.4648 54.1253 64.4648 54.417C64.4648 54.5036 64.4626 54.5742 64.458 54.6289C64.4535 54.679 64.4443 54.7223 64.4307 54.7588C64.4307 54.7952 64.4215 54.8385 64.4033 54.8887C64.3851 54.9388 64.3577 55.0003 64.3213 55.0732C64.1253 55.4606 63.7676 55.6543 63.248 55.6543L62.8105 55.5996C62.6602 55.5768 62.5189 55.5404 62.3867 55.4902C62.2591 55.4355 62.1429 55.3695 62.0381 55.292C61.8695 55.1097 61.7327 54.8089 61.6279 54.3896L61.5938 54.0205C61.5938 53.7334 61.6484 53.4691 61.7578 53.2275C61.8672 52.9814 62.0153 52.7718 62.2021 52.5986C62.3936 52.4209 62.6146 52.2842 62.8652 52.1885C63.1204 52.0882 63.3916 52.0381 63.6787 52.0381L64.0137 52.0518C64.1139 52.0518 64.2598 52.0905 64.4512 52.168C64.5423 52.1862 64.6471 52.2318 64.7656 52.3047C64.8887 52.373 65.0072 52.4482 65.1211 52.5303C65.2806 52.6488 65.4447 52.7992 65.6133 52.9814C65.7819 53.1637 65.9391 53.3665 66.085 53.5898C66.1807 53.7402 66.2673 53.877 66.3447 54C66.4222 54.123 66.486 54.2324 66.5361 54.3281V50.5205H61.0332L60.0283 49.4951H68.293L69.3457 50.5205H67.5479ZM81.3428 50.5205H81.1787V59.0654L80.6797 58.416L80.584 58.1221L80.4951 57.8418L80.3652 57.3564C80.3424 57.3063 80.3197 57.2585 80.2969 57.2129C80.2741 57.1628 80.2513 57.1126 80.2285 57.0625L79.791 56.3379L79.4219 55.7842C79.3809 55.734 79.333 55.6794 79.2783 55.6201C79.2282 55.5563 79.1689 55.4948 79.1006 55.4355C78.9958 55.6042 78.8682 55.7637 78.7178 55.9141C78.5719 56.0599 78.4102 56.1875 78.2324 56.2969C78.0547 56.4062 77.8633 56.4928 77.6582 56.5566C77.4577 56.6204 77.2503 56.6523 77.0361 56.6523L76.6807 56.6318C76.585 56.6318 76.4482 56.5908 76.2705 56.5088H76.2773C75.7988 56.3447 75.4206 56.1556 75.1426 55.9414C75.0104 55.8366 74.8395 55.6589 74.6299 55.4082C74.4248 55.153 74.1901 54.8317 73.9258 54.4443C73.821 54.2848 73.7002 54.0547 73.5635 53.7539C73.4313 53.4531 73.2855 53.0771 73.126 52.626L72.7568 51.5186C72.7067 51.3727 72.6611 51.2292 72.6201 51.0879C72.5837 50.9421 72.554 50.8099 72.5312 50.6914L73.2559 50.9717L73.8369 52.5781C73.8734 52.6738 73.9189 52.7809 73.9736 52.8994C74.0283 53.0133 74.1012 53.1387 74.1924 53.2754L74.1855 53.2686L74.541 53.7812C74.8008 54.0273 75.0378 54.237 75.252 54.4102C75.4661 54.5788 75.6667 54.7087 75.8535 54.7998L75.8467 54.793C76.0244 54.8704 76.2135 54.932 76.4141 54.9775C76.6191 55.0186 76.8402 55.0391 77.0771 55.0391C77.2959 55.0391 77.485 55.0094 77.6445 54.9502C77.804 54.8864 77.9362 54.7998 78.041 54.6904C78.1458 54.5811 78.2233 54.4512 78.2734 54.3008C78.3236 54.1504 78.3486 53.9863 78.3486 53.8086C78.3486 53.6172 78.3281 53.4326 78.2871 53.2549C78.2507 53.0771 78.1982 52.9199 78.1299 52.7832C78.0615 52.6465 77.9818 52.5371 77.8906 52.4551C77.804 52.373 77.7129 52.332 77.6172 52.332C77.5762 52.332 77.5055 52.4027 77.4053 52.5439C77.264 52.7399 77.125 52.8903 76.9883 52.9951C76.8561 53.0954 76.7285 53.1455 76.6055 53.1455C76.2044 53.1455 75.8763 53.0658 75.6211 52.9062C75.2839 52.7057 75.1152 52.4141 75.1152 52.0312C75.1152 51.9401 75.1335 51.8285 75.1699 51.6963C75.2064 51.5641 75.2542 51.4229 75.3135 51.2725C75.3545 51.1904 75.4137 51.1198 75.4912 51.0605C75.5732 50.9967 75.6644 50.9443 75.7646 50.9033C75.8649 50.8577 75.9697 50.8258 76.0791 50.8076C76.1885 50.7848 76.2933 50.7734 76.3936 50.7734C77.0771 50.7734 77.6787 50.9785 78.1982 51.3887L78.4375 51.6416L78.7383 51.9834C78.9707 52.266 79.1416 52.5895 79.251 52.9541C79.3604 53.3141 79.415 53.7038 79.415 54.123C79.488 54.2552 79.554 54.3737 79.6133 54.4785C79.6771 54.5788 79.7363 54.6768 79.791 54.7725C79.8457 54.8682 79.9027 54.9684 79.9619 55.0732C80.0212 55.1735 80.0895 55.2897 80.167 55.4219V50.5205H72.3809L71.376 49.4951H80.7686L81.2539 49.5156L81.8418 49.5635C82.1335 49.6045 82.3887 49.7207 82.6074 49.9121C82.8307 50.1035 83.013 50.3564 83.1543 50.6709L83.2021 50.7734L83.0791 49.8643L83.0107 48.873V48.5039C83.0107 48.4264 83.0016 48.3376 82.9834 48.2373C82.9652 48.1325 82.9287 48.0003 82.874 47.8408L83.4961 48.3398L83.5713 48.7979L83.6328 49.0439L83.708 49.2148L83.8721 49.4336L83.9404 49.4951H84.9316L85.9365 50.5205H83.9951V59.2432L83.0107 58.1904V52.0176C83.0107 51.9447 83.0085 51.8831 83.0039 51.833C82.9993 51.7783 82.9902 51.7373 82.9766 51.71C82.9629 51.596 82.9401 51.5003 82.9082 51.4229C82.8763 51.3454 82.8376 51.277 82.792 51.2178L82.3955 50.8145C82.2542 50.7005 82.0811 50.6117 81.876 50.5479L81.8965 50.5547L81.3428 50.5205ZM88.9854 50.5205L89.0742 50.7324C89.1061 50.7598 89.1335 50.7894 89.1562 50.8213C89.1836 50.8486 89.2132 50.876 89.2451 50.9033C89.3044 50.9261 89.3613 50.9512 89.416 50.9785C89.4707 51.0013 89.5277 51.0241 89.5869 51.0469H89.5801L89.8945 51.1289C90.3639 51.2565 90.7718 51.5801 91.1182 52.0996L91.1113 52.0928C91.4531 52.585 91.624 53.084 91.624 53.5898L91.6035 53.7334C91.599 53.9521 91.5488 54.1755 91.4531 54.4033C91.3574 54.6266 91.2161 54.8408 91.0293 55.0459C90.8424 55.251 90.61 55.4401 90.332 55.6133C90.0586 55.7865 89.7396 55.9323 89.375 56.0508C89.3978 56.0736 89.4251 56.0986 89.457 56.126C89.4935 56.1533 89.5231 56.1784 89.5459 56.2012C89.9743 56.4609 90.3503 56.707 90.6738 56.9395C90.9974 57.1719 91.2594 57.3815 91.46 57.5684L92.7314 58.7441L93.0049 59.9199L92.8545 59.9883C92.4535 59.5371 92 59.1156 91.4941 58.7236C90.9883 58.3363 90.4551 57.9785 89.8945 57.6504C89.571 57.4681 89.2793 57.3154 89.0195 57.1924C88.7598 57.0648 88.5342 56.9622 88.3428 56.8848C88.1514 56.8073 87.9121 56.723 87.625 56.6318C87.3379 56.5407 86.9938 56.4404 86.5928 56.3311L85.458 53.9658C85.7178 54.1117 85.9616 54.2393 86.1895 54.3486C86.4219 54.458 86.6383 54.5446 86.8389 54.6084L86.832 54.6016L87.4404 54.7178L88.0352 54.7656C88.3861 54.7656 88.6458 54.7269 88.8145 54.6494L89.5596 54.3691C89.637 54.319 89.7373 54.2415 89.8604 54.1367C89.9834 54.0273 90.1315 53.8792 90.3047 53.6924L90.2979 53.7061C90.3708 53.6149 90.4072 53.4896 90.4072 53.3301C90.4072 53.2298 90.3936 53.125 90.3662 53.0156C90.3434 52.9017 90.3024 52.7878 90.2432 52.6738C90.1976 52.5736 90.1406 52.4915 90.0723 52.4277C90.0039 52.3639 89.9242 52.3138 89.833 52.2773C89.6416 52.1816 89.4867 52.1338 89.3682 52.1338C89.2861 52.1338 89.1995 52.1452 89.1084 52.168C89.1038 52.3275 89.0719 52.4756 89.0127 52.6123C88.958 52.7445 88.876 52.8743 88.7666 53.002L88.4248 53.3438C88.124 53.5716 87.8005 53.6855 87.4541 53.6855C87.3493 53.6855 87.2376 53.6742 87.1191 53.6514C87.0052 53.624 86.8844 53.5785 86.7568 53.5146C86.5791 53.4007 86.4674 53.2139 86.4219 52.9541L86.4287 52.9609C86.3649 52.7467 86.4378 52.471 86.6475 52.1338L86.8525 51.8467L87.1328 51.5186C87.1966 51.4639 87.2992 51.4001 87.4404 51.3271C87.5863 51.2497 87.7754 51.1722 88.0078 51.0947C88.1536 51.0537 88.2334 51.0264 88.2471 51.0127C88.238 50.9626 88.1696 50.8737 88.042 50.7461H88.0488L87.7959 50.5205H85.2734L84.2822 49.4951H89.8672L90.0176 49.4746L90.4072 49.4541C90.4801 49.4359 90.5508 49.3994 90.6191 49.3447C90.6921 49.29 90.7559 49.2171 90.8105 49.126L90.8037 49.1465C90.8128 49.1191 90.8242 49.0941 90.8379 49.0713C90.8516 49.0485 90.863 49.0234 90.8721 48.9961C90.8584 48.9277 90.7194 48.8434 90.4551 48.7432C90.3047 48.6839 90.1543 48.6452 90.0039 48.627C89.8581 48.6042 89.7168 48.5928 89.5801 48.5928L88.8965 48.6064H88.3975L88.0078 48.6748C87.8301 48.6748 87.7161 48.6839 87.666 48.7021H87.4199C87.0599 48.7021 86.6999 48.652 86.3398 48.5518C85.9844 48.4469 85.6722 48.2692 85.4033 48.0186V48.0254C85.3258 47.9616 85.2529 47.8818 85.1846 47.7861C85.1117 47.6859 85.0501 47.5811 85 47.4717C84.9453 47.3623 84.902 47.2507 84.8701 47.1367C84.8382 47.0182 84.8223 46.9066 84.8223 46.8018C84.8223 46.6924 84.8314 46.599 84.8496 46.5215C84.8633 46.444 84.8838 46.3734 84.9111 46.3096C84.9294 46.2503 84.9567 46.1888 84.9932 46.125C85.0296 46.0612 85.0752 45.9997 85.1299 45.9404L85.2666 45.8789L85.5332 45.8379H85.6973L86.0186 45.9199C85.8408 46.0339 85.7064 46.1546 85.6152 46.2822C85.5286 46.4053 85.4831 46.526 85.4785 46.6445L85.5264 46.9795C85.5492 47.0023 85.597 47.0365 85.6699 47.082C85.7428 47.1276 85.8226 47.1755 85.9092 47.2256L86.3945 47.376L86.627 47.3965L87.7754 47.2939L89.2383 47.2529C89.8171 47.2529 90.2751 47.3669 90.6123 47.5947C90.7718 47.6813 90.9108 47.7793 91.0293 47.8887C91.1478 47.998 91.2526 48.1234 91.3438 48.2646L91.3369 48.2578C91.5693 48.5951 91.6855 48.9733 91.6855 49.3926L91.6787 49.4951H92.8135L93.832 50.5205H88.9854ZM100.244 47.7588C100.112 47.6403 99.957 47.5332 99.7793 47.4375C99.6016 47.3372 99.3965 47.2507 99.1641 47.1777C98.7038 47.0182 98.3574 46.9225 98.125 46.8906H98.1318L97.4756 46.8428C97.2249 46.8428 96.9538 46.8747 96.6621 46.9385C96.5345 46.9567 96.4115 46.9886 96.293 47.0342C96.1745 47.0798 96.056 47.1436 95.9375 47.2256C95.7096 47.3669 95.5889 47.4512 95.5752 47.4785L95.1992 47.9297L95.2061 47.9229L94.8301 48.4971V48.4902C94.7845 48.5677 94.748 48.6429 94.7207 48.7158C94.6979 48.7842 94.6797 48.8434 94.666 48.8936C94.7116 49.0029 94.7572 49.1032 94.8027 49.1943C94.8483 49.2809 94.8962 49.3812 94.9463 49.4951H96.3955L97.2432 50.5205H95.2471V59.0586L94.2148 58.1631L94.2285 50.5205H93.0869L92.0684 49.4951H94.1875L93.6133 48.9004V48.9072C93.5221 48.8161 93.4766 48.668 93.4766 48.4629C93.4766 48.2806 93.4993 48.1348 93.5449 48.0254V48.0322L93.6611 47.7246L94.1055 47.0342C94.2422 46.8337 94.3311 46.7129 94.3721 46.6719C94.6364 46.4486 95.042 46.207 95.5889 45.9473C95.8896 45.8105 96.2633 45.7422 96.71 45.7422C97.0244 45.7422 97.3411 45.7741 97.6602 45.8379C97.9837 45.9017 98.3415 46.0133 98.7334 46.1729L99.4512 46.4873C99.5742 46.5374 99.6904 46.5921 99.7998 46.6514C99.9092 46.7106 100.016 46.779 100.121 46.8564L100.107 46.8496C100.413 47.0365 100.809 47.3577 101.297 47.8135L101.598 48.1416L101.898 48.9893L100.244 47.7588ZM100.545 50.5205V53.4805C100.718 53.4486 100.96 53.3324 101.27 53.1318L101.263 53.1387C101.627 52.8789 101.912 52.5804 102.117 52.2432L102.274 52.0312L102.541 51.7373C102.646 51.7874 102.735 51.8353 102.808 51.8809C102.885 51.9264 102.949 51.9743 102.999 52.0244L103.341 52.4004C103.432 52.5189 103.521 52.6488 103.607 52.79C103.699 52.9313 103.781 53.0817 103.854 53.2412C104.04 53.7106 104.134 54.1663 104.134 54.6084C104.134 55.0231 104.052 55.4971 103.888 56.0303C103.719 56.5635 103.361 56.9987 102.814 57.3359C102.541 57.4954 102.233 57.6139 101.892 57.6914C101.55 57.7689 101.183 57.8076 100.791 57.8076C100.012 57.8076 99.335 57.4749 98.7607 56.8096C98.7152 56.7549 98.6605 56.682 98.5967 56.5908C98.5374 56.4997 98.4668 56.3857 98.3848 56.249L97.7969 55.2031L97.3457 53.9658C97.291 53.8018 97.234 53.5693 97.1748 53.2686C97.1201 52.9678 97.0586 52.5964 96.9902 52.1543L96.8467 50.7256L97.5371 51.1221C97.5371 51.3454 97.5576 51.5892 97.5986 51.8535C97.6396 52.1133 97.6989 52.3776 97.7764 52.6465L97.8447 52.8584C97.863 52.9085 97.8789 52.9609 97.8926 53.0156C97.9062 53.0703 97.9245 53.1296 97.9473 53.1934V53.1865C97.9837 53.2777 98.0225 53.3665 98.0635 53.4531C98.1045 53.5352 98.1432 53.6195 98.1797 53.7061C98.2982 53.9795 98.4121 54.2256 98.5215 54.4443C98.6354 54.6585 98.7516 54.8385 98.8701 54.9844V54.9775L99.3486 55.5518H99.3418C99.5423 55.7614 99.8887 55.9482 100.381 56.1123H100.374C100.479 56.1396 100.588 56.1624 100.702 56.1807C100.816 56.1943 100.932 56.2012 101.051 56.2012C101.251 56.2012 101.45 56.1784 101.646 56.1328C101.846 56.0827 102.031 56.0166 102.199 55.9346C102.372 55.8525 102.527 55.7546 102.664 55.6406C102.801 55.5267 102.91 55.4036 102.992 55.2715C103.074 55.1393 103.143 54.9958 103.197 54.8408C103.257 54.6813 103.309 54.5218 103.354 54.3623L103.334 54.1504C103.334 54.1048 103.325 54.0524 103.307 53.9932C103.293 53.9294 103.272 53.8542 103.245 53.7676V53.7744C103.222 53.7243 103.193 53.6673 103.156 53.6035C103.12 53.5397 103.076 53.4714 103.026 53.3984C102.926 53.5762 102.737 53.7904 102.459 54.041C102.318 54.1686 102.186 54.2826 102.062 54.3828C101.939 54.4785 101.826 54.5583 101.721 54.6221C101.561 54.7223 101.399 54.7998 101.235 54.8545C101.071 54.9092 100.916 54.9365 100.771 54.9365C100.474 54.9365 100.235 54.8408 100.053 54.6494C99.9844 54.5674 99.9115 54.4557 99.834 54.3145C99.7565 54.1732 99.6722 54 99.5811 53.7949L99.5469 52.3457V50.5205H96.3818L95.3906 49.4951H104.77L105.774 50.5205H100.545ZM109.438 53.2549C109.343 53.3506 109.254 53.4303 109.172 53.4941C109.09 53.5579 109.008 53.6081 108.926 53.6445L108.584 53.7676L108.283 53.8018C107.782 53.8018 107.335 53.5785 106.943 53.1318C106.752 52.8994 106.606 52.6602 106.506 52.4141C106.406 52.168 106.355 51.9014 106.355 51.6143C106.355 51.5277 106.355 51.4548 106.355 51.3955C106.355 51.3317 106.36 51.2747 106.369 51.2246C106.383 51.1699 106.401 51.1152 106.424 51.0605C106.447 51.0013 106.479 50.9307 106.52 50.8486C106.561 50.7575 106.624 50.6686 106.711 50.582C106.798 50.4954 106.898 50.402 107.012 50.3018C107.39 50.0192 107.777 49.8779 108.174 49.8779C108.657 49.8779 109.09 50.0739 109.473 50.4658V50.459C109.846 50.8372 110.033 51.2884 110.033 51.8125C110.033 52.332 109.835 52.8105 109.438 53.248V53.2549ZM109.377 58.0264C109.313 58.1038 109.238 58.1722 109.151 58.2314C109.065 58.2907 108.969 58.3522 108.864 58.416C108.773 58.4525 108.677 58.4821 108.577 58.5049C108.481 58.5322 108.379 58.555 108.27 58.5732C108.023 58.5732 107.791 58.5163 107.572 58.4023C107.354 58.293 107.144 58.1198 106.943 57.8828C106.574 57.4316 106.39 56.9258 106.39 56.3652C106.39 56.0918 106.442 55.8389 106.547 55.6064C106.652 55.374 106.82 55.1644 107.053 54.9775C107.217 54.8545 107.397 54.7565 107.593 54.6836C107.789 54.6061 107.987 54.5674 108.188 54.5674C108.666 54.5674 109.088 54.7633 109.452 55.1553C109.625 55.3558 109.757 55.57 109.849 55.7979C109.94 56.0212 109.985 56.2627 109.985 56.5225C109.985 56.6182 109.983 56.7002 109.979 56.7686C109.979 56.8369 109.974 56.8984 109.965 56.9531C109.956 57.0078 109.942 57.0625 109.924 57.1172C109.906 57.1673 109.881 57.2266 109.849 57.2949V57.2881C109.753 57.5251 109.593 57.7712 109.37 58.0264H109.377ZM108.488 52.5303C108.908 52.2295 109.117 51.9606 109.117 51.7236C109.117 51.6416 109.092 51.5687 109.042 51.5049C108.992 51.4411 108.924 51.3887 108.837 51.3477C108.755 51.3021 108.659 51.2679 108.55 51.2451C108.445 51.2178 108.336 51.2041 108.222 51.2041C107.971 51.2041 107.784 51.2588 107.661 51.3682C107.397 51.5732 107.265 51.8945 107.265 52.332C107.265 52.487 107.294 52.61 107.354 52.7012C107.413 52.7878 107.52 52.8447 107.675 52.8721C107.894 52.8721 108.165 52.7581 108.488 52.5303ZM108.557 57.3223L108.543 57.3359C108.716 57.1947 108.846 57.0511 108.933 56.9053C109.024 56.7594 109.085 56.6113 109.117 56.4609C109.113 56.3652 109.076 56.2786 109.008 56.2012C108.944 56.1191 108.86 56.0508 108.755 55.9961C108.655 55.9368 108.541 55.8936 108.413 55.8662C108.29 55.8343 108.169 55.8184 108.051 55.8184C107.964 55.8184 107.882 55.8275 107.805 55.8457C107.727 55.8594 107.657 55.8913 107.593 55.9414L107.606 55.9346C107.543 56.0075 107.461 56.1419 107.36 56.3379V56.3242C107.306 56.5111 107.278 56.707 107.278 56.9121C107.278 57.0169 107.287 57.1172 107.306 57.2129C107.328 57.304 107.36 57.3883 107.401 57.4658C107.442 57.5387 107.493 57.598 107.552 57.6436C107.616 57.6846 107.688 57.7051 107.771 57.7051C107.894 57.7051 107.998 57.6823 108.085 57.6367L108.557 57.3223Z" fill="#263A9B"/>
<path d="M19.8428 68.8809C19.8525 69.0827 19.8786 69.2682 19.9209 69.4375C19.9665 69.6068 20.0267 69.7467 20.1016 69.8574C20.3652 70.2773 20.7542 70.4873 21.2686 70.4873C21.8936 70.4873 22.3216 70.1471 22.5527 69.4668H23.5049C23.43 69.8932 23.2819 70.2513 23.0605 70.541C22.8392 70.8307 22.5609 71.0505 22.2256 71.2002C21.9294 71.3206 21.6006 71.3809 21.2393 71.3809C20.3311 71.3809 19.667 71.0114 19.2471 70.2725C18.9867 69.8167 18.8564 69.2617 18.8564 68.6074C18.8564 67.556 19.1689 66.7731 19.7939 66.2588C20.1911 65.9333 20.6794 65.7705 21.2588 65.7705C21.6429 65.7705 21.9847 65.8405 22.2842 65.9805C22.5869 66.1204 22.849 66.3255 23.0703 66.5957C23.1354 66.6803 23.194 66.7715 23.2461 66.8691C23.3014 66.9635 23.3503 67.0596 23.3926 67.1572C23.4577 67.3395 23.5081 67.5771 23.5439 67.8701C23.583 68.1631 23.6025 68.5 23.6025 68.8809H19.8428ZM22.582 68.1484C22.582 68.1387 22.582 68.1289 22.582 68.1191C22.5853 68.1061 22.5869 68.0964 22.5869 68.0898V68.0801H22.6504L22.582 68.1484ZM22.5869 68.0801C22.5869 67.8359 22.5413 67.6178 22.4502 67.4258C22.359 67.2337 22.2256 67.0677 22.0498 66.9277C21.8089 66.752 21.542 66.6641 21.249 66.6641C20.7217 66.6641 20.3343 66.8936 20.0869 67.3525C19.9697 67.5576 19.8965 67.8001 19.8672 68.0801H22.5869ZM29.0859 70.1699V71.1562H24.3496C24.3724 70.707 24.431 70.3164 24.5254 69.9844C24.623 69.6491 24.7549 69.3708 24.9209 69.1494C25.1195 68.8988 25.3799 68.6595 25.7021 68.4316C25.79 68.3665 25.8861 68.3014 25.9902 68.2363C26.0944 68.1712 26.2051 68.1045 26.3223 68.0361L27.2256 67.5332C27.818 67.1947 28.1159 66.7601 28.1191 66.2295C28.1191 65.7933 27.9352 65.4548 27.5674 65.2139C27.3558 65.0771 27.1084 65.0088 26.8252 65.0088C26.3695 65.0088 26.0163 65.1829 25.7656 65.5312V65.5264C25.7493 65.5459 25.7347 65.5752 25.7217 65.6143L25.7021 65.6436C25.6501 65.7412 25.6061 65.8747 25.5703 66.0439C25.5378 66.2132 25.5166 66.4167 25.5068 66.6543H24.501C24.5238 65.9447 24.6523 65.4076 24.8867 65.043C25.2936 64.4245 25.9512 64.1152 26.8594 64.1152C27.1849 64.1152 27.4827 64.1641 27.7529 64.2617C28.0231 64.3594 28.2624 64.4993 28.4707 64.6816C28.6888 64.8802 28.8548 65.1081 28.9688 65.3652C29.0827 65.6191 29.1396 65.9007 29.1396 66.21C29.1396 67.0921 28.6383 67.8066 27.6357 68.3535L26.6689 68.8809C26.5029 68.9753 26.3548 69.0697 26.2246 69.1641C26.0944 69.2552 25.987 69.3431 25.9023 69.4277C25.6745 69.6361 25.5312 69.8835 25.4727 70.1699H29.0859ZM33.5781 66.0586C33.5228 65.7721 33.4235 65.5459 33.2803 65.3799C33.1403 65.2139 32.9661 65.1032 32.7578 65.0479C32.6699 65.0283 32.5788 65.0186 32.4844 65.0186C31.804 65.0186 31.3564 65.4678 31.1416 66.3662C31.1058 66.5127 31.0765 66.6706 31.0537 66.8398C31.0342 67.0059 31.0212 67.18 31.0146 67.3623C31.3923 66.9359 31.8968 66.7227 32.5283 66.7227C33.2738 66.7227 33.8548 67.0026 34.2715 67.5625C34.5677 67.9564 34.7158 68.43 34.7158 68.9834C34.7158 69.3773 34.6458 69.7321 34.5059 70.0479C34.3659 70.3604 34.1608 70.6322 33.8906 70.8633C33.6855 71.0293 33.4561 71.1562 33.2021 71.2441C32.9515 71.3353 32.6781 71.3809 32.3818 71.3809C31.5876 71.3809 30.9902 71.0846 30.5898 70.4922C30.209 69.9062 30.012 69.0924 29.999 68.0508V67.9385C29.999 67.3298 30.0511 66.7943 30.1553 66.332C30.2627 65.8665 30.4206 65.4661 30.6289 65.1309C31.0098 64.5742 31.5339 64.2422 32.2012 64.1348C32.2565 64.1283 32.3118 64.1234 32.3672 64.1201C32.4258 64.1169 32.4827 64.1152 32.5381 64.1152C32.9222 64.1152 33.2575 64.195 33.5439 64.3545C33.8304 64.5107 34.0664 64.7435 34.252 65.0527C34.3268 65.1829 34.3936 65.3343 34.4521 65.5068C34.5107 65.6794 34.5547 65.8633 34.584 66.0586H33.5781ZM32.4258 67.626C31.9049 67.626 31.5192 67.8294 31.2686 68.2363C31.1351 68.4414 31.0684 68.6969 31.0684 69.0029C31.0684 69.2633 31.1172 69.4977 31.2148 69.7061C31.3125 69.9111 31.4508 70.0853 31.6299 70.2285C31.7406 70.3099 31.8594 70.3717 31.9863 70.4141C32.1133 70.4564 32.25 70.4775 32.3965 70.4775C32.8555 70.4775 33.2103 70.2839 33.4609 69.8965C33.6172 69.6589 33.6953 69.3773 33.6953 69.0518C33.6953 68.4235 33.4772 67.9922 33.041 67.7578C32.9564 67.7155 32.862 67.6829 32.7578 67.6602C32.6536 67.6374 32.543 67.626 32.4258 67.626ZM37.2891 67.9922V67.123C37.582 67.1198 37.8245 67.1068 38.0166 67.084C38.2119 67.0579 38.3617 67.0238 38.4658 66.9814C38.8011 66.848 38.972 66.5583 38.9785 66.1123C38.9785 65.8551 38.9248 65.6419 38.8174 65.4727C38.71 65.3034 38.5537 65.1764 38.3486 65.0918C38.1924 65.0365 38.0199 65.0088 37.8311 65.0088C37.346 65.0088 36.9945 65.1797 36.7764 65.5215H36.7666L36.7373 65.585C36.6917 65.6696 36.6576 65.7884 36.6348 65.9414C36.612 66.0911 36.5973 66.2734 36.5908 66.4883H35.5898C35.6126 65.0397 36.2507 64.252 37.5039 64.125L37.8213 64.1152C38.749 64.1152 39.3903 64.4294 39.7451 65.0576C39.9111 65.3473 39.9941 65.6891 39.9941 66.083C39.9941 66.7568 39.7126 67.2321 39.1494 67.5088C39.6833 67.7301 40.0104 68.0768 40.1309 68.5488C40.1764 68.7214 40.1992 68.9232 40.1992 69.1543C40.1992 69.9811 39.8835 70.5964 39.252 71C39.0534 71.1237 38.832 71.2181 38.5879 71.2832C38.347 71.3483 38.0833 71.3809 37.7969 71.3809C37.3053 71.3809 36.8887 71.293 36.5469 71.1172C36.2083 70.9382 35.9447 70.6794 35.7559 70.3408C35.5866 70.0186 35.4824 69.5742 35.4434 69.0078H36.4395C36.4948 69.8704 36.8415 70.3506 37.4795 70.4482C37.5902 70.4678 37.7041 70.4775 37.8213 70.4775C38.4626 70.4775 38.8809 70.2367 39.0762 69.7549C39.1478 69.5824 39.1836 69.387 39.1836 69.1689C39.1836 68.3779 38.7295 67.9824 37.8213 67.9824L37.4648 67.9922H37.2891ZM41.3418 65.917H42.2939V72.1426C42.2939 72.8555 41.8545 73.2331 40.9756 73.2754H40.8291L40.6484 73.2656L40.4873 73.2363V72.416L40.7559 72.4258C41.0553 72.4258 41.2376 72.3363 41.3027 72.1572C41.3288 72.0726 41.3418 71.9619 41.3418 71.8252V65.917ZM42.2939 63.9199V65.0869H41.3418V63.9199H42.2939ZM44.4277 63.9199V67.9727L46.4785 65.917H47.7334L45.8779 67.7627L47.9922 71.1562H46.8203L45.1309 68.4414L44.4277 69.1348V71.1562H43.4756V63.9199H44.4277ZM50.624 65.7705C51.6429 65.7705 52.3428 66.2018 52.7236 67.0645C52.9157 67.4974 53.0117 68.015 53.0117 68.6172C53.0117 69.724 52.6732 70.5133 51.9961 70.9854C51.6087 71.249 51.1546 71.3809 50.6338 71.3809C49.6768 71.3809 48.9948 70.9821 48.5879 70.1846C48.3698 69.7451 48.2607 69.2096 48.2607 68.5781C48.2607 68.002 48.3503 67.512 48.5293 67.1084C48.7083 66.7015 48.9704 66.3809 49.3154 66.1465C49.501 66.026 49.7028 65.9333 49.9209 65.8682C50.1423 65.8031 50.3766 65.7705 50.624 65.7705ZM50.6338 66.6641C50.3538 66.6641 50.1113 66.7373 49.9062 66.8838C49.7044 67.027 49.5449 67.237 49.4277 67.5137C49.3724 67.6602 49.3285 67.8245 49.2959 68.0068C49.2633 68.1859 49.2471 68.3763 49.2471 68.5781C49.2471 69.4408 49.4896 70.0186 49.9746 70.3115C50.1634 70.4287 50.3831 70.4873 50.6338 70.4873C51.1839 70.4873 51.5811 70.2155 51.8252 69.6719C51.9554 69.3789 52.0205 69.0241 52.0205 68.6074C52.0205 68.1582 51.9554 67.7839 51.8252 67.4844C51.695 67.1816 51.5078 66.957 51.2637 66.8105C51.0814 66.7129 50.8714 66.6641 50.6338 66.6641ZM58.4219 63.9199V71.1562H57.5576V70.6289C57.193 71.0749 56.752 71.3223 56.2344 71.3711C56.1986 71.3743 56.1611 71.376 56.1221 71.376C56.0863 71.3792 56.0472 71.3809 56.0049 71.3809C55.5719 71.3809 55.196 71.2848 54.877 71.0928C54.5612 70.9007 54.3008 70.6208 54.0957 70.2529C53.972 70.0186 53.8776 69.7565 53.8125 69.4668C53.7474 69.1771 53.7148 68.863 53.7148 68.5244C53.7148 67.5088 54.0127 66.7487 54.6084 66.2441C54.9925 65.9284 55.4482 65.7705 55.9756 65.7705C56.6169 65.7705 57.1165 65.9837 57.4746 66.4102V63.9199H58.4219ZM56.1123 66.6738C55.5882 66.6738 55.2008 66.9261 54.9502 67.4307C54.8883 67.5511 54.8379 67.6813 54.7988 67.8213C54.7598 67.958 54.7321 68.1094 54.7158 68.2754V68.2705C54.7126 68.3193 54.7093 68.3698 54.7061 68.4219C54.7061 68.4707 54.7061 68.5228 54.7061 68.5781C54.7061 69.3366 54.9242 69.8867 55.3604 70.2285C55.471 70.3099 55.5898 70.3717 55.7168 70.4141C55.8438 70.4564 55.9788 70.4775 56.1221 70.4775C56.6234 70.4775 56.9945 70.2285 57.2354 69.7305C57.3949 69.4049 57.4746 69.0273 57.4746 68.5977C57.4746 68.1908 57.416 67.8441 57.2988 67.5576C57.1816 67.2679 57.0156 67.0417 56.8008 66.8789C56.599 66.7422 56.3695 66.6738 56.1123 66.6738ZM61.6543 65.917V66.7178H60.8096V71.1562H59.8574V66.7178H59.1787V65.917H59.8574V65.126C59.8574 64.5173 60.1146 64.1299 60.6289 63.9639C60.7038 63.9378 60.7819 63.9199 60.8633 63.9102C60.9479 63.9004 61.0358 63.8955 61.127 63.8955L61.332 63.9053L61.6543 63.9443V64.7549L61.3418 64.7451H61.3027C60.9772 64.7451 60.8128 64.8932 60.8096 65.1895V65.917H61.6543ZM64.3984 65.917V66.7178H63.5635V70.1406C63.5635 70.3522 63.6172 70.4727 63.7246 70.502L63.7148 70.4971L63.9395 70.5312C64.0111 70.528 64.0892 70.5215 64.1738 70.5117C64.2585 70.502 64.3333 70.4873 64.3984 70.4678V71.3027C64.252 71.3288 64.1169 71.3483 63.9932 71.3613C63.8727 71.3743 63.7637 71.3809 63.666 71.3809C63.054 71.3809 62.7057 71.1432 62.6211 70.668L62.6113 70.502V66.7178H61.9229V65.917H62.6113V64.5156H63.5635V65.917H64.3984ZM67.0986 66.2441H65.5752V65.4873L65.7119 65.4824C66.0179 65.4401 66.2702 65.3913 66.4688 65.3359C66.6706 65.2773 66.8187 65.209 66.9131 65.1309C66.9912 65.069 67.0645 64.9779 67.1328 64.8574C67.2012 64.737 67.263 64.5921 67.3184 64.4229L67.4111 64.1152H68.1045V71.1562H67.0986V66.2441ZM75.209 70.1699V71.1562H70.4727C70.4954 70.707 70.554 70.3164 70.6484 69.9844C70.7461 69.6491 70.8779 69.3708 71.0439 69.1494C71.2425 68.8988 71.5029 68.6595 71.8252 68.4316C71.9131 68.3665 72.0091 68.3014 72.1133 68.2363C72.2174 68.1712 72.3281 68.1045 72.4453 68.0361L73.3486 67.5332C73.9411 67.1947 74.2389 66.7601 74.2422 66.2295C74.2422 65.7933 74.0583 65.4548 73.6904 65.2139C73.4788 65.0771 73.2314 65.0088 72.9482 65.0088C72.4925 65.0088 72.1393 65.1829 71.8887 65.5312V65.5264C71.8724 65.5459 71.8577 65.5752 71.8447 65.6143L71.8252 65.6436C71.7731 65.7412 71.7292 65.8747 71.6934 66.0439C71.6608 66.2132 71.6396 66.4167 71.6299 66.6543H70.624C70.6468 65.9447 70.7754 65.4076 71.0098 65.043C71.4167 64.4245 72.0742 64.1152 72.9824 64.1152C73.3079 64.1152 73.6058 64.1641 73.876 64.2617C74.1462 64.3594 74.3854 64.4993 74.5938 64.6816C74.8118 64.8802 74.9779 65.1081 75.0918 65.3652C75.2057 65.6191 75.2627 65.9007 75.2627 66.21C75.2627 67.0921 74.7614 67.8066 73.7588 68.3535L72.792 68.8809C72.626 68.9753 72.4779 69.0697 72.3477 69.1641C72.2174 69.2552 72.11 69.3431 72.0254 69.4277C71.7975 69.6361 71.6543 69.8835 71.5957 70.1699H75.209ZM80.5312 71.1562H79.6621V70.5801C79.4896 70.7949 79.304 70.9642 79.1055 71.0879C78.9069 71.2116 78.6986 71.2962 78.4805 71.3418C78.4154 71.3548 78.3454 71.3646 78.2705 71.3711C78.1956 71.3776 78.1159 71.3809 78.0312 71.3809C77.6764 71.3809 77.3737 71.3174 77.123 71.1904C76.8724 71.0667 76.6738 70.8926 76.5273 70.668C76.4655 70.5573 76.4167 70.4401 76.3809 70.3164C76.3483 70.1895 76.332 70.056 76.332 69.916V65.917H77.2842V69.5986C77.2842 70.0153 77.4616 70.2969 77.8164 70.4434C77.9466 70.502 78.0947 70.5312 78.2607 70.5312C78.7848 70.5312 79.1641 70.2904 79.3984 69.8086L79.3936 69.8135C79.4554 69.68 79.5026 69.5368 79.5352 69.3838C79.5677 69.2275 79.584 69.0583 79.584 68.876V65.917H80.5312V71.1562ZM83.8906 65.917V66.7178H83.0459V71.1562H82.0938V66.7178H81.415V65.917H82.0938V65.126C82.0938 64.5173 82.3509 64.1299 82.8652 63.9639C82.9401 63.9378 83.0182 63.9199 83.0996 63.9102C83.1842 63.9004 83.2721 63.8955 83.3633 63.8955L83.5684 63.9053L83.8906 63.9443V64.7549L83.5781 64.7451H83.5391C83.2135 64.7451 83.0492 64.8932 83.0459 65.1895V65.917H83.8906Z" fill="black"/>
</svg>
